<svg width="25" height="25" viewBox="0 0 25 25" fill="none" xmlns="http://www.w3.org/2000/svg">
<g id="Frame 2">
<rect width="25" height="25" rx="12.5" fill="#FF4545" fill-opacity="0.1"/>
<path id="Vector" fill-rule="evenodd" clip-rule="evenodd" d="M6.94869 8.06914C7.55632 7.4126 8.38034 7.04378 9.23953 7.04378C10.0987 7.04378 10.9227 7.4126 11.5304 8.06914L12.4797 9.09438L13.4291 8.06914C13.728 7.73466 14.0856 7.46786 14.4809 7.28432C14.8762 7.10078 15.3014 7.00417 15.7316 7.00013C16.1619 6.99609 16.5885 7.0847 16.9867 7.26079C17.385 7.43688 17.7467 7.69691 18.051 8.02573C18.3552 8.35455 18.5958 8.74557 18.7587 9.17596C18.9216 9.60635 19.0036 10.0675 18.9999 10.5325C18.9961 10.9975 18.9068 11.4571 18.7369 11.8843C18.5671 12.3116 18.3203 12.698 18.0108 13.0211L12.4797 19L6.94869 13.0211C6.34124 12.3643 6 11.4737 6 10.5451C6 9.61649 6.34124 8.72588 6.94869 8.06914Z" fill="#FF4545"/>
</g>
</svg>
