<svg width="148" height="35" viewBox="0 0 148 35" fill="none" xmlns="http://www.w3.org/2000/svg">
<path d="M8.4574 9.27307C13.1246 4.60582 20.6918 4.60582 25.359 9.27307C30.0263 13.9403 30.0263 21.5074 25.359 26.1747L18.3037 33.23C17.533 34.0007 16.2834 34.0007 15.5127 33.23L8.4574 26.1747C3.79015 21.5074 3.79015 13.9403 8.4574 9.27307Z" fill="#4230AF"/>
<path d="M8.4574 9.27307C13.1246 4.60582 20.6918 4.60582 25.359 9.27307C30.0263 13.9403 30.0263 21.5074 25.359 26.1747L18.3037 33.23C17.533 34.0007 16.2834 34.0007 15.5127 33.23L8.4574 26.1747C3.79015 21.5074 3.79015 13.9403 8.4574 9.27307Z" fill="url(#paint0_radial_2671_754)"/>
<path fill-rule="evenodd" clip-rule="evenodd" d="M22.695 7.26425V18.1557H11.0605V7.29638C14.6611 5.27525 19.0858 5.26454 22.695 7.26425Z" fill="#FFF493"/>
<path fill-rule="evenodd" clip-rule="evenodd" d="M11.0605 18.1704L14.2506 14.9883L16.8778 17.609L19.505 14.9883L22.695 18.1704L17.7057 23.1474C17.2481 23.6039 16.5074 23.6039 16.0498 23.1474L11.0605 18.1704Z" fill="#F47637"/>
<path fill-rule="evenodd" clip-rule="evenodd" d="M39.4076 17.769C40.0142 17.1624 40.7414 16.8591 41.5894 16.8591C42.4436 16.8591 43.1739 17.1624 43.7805 17.769C44.3809 18.3694 44.6811 19.0967 44.6811 19.9508C44.6811 20.805 44.3809 21.5322 43.7805 22.1326C43.1739 22.733 42.4436 23.0332 41.5894 23.0332C40.7352 23.0332 40.008 22.733 39.4076 22.1326C38.8072 21.5322 38.507 20.805 38.507 19.9508C38.507 19.0967 38.8072 18.3694 39.4076 17.769ZM37.8849 23.6553C38.9124 24.6827 40.1472 25.1965 41.5894 25.1965C43.0439 25.1965 44.0745 24.8932 44.6811 24.2866V25.0665H46.8443V14.8166H44.6811V15.6057C44.0745 14.9992 43.0439 14.6959 41.5894 14.6959C40.1472 14.6959 38.9124 15.2096 37.8849 16.2371C36.8575 17.2645 36.3438 18.5025 36.3438 19.9508C36.3438 21.393 36.8575 22.6278 37.8849 23.6553ZM54.983 25.0665H57.1462V18.9852C57.1462 17.803 56.7253 16.7941 55.8836 15.9585C55.048 15.1168 54.0422 14.6959 52.8662 14.6959C52.1172 14.6835 51.4085 14.863 50.74 15.2344V14.8166H48.5768V25.0665H50.74V18.9852C50.74 18.3972 50.9474 17.8959 51.3621 17.4812C51.7768 17.0665 52.2781 16.8591 52.8662 16.8591C53.448 16.8591 53.9462 17.0665 54.3609 17.4812C54.7756 17.8959 54.983 18.3972 54.983 18.9852V25.0665ZM65.2849 25.0665H67.4481V18.9852C67.4481 17.803 67.0272 16.7941 66.1855 15.9585C65.3499 15.1168 64.3441 14.6959 63.1681 14.6959C62.4191 14.6835 61.7104 14.863 61.0419 15.2344V14.8166H58.8787V25.0665H61.0419V18.9852C61.0419 18.3972 61.2493 17.8959 61.664 17.4812C62.0787 17.0665 62.58 16.8591 63.1681 16.8591C63.7499 16.8591 64.2481 17.0665 64.6628 17.4812C65.0775 17.8959 65.2849 18.3972 65.2849 18.9852V25.0665ZM71.1581 14.8166H68.9949V20.9071C68.9949 22.0831 69.4158 23.092 70.2576 23.9338C71.0993 24.7756 72.1082 25.1965 73.2843 25.1965C74.1013 25.1903 74.81 25.0077 75.4104 24.6487V25.0665H77.5736V14.8166H75.4104V20.9071C75.4104 21.4951 75.203 21.9965 74.7883 22.4112C74.3736 22.8259 73.8723 23.0332 73.2843 23.0332C72.6963 23.0332 72.1949 22.8259 71.7802 22.4112C71.3655 21.9965 71.1581 21.4951 71.1581 20.9071V14.8166ZM81.6736 17.769C82.2802 17.1624 83.0074 16.8591 83.8554 16.8591C84.7096 16.8591 85.4399 17.1624 86.0465 17.769C86.6469 18.3694 86.9471 19.0967 86.9471 19.9508C86.9471 20.805 86.6469 21.5322 86.0465 22.1326C85.4399 22.733 84.7096 23.0332 83.8554 23.0332C83.0012 23.0332 82.274 22.733 81.6736 22.1326C81.0732 21.5322 80.773 20.805 80.773 19.9508C80.773 19.0967 81.0732 18.3694 81.6736 17.769ZM80.151 23.6553C81.1784 24.6827 82.4132 25.1965 83.8554 25.1965C85.31 25.1965 86.3405 24.8932 86.9471 24.2866V25.0665H89.1103V14.8166H86.9471V15.6057C86.3405 14.9992 85.31 14.6959 83.8554 14.6959C82.4132 14.6959 81.1784 15.2096 80.151 16.2371C79.1235 17.2645 78.6098 18.5025 78.6098 19.9508C78.6098 21.393 79.1235 22.6278 80.151 23.6553ZM93.006 14.8166H90.8428V25.0665H93.006V14.8166ZM90.9913 13.6096C91.2513 13.8696 91.5608 13.9996 91.9198 13.9996C92.285 13.9996 92.5975 13.8696 92.8575 13.6096C93.1175 13.3496 93.2474 13.0402 93.2474 12.6812C93.2474 12.316 93.1175 12.0034 92.8575 11.7435C92.5975 11.4835 92.285 11.3535 91.9198 11.3535C91.5608 11.3535 91.2513 11.4835 90.9913 11.7435C90.7314 12.0034 90.6014 12.316 90.6014 12.6812C90.6014 13.0402 90.7314 13.3496 90.9913 13.6096ZM99.5478 16.8591V14.6959H99C98.2511 14.7144 97.5455 14.8785 96.8832 15.1879V14.8166H94.7199V25.0665H96.8832V18.9852C96.8832 18.3972 97.0905 17.8959 97.5052 17.4812C97.9199 17.0665 98.4182 16.8591 99 16.8591H99.5478ZM106.674 17.444C107.126 17.7968 107.43 18.1311 107.584 18.4467H102.172C102.332 18.1373 102.633 17.803 103.072 17.444C103.604 17.0541 104.205 16.8591 104.873 16.8591C105.536 16.8591 106.136 17.0541 106.674 17.444ZM108.578 16.2371C107.55 15.2096 106.315 14.6959 104.873 14.6959C103.431 14.6959 102.196 15.2096 101.169 16.2371C100.135 17.2645 99.6184 18.4994 99.6184 19.9415C99.6184 21.3899 100.135 22.6278 101.169 23.6553C102.196 24.6827 103.431 25.1965 104.873 25.1965C105.888 25.1965 106.82 24.9241 107.668 24.3794C108.497 23.8595 109.19 23.0425 109.748 21.9284L107.751 21.0649C107.386 21.7767 106.965 22.275 106.489 22.5597C105.987 22.8754 105.449 23.0332 104.873 23.0332C104.069 23.0332 103.372 22.7609 102.784 22.2162C102.246 21.6529 101.936 21.1175 101.856 20.61H110.1L110.119 19.9415C110.119 18.4994 109.605 17.2645 108.578 16.2371ZM114.284 23.9152C114.284 23.4943 114.135 23.1353 113.838 22.8382C113.541 22.5411 113.185 22.3926 112.771 22.3926C112.356 22.3926 112 22.5411 111.703 22.8382C111.406 23.1353 111.257 23.4943 111.257 23.9152C111.257 24.3299 111.406 24.6858 111.703 24.9829C111.994 25.2862 112.35 25.4379 112.771 25.4379C113.191 25.4379 113.547 25.2862 113.838 24.9829C114.135 24.6858 114.284 24.3299 114.284 23.9152ZM119.006 17.7597C119.606 17.1593 120.334 16.8591 121.188 16.8591C122.042 16.8591 122.769 17.1593 123.37 17.7597C123.97 18.3601 124.27 19.0874 124.27 19.9415C124.27 20.7957 123.97 21.5261 123.37 22.1326C122.769 22.733 122.042 23.0332 121.188 23.0332C120.334 23.0332 119.606 22.733 119.006 22.1326C118.399 21.5261 118.096 20.7957 118.096 19.9415C118.096 19.0936 118.399 18.3663 119.006 17.7597ZM117.474 23.6553C118.501 24.6827 119.739 25.1965 121.188 25.1965C122.63 25.1965 123.865 24.6827 124.892 23.6553C125.92 22.6278 126.433 21.3899 126.433 19.9415C126.433 18.4994 125.92 17.2645 124.892 16.2371C123.865 15.2096 122.63 14.6959 121.188 14.6959C119.739 14.6959 118.501 15.2096 117.474 16.2371C116.447 17.2645 115.933 18.4994 115.933 19.9415C115.933 21.3899 116.447 22.6278 117.474 23.6553ZM133.885 25.0665H136.048V18.9852C136.048 17.803 135.627 16.7941 134.786 15.9585C133.95 15.1168 132.944 14.6959 131.768 14.6959C131.019 14.6835 130.311 14.863 129.642 15.2344V14.8166H127.479V25.0665H129.642V18.9852C129.642 18.3972 129.849 17.8959 130.264 17.4812C130.679 17.0665 131.18 16.8591 131.768 16.8591C132.35 16.8591 132.848 17.0665 133.263 17.4812C133.678 17.8959 133.885 18.3972 133.885 18.9852V25.0665ZM144.15 17.444C144.602 17.7968 144.905 18.1311 145.06 18.4467H139.647C139.808 18.1373 140.108 17.803 140.547 17.444C141.08 17.0541 141.68 16.8591 142.349 16.8591C143.011 16.8591 143.611 17.0541 144.15 17.444ZM146.053 16.2371C145.026 15.2096 143.791 14.6959 142.349 14.6959C140.906 14.6959 139.672 15.2096 138.644 16.2371C137.61 17.2645 137.094 18.4994 137.094 19.9415C137.094 21.3899 137.61 22.6278 138.644 23.6553C139.672 24.6827 140.906 25.1965 142.349 25.1965C143.364 25.1965 144.295 24.9241 145.143 24.3794C145.973 23.8595 146.666 23.0425 147.223 21.9284L145.227 21.0649C144.862 21.7767 144.441 22.275 143.964 22.5597C143.463 22.8754 142.924 23.0332 142.349 23.0332C141.544 23.0332 140.848 22.7609 140.26 22.2162C139.721 21.6529 139.412 21.1175 139.331 20.61H147.576L147.594 19.9415C147.594 18.4994 147.08 17.2645 146.053 16.2371Z" fill="white"/>
<defs>
<radialGradient id="paint0_radial_2671_754" cx="0" cy="0" r="1" gradientUnits="userSpaceOnUse" gradientTransform="translate(9.86822 24.8729) rotate(-45) scale(21.9844)">
<stop stop-color="#FAF117"/>
<stop offset="1" stop-color="#F7F752"/>
</radialGradient>
</defs>
</svg>
