<svg width="143" height="42" viewBox="0 0 143 42" fill="none" xmlns="http://www.w3.org/2000/svg">
<path d="M141.364 36.3301C141.364 38.5186 139.555 40.2914 137.316 40.2914H4.84334C2.60605 40.2914 0.790039 38.5186 0.790039 36.3301V4.74079C0.790039 2.55334 2.60605 0.774414 4.84334 0.774414H137.315C139.555 0.774414 141.363 2.55334 141.363 4.74079L141.364 36.3301Z" fill="black"/>
<path d="M136.889 0.822396C139.326 0.822396 141.31 2.75638 141.31 5.13311V35.9331C141.31 38.3098 139.326 40.2438 136.889 40.2438H5.26495C2.82728 40.2438 0.843708 38.3098 0.843708 35.9331V5.13311C0.843708 2.75638 2.82728 0.822396 5.26495 0.822396H136.889ZM136.889 -0.000218878H5.26495C2.37054 -0.000218878 0 2.31106 0 5.13311V35.9331C0 38.7551 2.37054 41.0664 5.26495 41.0664H136.889C139.783 41.0664 142.154 38.7551 142.154 35.9331V5.13311C142.154 2.31106 139.783 -0.000218878 136.889 -0.000218878Z" fill="#A6A6A6"/>
<path d="M31.7245 20.3106C31.6939 17.0017 34.5033 15.3919 34.6318 15.3169C33.0407 13.0552 30.5746 12.7461 29.708 12.7215C27.6368 12.509 25.6277 13.9299 24.5726 13.9299C23.4964 13.9299 21.8716 12.742 20.1205 12.7769C17.8671 12.8108 15.759 14.0829 14.6028 16.0582C12.2168 20.0858 13.9963 26.0045 16.2824 29.26C17.4259 30.8545 18.7622 32.6347 20.5112 32.5721C22.2223 32.5033 22.8614 31.5084 24.9264 31.5084C26.9723 31.5084 27.5725 32.5721 29.3563 32.532C31.1927 32.5033 32.3489 30.9304 33.4524 29.3216C34.7739 27.4942 35.3046 25.6944 35.3257 25.602C35.2825 25.5877 31.7592 24.2766 31.7245 20.3106Z" fill="white"/>
<path d="M28.3549 10.5799C29.2752 9.45773 29.9049 7.93107 29.7301 6.38184C28.3981 6.43933 26.7322 7.28017 25.773 8.37767C24.9243 9.34479 24.1661 10.93 24.362 12.4207C25.8583 12.5295 27.3946 11.6846 28.3549 10.5799Z" fill="white"/>
<path d="M56.4876 32.3435H54.0962L52.7863 28.3303H48.2332L46.9854 32.3435H44.6572L49.1682 18.6807H51.9544L56.4876 32.3435ZM52.3914 26.6466L51.2068 23.0789C51.0815 22.7144 50.8467 21.8561 50.5003 20.505H50.4581C50.3202 21.0861 50.098 21.9444 49.7927 23.0789L48.6291 26.6466H52.3914Z" fill="white"/>
<path d="M68.0881 27.2971C68.0881 28.9726 67.6237 30.297 66.695 31.2693C65.8631 32.1347 64.8302 32.567 63.5971 32.567C62.2661 32.567 61.31 32.1009 60.7277 31.1686H60.6856V36.3584H58.4406V25.7355C58.4406 24.6822 58.4122 23.6011 58.3574 22.4923H60.3318L60.4571 24.0539H60.4992C61.2479 22.8773 62.3841 22.29 63.9088 22.29C65.1008 22.29 66.0958 22.749 66.8919 23.6678C67.6901 24.5877 68.0881 25.7971 68.0881 27.2971ZM65.801 27.3772C65.801 26.4183 65.5799 25.6277 65.1355 25.0056C64.6501 24.3567 63.9983 24.0323 63.1812 24.0323C62.6273 24.0323 62.124 24.213 61.6743 24.5692C61.2237 24.9286 60.9288 25.3978 60.7909 25.9788C60.7214 26.2499 60.6866 26.4716 60.6866 26.6462V28.2888C60.6866 29.0055 60.912 29.6102 61.3627 30.104C61.8133 30.5978 62.3988 30.8442 63.119 30.8442C63.9646 30.8442 64.6227 30.526 65.0934 29.8915C65.5651 29.256 65.801 28.4182 65.801 27.3772Z" fill="white"/>
<path d="M79.7101 27.2971C79.7101 28.9726 79.2457 30.297 78.3159 31.2693C77.4851 32.1347 76.4521 32.567 75.2191 32.567C73.8881 32.567 72.932 32.1009 72.3508 31.1686H72.3086V36.3584H70.0637V25.7355C70.0637 24.6822 70.0352 23.6011 69.9805 22.4923H71.9548L72.0801 24.0539H72.1222C72.8699 22.8773 74.0061 22.29 75.5318 22.29C76.7228 22.29 77.7178 22.749 78.516 23.6678C79.311 24.5877 79.7101 25.7971 79.7101 27.2971ZM77.423 27.3772C77.423 26.4183 77.2008 25.6277 76.7565 25.0056C76.271 24.3567 75.6213 24.0323 74.8032 24.0323C74.2482 24.0323 73.746 24.213 73.2953 24.5692C72.8446 24.9286 72.5508 25.3978 72.4129 25.9788C72.3444 26.2499 72.3086 26.4716 72.3086 26.6462V28.2888C72.3086 29.0055 72.534 29.6102 72.9825 30.104C73.4332 30.5968 74.0187 30.8442 74.741 30.8442C75.5866 30.8442 76.2447 30.526 76.7154 29.8915C77.1871 29.256 77.423 28.4182 77.423 27.3772Z" fill="white"/>
<path d="M92.7042 28.512C92.7042 29.6742 92.2904 30.6198 91.4596 31.3497C90.5467 32.1474 89.2757 32.5458 87.6425 32.5458C86.1346 32.5458 84.9258 32.2624 84.0107 31.6947L84.5309 29.8703C85.5165 30.4514 86.5979 30.743 87.7762 30.743C88.6218 30.743 89.2799 30.5561 89.7527 30.1845C90.2234 29.8128 90.4582 29.3138 90.4582 28.6917C90.4582 28.1373 90.2645 27.6702 89.8759 27.2913C89.4894 26.9125 88.844 26.5603 87.9426 26.2349C85.4891 25.3427 84.2635 24.0358 84.2635 22.3171C84.2635 21.1939 84.6931 20.273 85.5534 19.5564C86.4105 18.8388 87.5541 18.4805 88.984 18.4805C90.2592 18.4805 91.3185 18.6971 92.164 19.1293L91.6028 20.9137C90.8131 20.4948 89.9201 20.2853 88.9208 20.2853C88.1311 20.2853 87.514 20.4753 87.0718 20.8531C86.698 21.1909 86.5105 21.6026 86.5105 22.0902C86.5105 22.6303 86.7243 23.0769 87.1539 23.428C87.5277 23.7524 88.2069 24.1035 89.1925 24.4824C90.3982 24.9557 91.2838 25.509 91.8534 26.1435C92.421 26.7759 92.7042 27.5675 92.7042 28.512Z" fill="white"/>
<path d="M100.126 24.1345H97.6518V28.9178C97.6518 30.1344 98.0877 30.7422 98.9617 30.7422C99.3629 30.7422 99.6957 30.7083 99.9589 30.6405L100.021 32.3027C99.5788 32.4639 98.9965 32.545 98.2752 32.545C97.3886 32.545 96.6957 32.2811 96.1955 31.7544C95.6975 31.2267 95.4468 30.3418 95.4468 29.0985V24.1325H93.9727V22.4898H95.4468V20.686L97.6518 20.0371V22.4898H100.126V24.1345Z" fill="white"/>
<path d="M111.292 27.3361C111.292 28.8504 110.847 30.0937 109.961 31.066C109.031 32.067 107.797 32.5659 106.258 32.5659C104.776 32.5659 103.595 32.0865 102.715 31.1276C101.835 30.1687 101.395 28.9582 101.395 27.4993C101.395 25.9727 101.847 24.7222 102.756 23.75C103.663 22.7767 104.886 22.29 106.425 22.29C107.907 22.29 109.1 22.7695 110.001 23.7294C110.862 24.6606 111.292 25.8628 111.292 27.3361ZM108.962 27.4069C108.962 26.4983 108.763 25.7191 108.36 25.0692C107.889 24.2828 107.217 23.8906 106.345 23.8906C105.442 23.8906 104.757 24.2838 104.286 25.0692C103.883 25.7201 103.684 26.5117 103.684 27.448C103.684 28.3566 103.883 29.1358 104.286 29.7847C104.771 30.5711 105.45 30.9633 106.325 30.9633C107.182 30.9633 107.855 30.5629 108.34 29.7642C108.754 29.102 108.962 28.3145 108.962 27.4069Z" fill="white"/>
<path d="M118.589 24.4173C118.367 24.3773 118.13 24.3567 117.881 24.3567C117.091 24.3567 116.481 24.6473 116.051 25.2294C115.677 25.7427 115.49 26.3916 115.49 27.1749V32.3442H113.246L113.267 25.5949C113.267 24.4594 113.238 23.4255 113.183 22.4933H115.138L115.22 24.3783H115.282C115.519 23.7305 115.893 23.2089 116.405 22.8177C116.905 22.4656 117.445 22.29 118.027 22.29C118.235 22.29 118.422 22.3044 118.589 22.3301V24.4173Z" fill="white"/>
<path d="M128.629 26.9511C128.629 27.3433 128.603 27.6738 128.547 27.9439H121.812C121.839 28.9171 122.164 29.6615 122.789 30.1748C123.357 30.6337 124.091 30.8637 124.992 30.8637C125.989 30.8637 126.899 30.7087 127.717 30.3976L128.069 31.9171C127.113 32.3236 125.984 32.5259 124.682 32.5259C123.115 32.5259 121.885 32.0762 120.99 31.1779C120.097 30.2795 119.649 29.0732 119.649 27.5599C119.649 26.0743 120.065 24.8372 120.898 23.8505C121.77 22.7972 122.948 22.2705 124.431 22.2705C125.887 22.2705 126.99 22.7972 127.738 23.8505C128.331 24.6873 128.629 25.7222 128.629 26.9511ZM126.489 26.3833C126.503 25.7345 126.357 25.1739 126.053 24.7006C125.664 24.0918 125.067 23.7879 124.264 23.7879C123.53 23.7879 122.933 24.0846 122.477 24.6801C122.103 25.1534 121.881 25.7211 121.812 26.3823H126.489V26.3833Z" fill="white"/>
<path d="M51.649 10.2757C51.649 11.484 51.2773 12.3937 50.5349 13.0045C49.8473 13.5682 48.8702 13.8505 47.6045 13.8505C46.9769 13.8505 46.4399 13.8238 45.9902 13.7704V7.16795C46.5768 7.07555 47.2085 7.02832 47.8909 7.02832C49.0966 7.02832 50.0053 7.28396 50.6181 7.79524C51.3047 8.37325 51.649 9.19972 51.649 10.2757ZM50.4855 10.3054C50.4855 9.52209 50.2728 8.92149 49.8473 8.50261C49.4219 8.08476 48.8007 7.87532 47.9825 7.87532C47.635 7.87532 47.3391 7.89791 47.0938 7.94513V12.9645C47.2296 12.985 47.4781 12.9943 47.8393 12.9943C48.6838 12.9943 49.3356 12.7653 49.7947 12.3074C50.2538 11.8495 50.4855 11.1822 50.4855 10.3054Z" fill="white"/>
<path d="M57.8187 11.3309C57.8187 12.0752 57.6007 12.6851 57.1648 13.1635C56.7078 13.6553 56.1023 13.9007 55.3463 13.9007C54.6176 13.9007 54.0374 13.6655 53.6046 13.1933C53.1729 12.722 52.957 12.1276 52.957 11.411C52.957 10.6615 53.1792 10.0466 53.6257 9.56915C54.0721 9.09175 54.6724 8.85254 55.4284 8.85254C56.1571 8.85254 56.7425 9.08765 57.1858 9.55888C57.607 10.0168 57.8187 10.6081 57.8187 11.3309ZM56.6741 11.3658C56.6741 10.9192 56.5751 10.5363 56.3782 10.217C56.1465 9.83095 55.817 9.63794 55.3884 9.63794C54.9451 9.63794 54.6081 9.83095 54.3765 10.217C54.1785 10.5363 54.0806 10.9254 54.0806 11.3853C54.0806 11.8319 54.1796 12.2149 54.3765 12.5342C54.6155 12.9202 54.9482 13.1132 55.3779 13.1132C55.7991 13.1132 56.1297 12.9171 56.3677 12.5239C56.5719 12.1984 56.6741 11.8124 56.6741 11.3658Z" fill="white"/>
<path d="M66.0904 8.95117L64.5372 13.7909H63.5263L62.883 11.6893C62.7197 11.1647 62.5871 10.6431 62.4839 10.1257H62.4639C62.368 10.6575 62.2354 11.178 62.0648 11.6893L61.3814 13.7909H60.3589L58.8984 8.95117H60.0325L60.5937 11.2519C60.7296 11.7961 60.8412 12.3145 60.9307 12.8053H60.9507C61.0328 12.4008 61.1687 11.8854 61.3603 11.2622L62.0648 8.9522H62.964L63.639 11.2129C63.8022 11.7642 63.9349 12.295 64.037 12.8063H64.0676C64.1423 12.3084 64.255 11.7776 64.4045 11.2129L65.0068 8.9522H66.0904V8.95117Z" fill="white"/>
<path d="M71.8119 13.791H70.7084V11.019C70.7084 10.1648 70.3756 9.73768 69.708 9.73768C69.3805 9.73768 69.1162 9.85472 68.9109 10.0898C68.7077 10.3249 68.6045 10.6021 68.6045 10.9194V13.7899H67.5009V10.3342C67.5009 9.90913 67.4873 9.44816 67.4609 8.9492H68.4307L68.4823 9.70585H68.5129C68.6413 9.47074 68.833 9.2767 69.0846 9.12168C69.3837 8.94098 69.7185 8.84961 70.085 8.84961C70.5483 8.84961 70.9337 8.9954 71.2401 9.288C71.6213 9.6463 71.8119 10.1812 71.8119 10.8916V13.791Z" fill="white"/>
<path d="M74.8544 13.7908H73.752V6.73047H74.8544V13.7908Z" fill="white"/>
<path d="M81.3519 11.3309C81.3519 12.0752 81.1339 12.6851 80.698 13.1635C80.241 13.6553 79.6345 13.9007 78.8795 13.9007C78.1498 13.9007 77.5695 13.6655 77.1378 13.1933C76.7061 12.722 76.4902 12.1276 76.4902 11.411C76.4902 10.6615 76.7124 10.0466 77.1589 9.56915C77.6054 9.09175 78.2056 8.85254 78.9606 8.85254C79.6903 8.85254 80.2747 9.08765 80.719 9.55888C81.1402 10.0168 81.3519 10.6081 81.3519 11.3309ZM80.2062 11.3658C80.2062 10.9192 80.1073 10.5363 79.9103 10.217C79.6797 9.83095 79.3491 9.63794 78.9216 9.63794C78.4772 9.63794 78.1403 9.83095 77.9097 10.217C77.7117 10.5363 77.6138 10.9254 77.6138 11.3853C77.6138 11.8319 77.7128 12.2149 77.9097 12.5342C78.1487 12.9202 78.4814 13.1132 78.9111 13.1132C79.3323 13.1132 79.6618 12.9171 79.8998 12.5239C80.1051 12.1984 80.2062 11.8124 80.2062 11.3658Z" fill="white"/>
<path d="M86.6923 13.7908H85.7014L85.6193 13.2333H85.5887C85.2497 13.6779 84.7663 13.9007 84.1388 13.9007C83.6702 13.9007 83.2911 13.7538 83.0057 13.4623C82.7467 13.1974 82.6172 12.8678 82.6172 12.4767C82.6172 11.8853 82.8699 11.4346 83.3785 11.1225C83.886 10.8104 84.6 10.6574 85.5192 10.6646V10.5743C85.5192 9.9367 85.176 9.61843 84.4883 9.61843C83.9987 9.61843 83.567 9.73855 83.1942 9.97674L82.9699 9.27039C83.4311 8.99217 84.0008 8.85254 84.6726 8.85254C85.9699 8.85254 86.6207 9.51987 86.6207 10.8545V12.6368C86.6207 13.1204 86.6449 13.5054 86.6923 13.7908ZM85.5466 12.1276V11.3812C84.3293 11.3607 83.7207 11.6861 83.7207 12.3565C83.7207 12.6091 83.7902 12.798 83.9324 12.9243C84.0745 13.0506 84.2556 13.1132 84.4715 13.1132C84.7137 13.1132 84.9401 13.0383 85.1465 12.8894C85.3539 12.7395 85.4813 12.5496 85.5287 12.3165C85.5403 12.2641 85.5466 12.2005 85.5466 12.1276Z" fill="white"/>
<path d="M92.9631 13.7908H91.9838L91.9322 13.0137H91.9016C91.5889 13.605 91.0561 13.9007 90.3074 13.9007C89.7093 13.9007 89.2113 13.6718 88.8164 13.2139C88.4215 12.756 88.2246 12.1615 88.2246 11.4316C88.2246 10.6482 88.4384 10.0137 88.868 9.52916C89.2839 9.07743 89.7936 8.85156 90.4001 8.85156C91.0666 8.85156 91.5331 9.07024 91.7985 9.50863H91.8195V6.73047H92.9241V12.487C92.9241 12.9582 92.9367 13.3925 92.9631 13.7908ZM91.8195 11.7498V10.9429C91.8195 10.8033 91.809 10.6903 91.789 10.6041C91.7268 10.3454 91.5931 10.1277 91.3899 9.95215C91.1846 9.77659 90.9371 9.68829 90.6517 9.68829C90.24 9.68829 89.9178 9.84743 89.6809 10.1667C89.4461 10.486 89.3271 10.8936 89.3271 11.3915C89.3271 11.87 89.4398 12.258 89.6661 12.5568C89.9052 12.8751 90.2274 13.0342 90.6307 13.0342C90.9929 13.0342 91.2825 12.9018 91.5026 12.6358C91.7153 12.3905 91.8195 12.0948 91.8195 11.7498Z" fill="white"/>
<path d="M102.401 11.3309C102.401 12.0752 102.183 12.6851 101.747 13.1635C101.29 13.6553 100.685 13.9007 99.9283 13.9007C99.2007 13.9007 98.6205 13.6655 98.1867 13.1933C97.7549 12.722 97.5391 12.1276 97.5391 11.411C97.5391 10.6615 97.7612 10.0466 98.2077 9.56915C98.6542 9.09175 99.2544 8.85254 100.011 8.85254C100.739 8.85254 101.326 9.08765 101.768 9.55888C102.189 10.0168 102.401 10.6081 102.401 11.3309ZM101.257 11.3658C101.257 10.9192 101.158 10.5363 100.961 10.217C100.729 9.83095 100.4 9.63794 99.9704 9.63794C99.5282 9.63794 99.1912 9.83095 98.9585 10.217C98.7605 10.5363 98.6626 10.9254 98.6626 11.3853C98.6626 11.8319 98.7616 12.2149 98.9585 12.5342C99.1975 12.9202 99.5303 13.1132 99.9599 13.1132C100.381 13.1132 100.713 12.9171 100.951 12.5239C101.154 12.1984 101.257 11.8124 101.257 11.3658Z" fill="white"/>
<path d="M108.334 13.791H107.232V11.019C107.232 10.1648 106.899 9.73768 106.23 9.73768C105.903 9.73768 105.639 9.85472 105.434 10.0898C105.23 10.3249 105.128 10.6021 105.128 10.9194V13.7899H104.023V10.3342C104.023 9.90913 104.011 9.44816 103.984 8.9492H104.953L105.005 9.70585H105.035C105.165 9.47074 105.356 9.2767 105.607 9.12168C105.907 8.94098 106.241 8.84961 106.608 8.84961C107.071 8.84961 107.456 8.9954 107.762 9.288C108.145 9.6463 108.334 10.1812 108.334 10.8916V13.791Z" fill="white"/>
<path d="M115.761 9.75733H114.546V12.1084C114.546 12.7059 114.762 13.0047 115.19 13.0047C115.388 13.0047 115.552 12.9882 115.681 12.9544L115.71 13.7706C115.492 13.8506 115.205 13.8907 114.853 13.8907C114.417 13.8907 114.078 13.7613 113.832 13.5026C113.586 13.2439 113.464 12.8086 113.464 12.1977V9.75733H112.738V8.9514H113.464V8.06436L114.545 7.74609V8.95037H115.76V9.75733H115.761Z" fill="white"/>
<path d="M121.603 13.7908H120.498V11.0394C120.498 10.1719 120.166 9.73757 119.499 9.73757C118.987 9.73757 118.638 9.98911 118.446 10.4922C118.413 10.5979 118.394 10.7273 118.394 10.8792V13.7898H117.292V6.73047H118.394V9.64723H118.416C118.763 9.11644 119.261 8.85156 119.907 8.85156C120.364 8.85156 120.742 8.99735 121.042 9.28995C121.416 9.65441 121.603 10.1965 121.603 10.9131V13.7908Z" fill="white"/>
<path d="M127.63 11.1415C127.63 11.3345 127.615 11.4967 127.589 11.6291H124.279C124.294 12.1076 124.452 12.472 124.758 12.7246C125.038 12.9505 125.4 13.0634 125.842 13.0634C126.332 13.0634 126.778 12.9874 127.18 12.8344L127.353 13.5819C126.882 13.781 126.328 13.8806 125.687 13.8806C124.918 13.8806 124.313 13.6599 123.875 13.2184C123.435 12.777 123.217 12.1846 123.217 11.4413C123.217 10.7113 123.42 10.1035 123.83 9.61893C124.257 9.10149 124.835 8.84277 125.565 8.84277C126.279 8.84277 126.821 9.10149 127.188 9.61893C127.484 10.0296 127.63 10.5378 127.63 11.1415ZM126.577 10.8633C126.585 10.544 126.513 10.2688 126.363 10.0368C126.171 9.73803 125.88 9.58813 125.485 9.58813C125.125 9.58813 124.831 9.73392 124.607 10.0265C124.424 10.2596 124.315 10.5378 124.279 10.8633H126.577Z" fill="white"/>
</svg>
