<svg width="128" height="31" viewBox="0 0 128 31" fill="none" xmlns="http://www.w3.org/2000/svg">
<rect width="128" height="31" rx="15.5" fill="#D6900A" fill-opacity="0.1"/>
<path fill-rule="evenodd" clip-rule="evenodd" d="M15.6557 22V20.8141C13.518 19.9963 12 17.9255 12 15.5C12 13.0745 13.518 11.0037 15.6557 10.1859V9H16.8743V9.8701C17.1396 9.83214 17.4109 9.8125 17.6867 9.8125C17.9625 9.8125 18.2338 9.83214 18.4991 9.8701V9H19.7177V10.1859C21.2246 10.7624 22.4236 11.9616 23 13.4688H21.6676C21.2396 12.6312 20.555 11.9466 19.7177 11.5185L19.7177 19.4815C20.555 19.0534 21.2396 18.3688 21.6676 17.5312H23C22.4236 19.0384 21.2246 20.2376 19.7177 20.8141V22H18.4991V21.1299C18.2338 21.1679 17.9625 21.1875 17.6867 21.1875C17.4109 21.1875 17.1396 21.1679 16.8743 21.1299V22H15.6557ZM18.4991 19.8951L18.4991 11.1049C18.2356 11.0565 17.9641 11.0312 17.6867 11.0312C17.4093 11.0312 17.1377 11.0565 16.8743 11.1049L16.8743 19.8951C17.1377 19.9435 17.4093 19.9688 17.6867 19.9688C17.9641 19.9688 18.2356 19.9435 18.4991 19.8951ZM13.2186 15.5C13.2186 13.7634 14.209 12.2582 15.6557 11.5185L15.6557 19.4815C14.209 18.7418 13.2186 17.2366 13.2186 15.5Z" fill="#D6900A"/>
<path fill-rule="evenodd" clip-rule="evenodd" d="M15.4057 8.75H17.1243V9.58881C17.3095 9.5714 17.4971 9.5625 17.6867 9.5625C17.8763 9.5625 18.0639 9.5714 18.2491 9.58881V8.75H19.9677V10.0166C21.4654 10.6405 22.6524 11.8599 23.2335 13.3795L23.3633 13.7188H21.5146L21.445 13.5825C21.1048 12.9169 20.5928 12.3534 19.9677 11.9506L19.9677 19.0494C20.5928 18.6466 21.1048 18.0831 21.445 17.4175L21.5146 17.2812H23.3633L23.2335 17.6205C22.6524 19.1401 21.4654 20.3595 19.9677 20.9834V22.25H18.2491V21.4112C18.0639 21.4286 17.8763 21.4375 17.6867 21.4375C17.4971 21.4375 17.3095 21.4286 17.1243 21.4112V22.25H15.4057V20.9834C13.2594 20.0893 11.75 17.9712 11.75 15.5C11.75 13.0288 13.2594 10.9107 15.4057 10.0166V8.75ZM15.9057 9.25V10.358L15.7451 10.4194C13.7009 11.2014 12.25 13.1815 12.25 15.5C12.25 17.8185 13.7009 19.7986 15.7451 20.5806L15.9057 20.642V21.75H16.6243V20.8416L16.9097 20.8824C17.1634 20.9187 17.4228 20.9375 17.6867 20.9375C17.9506 20.9375 18.21 20.9187 18.4637 20.8824L18.7491 20.8416V21.75H19.4677V20.642L19.6283 20.5806C20.9539 20.0735 22.0306 19.0621 22.6233 17.7812H21.8178C21.3629 18.6035 20.6698 19.2755 19.8315 19.7041L19.4677 19.8901L19.4677 11.1099L19.8315 11.2959C20.6698 11.7245 21.3629 12.3965 21.8178 13.2188H22.6233C22.0306 11.9379 20.9539 10.9265 19.6283 10.4194L19.4677 10.358V9.25H18.7491V10.1584L18.4637 10.1176C18.21 10.0813 17.9506 10.0625 17.6867 10.0625C17.4228 10.0625 17.1634 10.0813 16.9097 10.1176L16.6243 10.1584V9.25H15.9057ZM17.1243 11.3184L17.1243 19.6816C17.3082 19.7061 17.4959 19.7188 17.6867 19.7188C17.8775 19.7188 18.0652 19.7061 18.2491 19.6816L18.2491 11.3184C18.0652 11.2939 17.8775 11.2812 17.6867 11.2812C17.4959 11.2812 17.3082 11.2939 17.1243 11.3184ZM16.8291 10.859C17.1074 10.8079 17.394 10.7812 17.6867 10.7812C17.9793 10.7812 18.266 10.8079 18.5443 10.859L18.7491 10.8967L18.7491 20.1033L18.5443 20.141C18.266 20.1921 17.9793 20.2188 17.6867 20.2188C17.394 20.2188 17.1074 20.1921 16.8291 20.141L16.6243 20.1033L16.6243 10.8967L16.8291 10.859ZM15.9057 11.1099L15.9057 19.8901L15.5419 19.7041C14.0149 18.9233 12.9686 17.3341 12.9686 15.5C12.9686 13.6659 14.0149 12.0767 15.5419 11.2959L15.9057 11.1099ZM15.4057 11.9506C14.24 12.7016 13.4686 14.0109 13.4686 15.5C13.4686 16.9891 14.24 18.2984 15.4057 19.0494L15.4057 11.9506Z" fill="#D6900A"/>
<path d="M35.612 9.28747C36.536 9.28747 37.306 9.59547 37.922 10.2115C38.5473 10.8275 38.86 11.5928 38.86 12.5075C38.86 13.4128 38.5473 14.1781 37.922 14.8035C37.306 15.4195 36.536 15.7275 35.612 15.7275H33.61V19.0875H32V9.28747H35.612ZM35.612 14.2155C36.088 14.2155 36.48 14.0568 36.788 13.7395C37.096 13.4128 37.25 13.0021 37.25 12.5075C37.25 12.0128 37.096 11.6068 36.788 11.2895C36.48 10.9628 36.088 10.7995 35.612 10.7995H33.61V14.2155H35.612Z" fill="#D6900A"/>
<path d="M45.2116 12.0875H46.7236V19.0875H45.2116V18.0795C44.6423 18.8728 43.8256 19.2695 42.7616 19.2695C41.8003 19.2695 40.979 18.9148 40.2976 18.2055C39.6163 17.4868 39.2756 16.6141 39.2756 15.5875C39.2756 14.5515 39.6163 13.6788 40.2976 12.9695C40.979 12.2601 41.8003 11.9055 42.7616 11.9055C43.8256 11.9055 44.6423 12.2975 45.2116 13.0815V12.0875ZM41.4176 17.1975C41.8376 17.6175 42.365 17.8275 42.9996 17.8275C43.6343 17.8275 44.1616 17.6175 44.5816 17.1975C45.0016 16.7681 45.2116 16.2315 45.2116 15.5875C45.2116 14.9435 45.0016 14.4115 44.5816 13.9915C44.1616 13.5621 43.6343 13.3475 42.9996 13.3475C42.365 13.3475 41.8376 13.5621 41.4176 13.9915C40.9976 14.4115 40.7876 14.9435 40.7876 15.5875C40.7876 16.2315 40.9976 16.7681 41.4176 17.1975Z" fill="#D6900A"/>
<path d="M53.204 12.0875H54.814L52.126 19.3115C51.454 21.1221 50.3153 21.9808 48.71 21.8875V20.4735C49.186 20.5015 49.5687 20.3988 49.858 20.1655C50.1473 19.9415 50.3853 19.5868 50.572 19.1015L50.642 18.9615L47.674 12.0875H49.326L51.412 17.1695L53.204 12.0875Z" fill="#D6900A"/>
<path d="M60.6874 10.7575C60.5008 10.9441 60.2768 11.0375 60.0154 11.0375C59.7541 11.0375 59.5254 10.9441 59.3294 10.7575C59.1428 10.5615 59.0494 10.3328 59.0494 10.0715C59.0494 9.81014 59.1428 9.58614 59.3294 9.39947C59.5161 9.20347 59.7448 9.10547 60.0154 9.10547C60.2861 9.10547 60.5148 9.20347 60.7014 9.39947C60.8881 9.58614 60.9814 9.81014 60.9814 10.0715C60.9814 10.3328 60.8834 10.5615 60.6874 10.7575ZM59.2594 19.0875V12.0875H60.7714V19.0875H59.2594Z" fill="#D6900A"/>
<path d="M66.209 11.9055C67.0117 11.9055 67.6603 12.1621 68.155 12.6755C68.6497 13.1888 68.897 13.8935 68.897 14.7895V19.0875H67.385V14.9435C67.385 14.4208 67.245 14.0195 66.965 13.7395C66.685 13.4595 66.3023 13.3195 65.817 13.3195C65.285 13.3195 64.8557 13.4875 64.529 13.8235C64.2023 14.1501 64.039 14.6541 64.039 15.3355V19.0875H62.527V12.0875H64.039V12.9835C64.4963 12.2648 65.2197 11.9055 66.209 11.9055Z" fill="#D6900A"/>
<path d="M78.757 19.2695C77.2824 19.2695 76.0597 18.7841 75.089 17.8135C74.1184 16.8335 73.633 15.6248 73.633 14.1875C73.633 12.7501 74.1184 11.5461 75.089 10.5755C76.0597 9.59547 77.2824 9.10547 78.757 9.10547C79.6437 9.10547 80.4604 9.31547 81.207 9.73547C81.963 10.1555 82.551 10.7248 82.971 11.4435L81.571 12.2555C81.3097 11.7701 80.927 11.3875 80.423 11.1075C79.9284 10.8181 79.373 10.6735 78.757 10.6735C77.7117 10.6735 76.8624 11.0048 76.209 11.6675C75.565 12.3301 75.243 13.1701 75.243 14.1875C75.243 15.2048 75.565 16.0448 76.209 16.7075C76.8624 17.3701 77.7117 17.7015 78.757 17.7015C79.373 17.7015 79.933 17.5615 80.437 17.2815C80.941 16.9921 81.319 16.6048 81.571 16.1195L82.971 16.9175C82.5604 17.6361 81.977 18.2101 81.221 18.6395C80.4744 19.0595 79.653 19.2695 78.757 19.2695Z" fill="#D6900A"/>
<path d="M85.791 13.2635C86.1736 12.3955 86.8923 11.9615 87.947 11.9615V13.5995C87.3683 13.5621 86.8643 13.7021 86.435 14.0195C86.0056 14.3275 85.791 14.8408 85.791 15.5595V19.0875H84.279V12.0875H85.791V13.2635Z" fill="#D6900A"/>
<path d="M93.9188 12.0875H95.5288L92.8408 19.3115C92.1688 21.1221 91.0302 21.9808 89.4248 21.8875V20.4735C89.9008 20.5015 90.2835 20.3988 90.5728 20.1655C90.8622 19.9415 91.1002 19.5868 91.2868 19.1015L91.3568 18.9615L88.3888 12.0875H90.0408L92.1268 17.1695L93.9188 12.0875Z" fill="#D6900A"/>
<path d="M100.436 11.9055C101.398 11.9055 102.219 12.2648 102.9 12.9835C103.582 13.6928 103.922 14.5608 103.922 15.5875C103.922 16.6235 103.582 17.4961 102.9 18.2055C102.219 18.9148 101.398 19.2695 100.436 19.2695C99.3723 19.2695 98.5556 18.8775 97.9863 18.0935V21.8875H96.4743V12.0875H97.9863V13.0955C98.5556 12.3021 99.3723 11.9055 100.436 11.9055ZM98.6163 17.1975C99.0363 17.6175 99.5636 17.8275 100.198 17.8275C100.833 17.8275 101.36 17.6175 101.78 17.1975C102.2 16.7681 102.41 16.2315 102.41 15.5875C102.41 14.9435 102.2 14.4115 101.78 13.9915C101.36 13.5621 100.833 13.3475 100.198 13.3475C99.5636 13.3475 99.0363 13.5621 98.6163 13.9915C98.1963 14.4115 97.9863 14.9435 97.9863 15.5875C97.9863 16.2315 98.1963 16.7681 98.6163 17.1975Z" fill="#D6900A"/>
<path d="M109.062 13.5435H107.326V16.9035C107.326 17.1928 107.391 17.4028 107.522 17.5335C107.653 17.6548 107.844 17.7248 108.096 17.7435C108.357 17.7528 108.679 17.7481 109.062 17.7295V19.0875C107.905 19.2275 107.074 19.1295 106.57 18.7935C106.066 18.4481 105.814 17.8181 105.814 16.9035V13.5435H104.526V12.0875H105.814V10.5755L107.326 10.1275V12.0875H109.062V13.5435Z" fill="#D6900A"/>
<path d="M113.45 19.2695C112.423 19.2695 111.551 18.9148 110.832 18.2055C110.113 17.4961 109.754 16.6235 109.754 15.5875C109.754 14.5515 110.113 13.6788 110.832 12.9695C111.551 12.2601 112.423 11.9055 113.45 11.9055C114.486 11.9055 115.359 12.2601 116.068 12.9695C116.787 13.6788 117.146 14.5515 117.146 15.5875C117.146 16.6235 116.787 17.4961 116.068 18.2055C115.359 18.9148 114.486 19.2695 113.45 19.2695ZM111.896 17.1695C112.316 17.5895 112.834 17.7995 113.45 17.7995C114.066 17.7995 114.584 17.5895 115.004 17.1695C115.424 16.7495 115.634 16.2221 115.634 15.5875C115.634 14.9528 115.424 14.4255 115.004 14.0055C114.584 13.5855 114.066 13.3755 113.45 13.3755C112.834 13.3755 112.316 13.5855 111.896 14.0055C111.476 14.4255 111.266 14.9528 111.266 15.5875C111.266 16.2221 111.476 16.7495 111.896 17.1695Z" fill="#D6900A"/>
</svg>
