<?xml version="1.0" standalone="no"?>
<!DOCTYPE svg PUBLIC "-//W3C//DTD SVG 20010904//EN"
 "http://www.w3.org/TR/2001/REC-SVG-20010904/DTD/svg10.dtd">
<svg version="1.0" xmlns="http://www.w3.org/2000/svg"
 width="700.000000pt" height="700.000000pt" viewBox="0 0 700.000000 700.000000"
 preserveAspectRatio="xMidYMid meet">
<metadata>
Created by potrace 1.14, written by Peter Selinger 2001-2017
</metadata>
<g transform="translate(0.000000,700.000000) scale(0.100000,-0.100000)"
fill="#000000" stroke="none">
<path d="M3427 6984 c-1 -1 -54 -5 -117 -8 -63 -4 -126 -9 -140 -11 -14 -1
-49 -6 -79 -10 -52 -7 -68 -9 -121 -20 -14 -2 -38 -7 -55 -10 -16 -2 -75 -16
-130 -30 -55 -14 -108 -27 -117 -30 -53 -12 -248 -84 -348 -127 -707 -303
-1285 -895 -1572 -1608 -94 -234 -143 -416 -193 -728 -21 -128 -27 -494 -12
-677 5 -55 10 -102 12 -105 2 -3 6 -26 10 -50 62 -444 247 -902 514 -1275 35
-49 91 -124 124 -165 33 -41 499 -514 1036 -1052 770 -770 987 -981 1026
-1001 77 -38 156 -58 232 -58 138 -1 245 45 356 151 134 128 1845 1845 1889
1895 292 337 536 801 634 1204 2 9 8 36 15 61 6 25 13 55 15 68 2 12 6 34 9
50 7 36 33 205 41 262 3 25 7 144 9 265 3 245 -8 377 -51 610 -3 17 -6 35 -8
40 -1 6 -9 37 -16 70 -8 33 -14 62 -15 65 -76 287 -195 564 -351 817 -127 205
-249 359 -425 533 -145 144 -160 158 -254 230 -38 30 -72 57 -75 61 -3 3 -64
45 -137 93 -128 84 -330 193 -463 250 -230 98 -557 189 -765 211 -33 3 -67 8
-75 10 -30 8 -395 25 -403 19z m-262 -2614 c176 -176 324 -320 328 -320 4 0
142 134 307 298 164 163 309 307 323 320 l25 23 395 -394 396 -394 -642 -640
c-565 -564 -648 -642 -692 -659 -67 -25 -167 -25 -225 0 -51 23 -68 39 -811
780 l-521 519 393 393 c217 217 396 394 399 394 3 0 149 -144 325 -320z"/>
</g>
</svg>
