<?xml version="1.0" encoding="UTF-8"?>
<svg fill="none" version="1.1" viewBox="0 0 25 26" xmlns="http://www.w3.org/2000/svg">
 <defs>
  <filter id="filter2" x="0" y="0" width="1" height="1" color-interpolation-filters="sRGB">
   <feColorMatrix values="0.21 0.72 0.072 0 0 0.21 0.72 0.072 0 0 0.21 0.72 0.072 0 0 0 0 0 1 0 "/>
  </filter>
  <filter id="filter3" x="0" y="0" width="1" height="1" color-interpolation-filters="sRGB">
   <feColorMatrix values="0.21 0.72 0.072 0 0 0.21 0.72 0.072 0 0 0.21 0.72 0.072 0 0 0 0 0 1 0 "/>
  </filter>
 </defs>
 <rect y=".5" width="25" height="25" rx="12.5" fill="#FF4545" fill-opacity=".1" filter="url(#filter2)"/>
 <path d="m6.9487 9.0691c0.60763-0.65654 1.4316-1.0254 2.2908-1.0254 0.85917 0 1.6832 0.36882 2.2909 1.0254l0.9493 1.0253 0.9494-1.0253c0.2989-0.33448 0.6565-0.60128 1.0518-0.78482s0.8205-0.28015 1.2507-0.28419c0.4303-0.00404 0.8569 0.08457 1.2551 0.26066 0.3983 0.17609 0.76 0.43612 1.0643 0.76494 0.3042 0.32882 0.5448 0.71984 0.7077 1.1503 0.1629 0.4304 0.2449 0.8915 0.2412 1.3565-0.0038 0.465-0.0931 0.9246-0.263 1.3518-0.1698 0.4273-0.4166 0.8137-0.7261 1.1368l-5.5311 5.9789-5.531-5.9789c-0.60745-0.6568-0.94869-1.5474-0.94869-2.476s0.34124-1.8192 0.94869-2.476z" clip-rule="evenodd" fill="#FF4545" fill-rule="evenodd" filter="url(#filter3)"/>
</svg>
