<svg width="25" height="26" viewBox="0 0 25 26" fill="none" xmlns="http://www.w3.org/2000/svg">
<rect y="0.5" width="25" height="25" rx="12.5" fill="#FF4545" fill-opacity="0.1"/>
<path fill-rule="evenodd" clip-rule="evenodd" d="M6.94869 9.06914C7.55632 8.4126 8.38034 8.04378 9.23953 8.04378C10.0987 8.04378 10.9227 8.4126 11.5304 9.06914L12.4797 10.0944L13.4291 9.06914C13.728 8.73466 14.0856 8.46786 14.4809 8.28432C14.8762 8.10078 15.3014 8.00417 15.7316 8.00013C16.1619 7.99609 16.5885 8.0847 16.9867 8.26079C17.385 8.43688 17.7467 8.69691 18.051 9.02573C18.3552 9.35455 18.5958 9.74557 18.7587 10.176C18.9216 10.6064 19.0036 11.0675 18.9999 11.5325C18.9961 11.9975 18.9068 12.4571 18.7369 12.8843C18.5671 13.3116 18.3203 13.698 18.0108 14.0211L12.4797 20L6.94869 14.0211C6.34124 13.3643 6 12.4737 6 11.5451C6 10.6165 6.34124 9.72588 6.94869 9.06914Z" fill="#FF4545"/>
</svg>
