<svg width="25" height="26" viewBox="0 0 25 26" fill="none" xmlns="http://www.w3.org/2000/svg">
<rect y="0.5" width="25" height="25" rx="12.5" fill="white" fill-opacity="0.25"/>
<path fill-rule="evenodd" clip-rule="evenodd" d="M6.70524 8.72445C7.33958 8.06009 8.19981 7.68688 9.09677 7.68688C9.99372 7.68688 10.854 8.06009 11.4883 8.72445L12.4794 9.76189L13.4705 8.72445C13.7826 8.38598 14.1558 8.11601 14.5685 7.93029C14.9812 7.74456 15.4251 7.6468 15.8742 7.64271C16.3234 7.63862 16.7688 7.72829 17.1845 7.90647C17.6002 8.08465 17.9779 8.34779 18.2955 8.68052C18.6131 9.01326 18.8643 9.40893 19.0344 9.84444C19.2045 10.28 19.29 10.7466 19.2861 11.2171C19.2822 11.6877 19.1889 12.1527 19.0116 12.585C18.8344 13.0174 18.5767 13.4084 18.2536 13.7353L12.4794 19.7854L6.70524 13.7353C6.07109 13.0708 5.71484 12.1696 5.71484 11.2299C5.71484 10.2902 6.07109 9.389 6.70524 8.72445Z" fill="white"/>
</svg>
