<?xml version="1.0" encoding="UTF-8"?>
<svg fill="none" version="1.1" viewBox="0 0 25 26" xmlns="http://www.w3.org/2000/svg">
 <rect y=".5" width="25" height="25" rx="12.5" fill="#FFB820" fill-opacity=".15" filter="url(#filter3)"/>
 <path d="m13.075 6.2196c-0.1526-0.1406-0.3595-0.21959-0.5753-0.21959s-0.4227 0.07899-0.5753 0.21959l-5.6963 5.2501c-0.14823 0.1414-0.23025 0.3309-0.2284 0.5275 0.00185 0.1967 0.08744 0.3848 0.23831 0.5238 0.15088 0.1391 0.35498 0.218 0.56834 0.2197s0.41892-0.0739 0.57239-0.2105l0.23843-0.2198v4.9396c0 0.1989 0.08573 0.3897 0.23834 0.5303 0.15261 0.1407 0.35959 0.2197 0.57541 0.2197h1.6276c0.2158 0 0.4228-0.079 0.5754-0.2197 0.1526-0.1406 0.2383-0.3314 0.2383-0.5303v-1.5c0-0.1989 0.0857-0.3897 0.2383-0.5304 0.1526-0.1406 0.3596-0.2196 0.5754-0.2196h1.6275c0.2159 0 0.4228 0.079 0.5755 0.2196 0.1526 0.1407 0.2383 0.3315 0.2383 0.5304v1.5c0 0.1989 0.0857 0.3897 0.2383 0.5303 0.1526 0.1407 0.3596 0.2197 0.5754 0.2197h1.6275c0.2159 0 0.4228-0.079 0.5755-0.2197 0.1526-0.1406 0.2383-0.3314 0.2383-0.5303v-4.9396l0.2384 0.2198c0.1535 0.1366 0.3591 0.2122 0.5724 0.2105 0.2134-0.0017 0.4175-0.0806 0.5684-0.2197 0.1508-0.139 0.2364-0.3271 0.2383-0.5238 0.0018-0.1966-0.0802-0.3861-0.2284-0.5275l-5.6963-5.2501z" fill="url(#paint0_linear_841_15850)" filter="url(#filter2)"/>
 <defs>
  <linearGradient id="paint0_linear_841_15850" x1="12.5" x2="12.5" y1="6" y2="18" gradientUnits="userSpaceOnUse">
   <stop stop-color="#FFC126" offset="0"/>
   <stop stop-color="#FE9F10" offset="1"/>
  </linearGradient>
  <filter id="filter2" x="0" y="0" width="1" height="1" color-interpolation-filters="sRGB">
   <feColorMatrix values="0.21 0.72 0.072 0 0 0.21 0.72 0.072 0 0 0.21 0.72 0.072 0 0 0 0 0 1 0 "/>
  </filter>
  <filter id="filter3" x="0" y="0" width="1" height="1" color-interpolation-filters="sRGB">
   <feColorMatrix values="0.21 0.72 0.072 0 0 0.21 0.72 0.072 0 0 0.21 0.72 0.072 0 0 0 0 0 1 0 "/>
  </filter>
 </defs>
</svg>
