<?xml version="1.0" encoding="UTF-8"?>
<svg version="1.1" viewBox="0 0 19 19" xmlns="http://www.w3.org/2000/svg">
 <rect width="19" height="19" rx="9.5" fill="#313743" fill-opacity=".07"/>
 <circle cx="9.4998" cy="9.2675" r="5.0149" fill="#fff" stroke-width="0"/>
 <path d="m15.2 9.4998c0 1.5117-0.6005 2.9616-1.6695 4.0305-1.0689 1.069-2.5188 1.6695-4.0305 1.6695-1.5117 0-2.9616-0.6005-4.0305-1.6695-1.069-1.0689-1.6695-2.5188-1.6695-4.0305 0-1.5117 0.60054-2.9616 1.6695-4.0305 1.069-1.069 2.5188-1.6695 4.0305-1.6695 1.5117 0 2.9616 0.60054 4.0305 1.6695 1.069 1.069 1.6695 2.5188 1.6695 4.0305zm-4.275-2.1375c0 0.37794-0.1501 0.74039-0.4174 1.0076-0.2672 0.26724-0.62966 0.41737-1.0076 0.41737-0.37793 0-0.74038-0.15013-1.0076-0.41737s-0.41738-0.62969-0.41738-1.0076c0-0.37793 0.15014-0.74038 0.41738-1.0076s0.62969-0.41738 1.0076-0.41738c0.37794 0 0.7404 0.15014 1.0076 0.41738 0.2673 0.26724 0.4174 0.62969 0.4174 1.0076zm-1.425 2.85c-0.68214-1e-4 -1.35 0.1956-1.9242 0.5639-0.57418 0.3683-1.0305 0.8937-1.3149 1.5138 0.40091 0.4664 0.89794 0.8405 1.457 1.0968s1.167 0.3887 1.782 0.388c0.615 7e-4 1.2229-0.1317 1.782-0.388s1.0561-0.6304 1.457-1.0968c-0.2843-0.6201-0.7407-1.1455-1.3148-1.5138-0.5742-0.3683-1.2421-0.564-1.9242-0.5639z" clip-rule="evenodd" fill="#EFBD4E" fill-rule="evenodd"/>
</svg>
