<svg width="19" height="19" viewBox="0 0 19 19" fill="none" xmlns="http://www.w3.org/2000/svg">
<rect width="19" height="19" rx="9.5" fill="#313743" fill-opacity="0.07"/>
<path fill-rule="evenodd" clip-rule="evenodd" d="M15.1998 9.4998C15.1998 11.0115 14.5993 12.4614 13.5303 13.5303C12.4614 14.5993 11.0115 15.1998 9.4998 15.1998C7.98807 15.1998 6.53825 14.5993 5.4693 13.5303C4.40034 12.4614 3.7998 11.0115 3.7998 9.4998C3.7998 7.98807 4.40034 6.53825 5.4693 5.4693C6.53825 4.40034 7.98807 3.7998 9.4998 3.7998C11.0115 3.7998 12.4614 4.40034 13.5303 5.4693C14.5993 6.53825 15.1998 7.98807 15.1998 9.4998ZM10.9248 7.3623C10.9248 7.74024 10.7747 8.10269 10.5074 8.36993C10.2402 8.63717 9.87774 8.7873 9.4998 8.7873C9.12187 8.7873 8.75942 8.63717 8.49218 8.36993C8.22494 8.10269 8.0748 7.74024 8.0748 7.3623C8.0748 6.98437 8.22494 6.62192 8.49218 6.35468C8.75942 6.08744 9.12187 5.9373 9.4998 5.9373C9.87774 5.9373 10.2402 6.08744 10.5074 6.35468C10.7747 6.62192 10.9248 6.98437 10.9248 7.3623ZM9.4998 10.2123C8.81766 10.2122 8.14981 10.4079 7.57564 10.7762C7.00146 11.1445 6.5451 11.6699 6.26078 12.29C6.66169 12.7564 7.15872 13.1305 7.7178 13.3868C8.27688 13.6431 8.88478 13.7755 9.4998 13.7748C10.1148 13.7755 10.7227 13.6431 11.2818 13.3868C11.8409 13.1305 12.3379 12.7564 12.7388 12.29C12.4545 11.6699 11.9981 11.1445 11.424 10.7762C10.8498 10.4079 10.1819 10.2122 9.4998 10.2123Z" fill="#313743"/>
</svg>
