<svg width="19" height="19" viewBox="0 0 19 19" fill="none" xmlns="http://www.w3.org/2000/svg">
<path d="M11.836 8.08078L13.8236 6.0932C13.9335 5.97937 13.9944 5.8269 13.993 5.66864C13.9916 5.51039 13.9281 5.359 13.8162 5.2471C13.7043 5.13519 13.5529 5.07171 13.3947 5.07034C13.2364 5.06896 13.084 5.1298 12.9701 5.23974L10.9825 7.22732V6.27005C10.9825 6.10997 10.919 5.95645 10.8058 5.84326C10.6926 5.73006 10.539 5.66647 10.379 5.66647C10.2189 5.66647 10.0654 5.73006 9.95217 5.84326C9.83898 5.95645 9.77539 6.10997 9.77539 6.27005V8.68617C9.7754 8.8053 9.8108 8.92174 9.87711 9.02071C9.94341 9.11969 10.0376 9.19673 10.1478 9.24206C10.2211 9.27244 10.2996 9.28803 10.379 9.28793H12.7933C12.9534 9.28793 13.1069 9.22434 13.2201 9.11115C13.3333 8.99796 13.3969 8.84443 13.3969 8.68436C13.3969 8.52428 13.3333 8.37076 13.2201 8.25756C13.1069 8.14437 12.9534 8.08078 12.7933 8.08078H11.836Z" fill="white"/>
<path d="M4.34277 5.66608C4.34277 5.506 4.40636 5.35248 4.51956 5.23928C4.63275 5.12609 4.78627 5.0625 4.94635 5.0625H6.24585C6.38872 5.06257 6.52694 5.11331 6.63591 5.2057C6.74488 5.2981 6.81755 5.42615 6.84098 5.56709L7.28762 8.24395C7.30897 8.37144 7.28882 8.50241 7.23014 8.61758C7.17147 8.73276 7.07737 8.82606 6.96169 8.88374L6.02736 9.35031C6.36241 10.1806 6.8614 10.9349 7.49452 11.568C8.12763 12.2011 8.88188 12.7001 9.71219 13.0351L10.1794 12.1008C10.237 11.9852 10.3302 11.8912 10.4453 11.8326C10.5603 11.7739 10.6912 11.7537 10.8185 11.7749L13.4954 12.2215C13.6363 12.245 13.7644 12.3176 13.8568 12.4266C13.9492 12.5356 13.9999 12.6738 14 12.8166V14.1161C14 14.2762 13.9364 14.4298 13.8232 14.5429C13.71 14.6561 13.5565 14.7197 13.3964 14.7197H12.1893C7.85559 14.7197 4.34277 11.2069 4.34277 6.87323V5.66608Z" fill="white"/>
</svg>
