<svg width="19" height="19" viewBox="0 0 19 19" fill="none" xmlns="http://www.w3.org/2000/svg">
<g id="Frame 31">
<path id="Vector" d="M8.24996 5.71429C8.24996 5.52485 8.17094 5.34316 8.03029 5.20921C7.88963 5.07525 7.69887 5 7.49995 5C7.30104 5 7.11027 5.07525 6.96961 5.20921C6.82896 5.34316 6.74994 5.52485 6.74994 5.71429V10.9057C6.52193 11.0311 6.33259 11.2114 6.20095 11.4286C6.0693 11.6458 6 11.8921 6 12.1429C6 12.3936 6.0693 12.6399 6.20095 12.8571C6.33259 13.0743 6.52193 13.2546 6.74994 13.38V14.2857C6.74994 14.4752 6.82896 14.6568 6.96961 14.7908C7.11027 14.9247 7.30104 15 7.49995 15C7.69887 15 7.88963 14.9247 8.03029 14.7908C8.17094 14.6568 8.24996 14.4752 8.24996 14.2857V13.38C8.47797 13.2546 8.66731 13.0743 8.79896 12.8571C8.9306 12.6399 8.9999 12.3936 8.9999 12.1429C8.9999 11.8921 8.9306 11.6458 8.79896 11.4286C8.66731 11.2114 8.47797 11.0311 8.24996 10.9057V5.71429ZM12.75 5.71429C12.75 5.52485 12.671 5.34316 12.5303 5.20921C12.3897 5.07525 12.1989 5 12 5C11.8011 5 11.6103 5.07525 11.4697 5.20921C11.329 5.34316 11.25 5.52485 11.25 5.71429V6.62C11.022 6.74539 10.8326 6.92573 10.701 7.14289C10.5694 7.36005 10.5 7.60639 10.5 7.85714C10.5 8.1079 10.5694 8.35423 10.701 8.5714C10.8326 8.78856 11.022 8.9689 11.25 9.09429V14.2857C11.25 14.4752 11.329 14.6568 11.4697 14.7908C11.6103 14.9247 11.8011 15 12 15C12.1989 15 12.3897 14.9247 12.5303 14.7908C12.671 14.6568 12.75 14.4752 12.75 14.2857V9.09429C12.978 8.9689 13.1674 8.78856 13.299 8.5714C13.4306 8.35423 13.5 8.1079 13.5 7.85714C13.5 7.60639 13.4306 7.36005 13.299 7.14289C13.1674 6.92573 12.978 6.74539 12.75 6.62V5.71429ZM16.5 5C16.699 5 16.8897 5.07525 17.0304 5.20921C17.171 5.34316 17.2501 5.52485 17.2501 5.71429V10.9057C17.4781 11.0311 17.6674 11.2114 17.7991 11.4286C17.9307 11.6458 18 11.8921 18 12.1429C18 12.3936 17.9307 12.6399 17.7991 12.8571C17.6674 13.0743 17.4781 13.2546 17.2501 13.38V14.2857C17.2501 14.4752 17.171 14.6568 17.0304 14.7908C16.8897 14.9247 16.699 15 16.5 15C16.3011 15 16.1104 14.9247 15.9697 14.7908C15.8291 14.6568 15.75 14.4752 15.75 14.2857V13.38C15.522 13.2546 15.3327 13.0743 15.201 12.8571C15.0694 12.6399 15.0001 12.3936 15.0001 12.1429C15.0001 11.8921 15.0694 11.6458 15.201 11.4286C15.3327 11.2114 15.522 11.0311 15.75 10.9057V5.71429C15.75 5.52485 15.8291 5.34316 15.9697 5.20921C16.1104 5.07525 16.3011 5 16.5 5Z" fill="#313743" fill-opacity="0.2"/>
</g>
</svg>
