<svg width="19" height="19" viewBox="0 0 19 19" fill="none" xmlns="http://www.w3.org/2000/svg">
<g id="Frame 30">
<path id="Union" fill-rule="evenodd" clip-rule="evenodd" d="M7.65573 16V14.8141C5.51805 13.9963 4 11.9255 4 9.5C4 7.07453 5.51805 5.00367 7.65573 4.18595V3H8.87431V3.8701C9.13964 3.83214 9.41088 3.8125 9.6867 3.8125C9.96252 3.8125 10.2338 3.83214 10.4991 3.8701V3H11.7177V4.18595C13.2246 4.76239 14.4236 5.96159 15 7.46875H13.6676C13.2396 6.63125 12.555 5.94664 11.7177 5.51851L11.7177 13.4815C12.555 13.0534 13.2396 12.3688 13.6676 11.5312H15C14.4236 13.0384 13.2246 14.2376 11.7177 14.8141V16H10.4991V15.1299C10.2338 15.1679 9.96252 15.1875 9.6867 15.1875C9.41088 15.1875 9.13964 15.1679 8.87431 15.1299V16H7.65573ZM10.4991 13.8951L10.4991 5.10493C10.2356 5.05654 9.96412 5.03125 9.6867 5.03125C9.40927 5.03125 9.13775 5.05654 8.87431 5.10493L8.87431 13.8951C9.13775 13.9435 9.40927 13.9688 9.6867 13.9688C9.96412 13.9688 10.2356 13.9435 10.4991 13.8951ZM5.21858 9.5C5.21858 7.76341 6.20901 6.25818 7.65573 5.51851L7.65573 13.4815C6.20901 12.7418 5.21858 11.2366 5.21858 9.5Z" fill="white"/>
<path id="Union (Stroke)" fill-rule="evenodd" clip-rule="evenodd" d="M7.40573 2.75H9.12431V3.58881C9.30949 3.5714 9.49709 3.5625 9.6867 3.5625C9.87631 3.5625 10.0639 3.5714 10.2491 3.58881V2.75H11.9677V4.01663C13.4654 4.64049 14.6524 5.85987 15.2335 7.37945L15.3633 7.71875H13.5146L13.445 7.58253C13.1048 6.91685 12.5928 6.35336 11.9677 5.95062L11.9677 13.0494C12.5928 12.6466 13.1048 12.0831 13.445 11.4175L13.5146 11.2812H15.3633L15.2335 11.6205C14.6524 13.1401 13.4654 14.3595 11.9677 14.9834V16.25H10.2491V15.4112C10.0639 15.4286 9.87631 15.4375 9.6867 15.4375C9.49709 15.4375 9.30949 15.4286 9.12431 15.4112V16.25H7.40573V14.9834C5.25943 14.0893 3.75 11.9712 3.75 9.5C3.75 7.02877 5.25943 4.91069 7.40573 4.01663V2.75ZM7.90573 3.25V4.35798L7.74505 4.41945C5.70094 5.20137 4.25 7.18152 4.25 9.5C4.25 11.8185 5.70094 13.7986 7.74505 14.5806L7.90573 14.642V15.75H8.62431V14.8416L8.90972 14.8824C9.16335 14.9187 9.42276 14.9375 9.6867 14.9375C9.95064 14.9375 10.21 14.9187 10.4637 14.8824L10.7491 14.8416V15.75H11.4677V14.642L11.6283 14.5806C12.9539 14.0735 14.0306 13.0621 14.6233 11.7812H13.8178C13.3629 12.6035 12.6698 13.2755 11.8315 13.7041L11.4677 13.8901L11.4677 5.10992L11.8315 5.29592C12.6698 5.72454 13.3629 6.39646 13.8178 7.21875H14.6233C14.0306 5.93795 12.9539 4.92651 11.6283 4.41945L11.4677 4.35798V3.25H10.7491V4.15841L10.4637 4.11758C10.21 4.08129 9.95064 4.0625 9.6867 4.0625C9.42276 4.0625 9.16335 4.08129 8.90972 4.11758L8.62431 4.15841V3.25H7.90573ZM9.12431 5.31839L9.12431 13.6816C9.30819 13.7061 9.49591 13.7188 9.6867 13.7188C9.87749 13.7188 10.0652 13.7061 10.2491 13.6816L10.2491 5.31839C10.0652 5.2939 9.87749 5.28125 9.6867 5.28125C9.49591 5.28125 9.30819 5.2939 9.12431 5.31839ZM8.82914 4.85905C9.10741 4.80793 9.39405 4.78125 9.6867 4.78125C9.97935 4.78125 10.266 4.80793 10.5443 4.85905L10.7491 4.89668L10.7491 14.1033L10.5443 14.141C10.266 14.1921 9.97935 14.2188 9.6867 14.2188C9.39405 14.2188 9.10741 14.1921 8.82914 14.141L8.62431 14.1033L8.62431 4.89668L8.82914 4.85905ZM7.90573 5.10992L7.90573 13.8901L7.54193 13.7041C6.01487 12.9233 4.96858 11.3341 4.96858 9.5C4.96858 7.66592 6.01487 6.07665 7.54193 5.29592L7.90573 5.10992ZM7.40573 5.95061C6.23996 6.70158 5.46858 8.01086 5.46858 9.5C5.46858 10.9891 6.23996 12.2984 7.40573 13.0494L7.40573 5.95061Z" fill="white"/>
</g>
</svg>
