<svg width="14" height="15" viewBox="0 0 14 15" fill="none" xmlns="http://www.w3.org/2000/svg">
<path d="M6.33467 2.54895C6.54467 1.90425 7.45677 1.90425 7.66607 2.54895L8.41507 4.85335C8.46083 4.9937 8.54979 5.11598 8.66922 5.20273C8.78866 5.28948 8.93246 5.33625 9.08007 5.33635H11.5035C12.1818 5.33635 12.4632 6.20435 11.9151 6.60335L9.95507 8.02716C9.83539 8.11398 9.74628 8.23646 9.70051 8.37705C9.65473 8.51764 9.65465 8.66912 9.70027 8.80976L10.4493 11.1142C10.6593 11.7589 9.92077 12.2958 9.37127 11.8968L7.41127 10.473C7.29172 10.3862 7.14776 10.3394 7.00002 10.3394C6.85228 10.3394 6.70833 10.3862 6.58877 10.473L4.62877 11.8968C4.07997 12.2958 3.34217 11.7589 3.55147 11.1142L4.30047 8.80976C4.34609 8.66912 4.34601 8.51764 4.30024 8.37705C4.25447 8.23646 4.16535 8.11398 4.04567 8.02716L2.08637 6.60406C1.53827 6.20506 1.82037 5.33705 2.49797 5.33705H4.92067C5.06841 5.33709 5.21236 5.29039 5.33194 5.20363C5.45151 5.11688 5.54058 4.99451 5.58637 4.85405L6.33537 2.54965L6.33467 2.54895Z" fill="#a8adb8"/>
</svg>
