<?xml version="1.0" encoding="UTF-8"?>
<svg fill="none" version="1.1" width="14" height="15" viewBox="0 0 14 15" xmlns="http://www.w3.org/2000/svg">
 <g display="none">
  <path d="m6.3347 2.549c0.21-0.6447 1.1221-0.6447 1.3314 0l0.749 2.3044c0.04576 0.14035 0.13472 0.26263 0.25415 0.34938 0.11944 0.08675 0.26324 0.13352 0.41085 0.13362h2.4234c0.6783 0 0.9597 0.868 0.4116 1.267l-1.96 1.4238c-0.11968 0.08682-0.20879 0.2093-0.25456 0.34989-0.04578 0.14059-0.04586 0.29207-2.4e-4 0.43271l0.74903 2.3044c0.21 0.6447-0.52853 1.1816-1.078 0.7826l-1.96-1.4238c-0.11955-0.0868-0.26351-0.1336-0.41125-0.1336s-0.29169 0.0468-0.41125 0.1336l-1.96 1.4238c-0.5488 0.399-1.2866-0.1379-1.0773-0.7826l0.749-2.3044c0.04562-0.14064 0.04554-0.29212-2.3e-4 -0.43271s-0.13489-0.26307-0.25457-0.34989l-1.9593-1.4231c-0.5481-0.399-0.266-1.267 0.4116-1.267h2.4227c0.14774 4e-5 0.29169-0.04666 0.41127-0.13342 0.11957-0.08675 0.20864-0.20912 0.25443-0.34958l0.749-2.3044z" display="none" fill="#efbd4e"/>
 </g>
 <g>
  <g transform="translate(.15802 .789)">
   <path d="m6.842 1.2759v8.2734c0.14774 0 0.29256 0.047966 0.41211 0.13477l1.959 1.4238c0.5495 0.399 1.2881-0.1385 1.0781-0.7832l-0.74805-2.3047c-0.04562-0.14064-0.04578-0.29105 0-0.43164 0.04577-0.14059 0.13423-0.26474 0.25391-0.35156l1.9609-1.4238c0.5481-0.399 0.26619-1.2656-0.41211-1.2656h-2.4238c-0.14761-1.001e-4 -0.29072-0.048016-0.41016-0.13477-0.11943-0.08675-0.20815-0.20926-0.25391-0.34961l-0.75-2.3027c-0.10465-0.32235-0.38558-0.48438-0.66602-0.48438z" fill="#a8adb8"/>
   <path d="m6.842 1.2759v8.2734c-0.14774 0-0.29256 0.047966-0.41211 0.13477l-1.959 1.4238c-0.5495 0.399-1.2881-0.1385-1.0781-0.7832l0.74805-2.3047c0.04562-0.14064 0.04578-0.29105 0-0.43164-0.04577-0.14059-0.13423-0.26474-0.25391-0.35156l-1.9609-1.4238c-0.5481-0.399-0.26619-1.2656 0.41211-1.2656h2.4238c0.14761-1.001e-4 0.29072-0.048016 0.41016-0.13477 0.11943-0.08675 0.20815-0.20926 0.25391-0.34961l0.75-2.3027c0.10465-0.32235 0.38558-0.48438 0.66602-0.48438z" fill="#efbd4e"/>
  </g>
 </g>
</svg>
