<svg width="100" height="19" viewBox="0 0 100 19" fill="none" xmlns="http://www.w3.org/2000/svg">
<g id="Frame 31">
<path id="Vector" d="M87.5399 2.67909C87.8426 1.77364 89.1571 1.77364 89.4588 2.67909L90.5383 5.91549C90.6042 6.1126 90.7324 6.28434 90.9045 6.40617C91.0767 6.528 91.2839 6.59369 91.4967 6.59384H94.9893C95.9669 6.59384 96.3724 7.8129 95.5825 8.37328L92.7577 10.3729C92.5852 10.4949 92.4568 10.6669 92.3908 10.8643C92.3249 11.0618 92.3248 11.2745 92.3905 11.472L93.47 14.7085C93.7726 15.6139 92.7083 16.368 91.9163 15.8076L89.0916 13.8079C88.9193 13.686 88.7118 13.6204 88.4989 13.6204C88.2859 13.6204 88.0785 13.686 87.9062 13.8079L85.0814 15.8076C84.2904 16.368 83.2271 15.6139 83.5288 14.7085L84.6082 11.472C84.674 11.2745 84.6739 11.0618 84.6079 10.8643C84.5419 10.6669 84.4135 10.4949 84.241 10.3729L81.4172 8.37426C80.6273 7.81388 81.0339 6.59482 82.0104 6.59482H85.5021C85.715 6.59488 85.9225 6.52929 86.0948 6.40744C86.2671 6.28559 86.3955 6.11374 86.4615 5.91648L87.541 2.68007L87.5399 2.67909Z" fill="#EFBD4E"/>
<path id="Vector_2" d="M68.104 2.67909C68.3864 1.77364 69.6133 1.77364 69.8949 2.67909L70.9024 5.91549C70.9639 6.1126 71.0836 6.28434 71.2442 6.40617C71.4049 6.528 71.5983 6.59369 71.7969 6.59384H75.0567C75.9691 6.59384 76.3476 7.8129 75.6103 8.37328L72.9739 10.3729C72.8129 10.4949 72.693 10.6669 72.6315 10.8643C72.5699 11.0618 72.5698 11.2745 72.6311 11.472L73.6386 14.7085C73.9211 15.6139 72.9277 16.368 72.1886 15.8076L69.5521 13.8079C69.3913 13.686 69.1977 13.6204 68.9989 13.6204C68.8002 13.6204 68.6066 13.686 68.4458 13.8079L65.8093 15.8076C65.0711 16.368 64.0786 15.6139 64.3602 14.7085L65.3677 11.472C65.429 11.2745 65.4289 11.0618 65.3674 10.8643C65.3058 10.6669 65.1859 10.4949 65.0249 10.3729L62.3894 8.37426C61.6521 7.81388 62.0316 6.59482 62.9431 6.59482H66.2019C66.4007 6.59488 66.5943 6.52929 66.7551 6.40744C66.916 6.28559 67.0358 6.11374 67.0974 5.91648L68.1049 2.68007L68.104 2.67909Z" fill="#EFBD4E"/>
<path id="Vector_3" d="M48.104 2.67909C48.3864 1.77364 49.6133 1.77364 49.8949 2.67909L50.9024 5.91549C50.9639 6.1126 51.0836 6.28434 51.2442 6.40617C51.4049 6.528 51.5983 6.59369 51.7969 6.59384H55.0567C55.9691 6.59384 56.3476 7.8129 55.6103 8.37328L52.9739 10.3729C52.8129 10.4949 52.693 10.6669 52.6315 10.8643C52.5699 11.0618 52.5698 11.2745 52.6311 11.472L53.6386 14.7085C53.9211 15.6139 52.9277 16.368 52.1886 15.8076L49.5521 13.8079C49.3913 13.686 49.1977 13.6204 48.9989 13.6204C48.8002 13.6204 48.6066 13.686 48.4458 13.8079L45.8093 15.8076C45.0711 16.368 44.0786 15.6139 44.3602 14.7085L45.3677 11.472C45.429 11.2745 45.4289 11.0618 45.3674 10.8643C45.3058 10.6669 45.1859 10.4949 45.0249 10.3729L42.3894 8.37426C41.6521 7.81388 42.0316 6.59482 42.9431 6.59482H46.2019C46.4007 6.59488 46.5943 6.52929 46.7551 6.40744C46.916 6.28559 47.0358 6.11374 47.0974 5.91648L48.1049 2.68007L48.104 2.67909Z" fill="#EFBD4E"/>
<path id="Vector_4" d="M28.5399 2.67909C28.8426 1.77364 30.1571 1.77364 30.4588 2.67909L31.5383 5.91549C31.6042 6.1126 31.7324 6.28434 31.9045 6.40617C32.0767 6.528 32.2839 6.59369 32.4967 6.59384H35.9893C36.9669 6.59384 37.3724 7.8129 36.5825 8.37328L33.7577 10.3729C33.5852 10.4949 33.4568 10.6669 33.3908 10.8643C33.3249 11.0618 33.3248 11.2745 33.3905 11.472L34.47 14.7085C34.7726 15.6139 33.7083 16.368 32.9163 15.8076L30.0916 13.8079C29.9193 13.686 29.7118 13.6204 29.4989 13.6204C29.2859 13.6204 29.0785 13.686 28.9062 13.8079L26.0814 15.8076C25.2904 16.368 24.2271 15.6139 24.5288 14.7085L25.6082 11.472C25.674 11.2745 25.6739 11.0618 25.6079 10.8643C25.5419 10.6669 25.4135 10.4949 25.241 10.3729L22.4172 8.37426C21.6273 7.81388 22.0339 6.59482 23.0104 6.59482H26.5021C26.715 6.59488 26.9225 6.52929 27.0948 6.40744C27.2671 6.28559 27.3955 6.11374 27.4615 5.91648L28.541 2.68007L28.5399 2.67909Z" fill="#EFBD4E"/>
<path id="Vector_5" d="M9.10395 2.67909C9.38643 1.77364 10.6133 1.77364 10.8949 2.67909L11.9024 5.91549C11.9639 6.1126 12.0836 6.28434 12.2442 6.40617C12.4049 6.528 12.5983 6.59369 12.7969 6.59384H16.0567C16.9691 6.59384 17.3476 7.8129 16.6103 8.37328L13.9739 10.3729C13.8129 10.4949 13.693 10.6669 13.6315 10.8643C13.5699 11.0618 13.5698 11.2745 13.6311 11.472L14.6386 14.7085C14.9211 15.6139 13.9277 16.368 13.1886 15.8076L10.5521 13.8079C10.3913 13.686 10.1977 13.6204 9.99894 13.6204C9.80021 13.6204 9.60657 13.686 9.44575 13.8079L6.80929 15.8076C6.07108 16.368 5.07863 15.6139 5.36017 14.7085L6.36768 11.472C6.42905 11.2745 6.42894 11.0618 6.36736 10.8643C6.30579 10.6669 6.18592 10.4949 6.02494 10.3729L3.38941 8.37426C2.65214 7.81388 3.03161 6.59482 3.94307 6.59482H7.20193C7.40065 6.59488 7.5943 6.52929 7.75514 6.40744C7.91599 6.28559 8.03578 6.11374 8.09739 5.91648L9.10489 2.68007L9.10395 2.67909Z" fill="#EFBD4E"/>
</g>
</svg>
