<svg width="17" height="17" viewBox="0 0 17 17" fill="none" xmlns="http://www.w3.org/2000/svg">
<g id="share">
<path id="Vector" d="M9.77712 13.55C9.35608 13.6279 8.9285 13.667 8.5 13.6667C5.44991 13.6667 2.86844 11.7047 2 9C2.23381 8.27207 2.59394 7.58898 3.0646 6.98067M7.05465 7.586C7.43789 7.2109 7.95768 7.00016 8.49966 7.00016C9.04165 7.00016 9.56143 7.2109 9.94467 7.586C10.3279 7.9611 10.5432 8.46986 10.5432 9.00033C10.5432 9.53081 10.3279 10.0396 9.94467 10.4147M7.05465 7.58533L9.94399 10.4133M7.05601 7.58667L4.8151 5.39333M9.94535 10.4147L12.1863 12.608M2.36985 3L4.8151 5.39333M4.8151 5.39333C5.91332 4.69971 7.19298 4.3316 8.5 4.33333C11.5501 4.33333 14.1316 6.29533 15 9C14.5205 10.487 13.5249 11.763 12.1856 12.6073M12.1856 12.6073L14.6301 15" stroke="#9E9E9E" stroke-width="1.5" stroke-linecap="round" stroke-linejoin="round"/>
</g>
</svg>
