<svg width="25" height="25" viewBox="0 0 25 25" fill="none" xmlns="http://www.w3.org/2000/svg">
<g id="Frame 30">
<g id="Group 124886">
<path id="Vector" d="M20.5136 4.72643C20.1328 4.34571 19.6163 4.13184 19.0779 4.13184C18.5394 4.13184 18.0229 4.34571 17.6421 4.72643L9.93945 12.4292V15.3008H12.8109L20.5136 7.59797C20.8943 7.21714 21.1082 6.70069 21.1082 6.1622C21.1082 5.6237 20.8943 5.10726 20.5136 4.72643Z" fill="#A8ADB8"/>
<path id="Vector_2" fill-rule="evenodd" clip-rule="evenodd" d="M4.86133 8.19388C4.86133 7.65528 5.07528 7.13874 5.45612 6.75789C5.83696 6.37704 6.3535 6.16309 6.89209 6.16309H10.9536C11.2229 6.16309 11.4812 6.27007 11.6716 6.46049C11.862 6.65091 11.969 6.90918 11.969 7.17848C11.969 7.44778 11.862 7.70605 11.6716 7.89648C11.4812 8.0869 11.2229 8.19388 10.9536 8.19388H6.89209V18.3479H17.0459V14.2863C17.0459 14.017 17.1529 13.7587 17.3433 13.5683C17.5337 13.3778 17.792 13.2709 18.0613 13.2709C18.3305 13.2709 18.5888 13.3778 18.7792 13.5683C18.9697 13.7587 19.0766 14.017 19.0766 14.2863V18.3479C19.0766 18.8865 18.8627 19.403 18.4818 19.7838C18.101 20.1647 17.5845 20.3786 17.0459 20.3786H6.89209C6.3535 20.3786 5.83696 20.1647 5.45612 19.7838C5.07528 19.403 4.86133 18.8865 4.86133 18.3479V8.19388Z" fill="#A8ADB8"/>
</g>
</g>
</svg>
