<svg width="25" height="26" viewBox="0 0 25 26" fill="none" xmlns="http://www.w3.org/2000/svg">
<g id="Frame 2">
<rect y="0.265625" width="25" height="25" rx="12.5" fill="url(#paint0_linear_920_26912)"/>
<path id="+" d="M17.8489 12.1965C18.3067 12.1965 18.6777 12.5676 18.6777 13.0254C18.6777 13.4831 18.3067 13.8542 17.8489 13.8542H15.9134C14.6216 13.8542 13.5744 14.9014 13.5744 16.1932V17.628C13.5744 18.1274 13.1696 18.5322 12.6703 18.5322C12.1709 18.5322 11.7661 18.1274 11.7661 17.628V16.1932C11.7661 14.9014 10.7189 13.8542 9.42707 13.8542H7.50656C7.04881 13.8542 6.67773 13.4831 6.67773 13.0254C6.67773 12.5676 7.04881 12.1965 7.50656 12.1965H9.43392C10.7219 12.1965 11.7661 11.1524 11.7661 9.86439V8.4364C11.7661 7.93704 12.1709 7.53223 12.6703 7.53223C13.1696 7.53223 13.5744 7.93704 13.5744 8.4364V9.86439C13.5744 11.1524 14.6186 12.1965 15.9066 12.1965H17.8489Z" fill="white"/>
</g>
<defs>
<linearGradient id="paint0_linear_920_26912" x1="12.5" y1="0.265625" x2="12.5" y2="25.2656" gradientUnits="userSpaceOnUse">
<stop stop-color="#FFC126"/>
<stop offset="1" stop-color="#FE9F10"/>
</linearGradient>
</defs>
</svg>
