<svg width="121" height="121" viewBox="0 0 121 121" fill="none" xmlns="http://www.w3.org/2000/svg">
<g id="Frame 2">
<rect width="121" height="121" rx="60.5" fill="#B3B3B3" fill-opacity="0.1"/>
<path id="Vector" fill-rule="evenodd" clip-rule="evenodd" d="M33.6307 41.4745C36.5717 38.2968 40.5599 36.5117 44.7184 36.5117C48.8769 36.5117 52.8651 38.2968 55.806 41.4745L60.401 46.4366L64.996 41.4745C66.4427 39.8556 68.1732 38.5643 70.0866 37.6759C71.9999 36.7876 74.0578 36.32 76.1401 36.3004C78.2225 36.2809 80.2875 36.7098 82.2149 37.562C84.1422 38.4143 85.8932 39.6729 87.3657 41.2644C88.8382 42.8558 90.0027 44.7484 90.7912 46.8315C91.5798 48.9146 91.9766 51.1465 91.9585 53.3971C91.9404 55.6478 91.5077 57.8719 90.6858 59.9399C89.8639 62.0079 88.6692 63.8782 87.1713 65.4418L60.401 94.3798L33.6307 65.4418C30.6907 62.2632 29.0391 57.9527 29.0391 53.4581C29.0391 48.9636 30.6907 44.6531 33.6307 41.4745Z" fill="#C6C6C6"/>
<g id="Vector_2">
<path fill-rule="evenodd" clip-rule="evenodd" d="M37.8677 45.3657C40.345 42.6848 43.7045 41.1788 47.2073 41.1788C50.7102 41.1788 54.0696 42.6848 56.5469 45.3657L60.4174 49.552L64.288 45.3657C65.5066 43.9999 66.9642 42.9104 68.5759 42.161C70.1876 41.4115 71.9211 41.017 73.6751 41.0005C75.4291 40.984 77.1686 41.3459 78.7921 42.0649C80.4156 42.7839 81.8905 43.8457 83.1308 45.1884C84.3712 46.5311 85.3521 48.1277 86.0163 49.8852C86.6805 51.6426 87.0147 53.5256 86.9995 55.4244C86.9843 57.3232 86.6198 59.1996 85.9275 60.9443C85.2352 62.689 84.2288 64.2669 82.9671 65.5861L60.4174 90L37.8677 65.5861C35.3912 62.9044 34 59.2678 34 55.4759C34 51.684 35.3912 48.0473 37.8677 45.3657Z" fill="#E4E4E4"/>
<path fill-rule="evenodd" clip-rule="evenodd" d="M37.8677 45.3657C40.345 42.6848 43.7045 41.1788 47.2073 41.1788C50.7102 41.1788 54.0696 42.6848 56.5469 45.3657L60.4174 49.552L64.288 45.3657C65.5066 43.9999 66.9642 42.9104 68.5759 42.161C70.1876 41.4115 71.9211 41.017 73.6751 41.0005C75.4291 40.984 77.1686 41.3459 78.7921 42.0649C80.4156 42.7839 81.8905 43.8457 83.1308 45.1884C84.3712 46.5311 85.3521 48.1277 86.0163 49.8852C86.6805 51.6426 87.0147 53.5256 86.9995 55.4244C86.9843 57.3232 86.6198 59.1996 85.9275 60.9443C85.2352 62.689 84.2288 64.2669 82.9671 65.5861L60.4174 90L37.8677 65.5861C35.3912 62.9044 34 59.2678 34 55.4759C34 51.684 35.3912 48.0473 37.8677 45.3657Z" fill="#E4E4E4"/>
</g>
<g id="Vector_3">
<path fill-rule="evenodd" clip-rule="evenodd" d="M42.138 49.4747C44.1478 47.341 46.8734 46.1423 49.7154 46.1423C52.5573 46.1423 55.2829 47.341 57.2927 49.4747L60.433 52.8067L63.5733 49.4747C64.5619 48.3876 65.7446 47.5206 67.0522 46.924C68.3598 46.3275 69.7661 46.0136 71.1892 46.0004C72.6123 45.9873 74.0236 46.2753 75.3408 46.8476C76.6579 47.4198 77.8546 48.265 78.8609 49.3336C79.8672 50.4023 80.663 51.6731 81.2019 53.0719C81.7408 54.4706 82.012 55.9694 81.9996 57.4807C81.9872 58.9919 81.6916 60.4854 81.1299 61.874C80.5682 63.2627 79.7517 64.5186 78.728 65.5685L60.433 85L42.138 65.5685C40.1287 63.4341 39 60.5396 39 57.5216C39 54.5036 40.1287 51.6091 42.138 49.4747Z" fill="#E4E4E4"/>
<path fill-rule="evenodd" clip-rule="evenodd" d="M42.138 49.4747C44.1478 47.341 46.8734 46.1423 49.7154 46.1423C52.5573 46.1423 55.2829 47.341 57.2927 49.4747L60.433 52.8067L63.5733 49.4747C64.5619 48.3876 65.7446 47.5206 67.0522 46.924C68.3598 46.3275 69.7661 46.0136 71.1892 46.0004C72.6123 45.9873 74.0236 46.2753 75.3408 46.8476C76.6579 47.4198 77.8546 48.265 78.8609 49.3336C79.8672 50.4023 80.663 51.6731 81.2019 53.0719C81.7408 54.4706 82.012 55.9694 81.9996 57.4807C81.9872 58.9919 81.6916 60.4854 81.1299 61.874C80.5682 63.2627 79.7517 64.5186 78.728 65.5685L60.433 85L42.138 65.5685C40.1287 63.4341 39 60.5396 39 57.5216C39 54.5036 40.1287 51.6091 42.138 49.4747Z" fill="#F7F7F7"/>
</g>
<g id="Vector_4">
<path fill-rule="evenodd" clip-rule="evenodd" d="M45.5542 52.762C47.1901 51.0659 49.4086 50.1131 51.7218 50.1131C54.035 50.1131 56.2535 51.0659 57.8894 52.762L60.4455 55.4105L63.0015 52.762C63.8062 51.8979 64.7688 51.2086 65.8332 50.7345C66.8975 50.2604 68.0422 50.0108 69.2005 50.0003C70.3589 49.9899 71.5076 50.2188 72.5797 50.6737C73.6518 51.1286 74.6258 51.8004 75.4449 52.6498C76.264 53.4993 76.9117 54.5094 77.3504 55.6212C77.789 56.7331 78.0097 57.9244 77.9997 59.1256C77.9896 60.3269 77.749 61.5141 77.2918 62.6178C76.8346 63.7216 76.17 64.7199 75.3368 65.5545L60.4455 81L45.5542 65.5545C43.9187 63.8579 43 61.5572 43 59.1582C43 56.7593 43.9187 54.4585 45.5542 52.762Z" fill="#E4E4E4"/>
<path fill-rule="evenodd" clip-rule="evenodd" d="M45.5542 52.762C47.1901 51.0659 49.4086 50.1131 51.7218 50.1131C54.035 50.1131 56.2535 51.0659 57.8894 52.762L60.4455 55.4105L63.0015 52.762C63.8062 51.8979 64.7688 51.2086 65.8332 50.7345C66.8975 50.2604 68.0422 50.0108 69.2005 50.0003C70.3589 49.9899 71.5076 50.2188 72.5797 50.6737C73.6518 51.1286 74.6258 51.8004 75.4449 52.6498C76.264 53.4993 76.9117 54.5094 77.3504 55.6212C77.789 56.7331 78.0097 57.9244 77.9997 59.1256C77.9896 60.3269 77.749 61.5141 77.2918 62.6178C76.8346 63.7216 76.17 64.7199 75.3368 65.5545L60.4455 81L45.5542 65.5545C43.9187 63.8579 43 61.5572 43 59.1582C43 56.7593 43.9187 54.4585 45.5542 52.762Z" fill="#FDFDFD"/>
</g>
<g id="Vector_5">
<path fill-rule="evenodd" clip-rule="evenodd" d="M48.9704 56.0492C50.2324 54.7908 51.9438 54.0839 53.7282 54.0839C55.5127 54.0839 57.2241 54.7908 58.4861 56.0492L60.4579 58.0142L62.4297 56.0492C63.0505 55.4081 63.7931 54.8967 64.6142 54.545C65.4352 54.1932 66.3183 54.008 67.2118 54.0003C68.1054 53.9925 68.9916 54.1623 69.8186 54.4998C70.6457 54.8373 71.3971 55.3358 72.0289 55.966C72.6608 56.5962 73.1605 57.3457 73.4989 58.1706C73.8372 58.9955 74.0075 59.8794 73.9997 60.7706C73.992 61.6619 73.8063 62.5427 73.4536 63.3616C73.1009 64.1805 72.5883 64.9212 71.9455 65.5404L60.4579 77L48.9704 65.5404C47.7087 64.2817 47 62.5747 47 60.7948C47 59.0149 47.7087 57.3079 48.9704 56.0492Z" fill="#E4E4E4"/>
<path fill-rule="evenodd" clip-rule="evenodd" d="M48.9704 56.0492C50.2324 54.7908 51.9438 54.0839 53.7282 54.0839C55.5127 54.0839 57.2241 54.7908 58.4861 56.0492L60.4579 58.0142L62.4297 56.0492C63.0505 55.4081 63.7931 54.8967 64.6142 54.545C65.4352 54.1932 66.3183 54.008 67.2118 54.0003C68.1054 53.9925 68.9916 54.1623 69.8186 54.4998C70.6457 54.8373 71.3971 55.3358 72.0289 55.966C72.6608 56.5962 73.1605 57.3457 73.4989 58.1706C73.8372 58.9955 74.0075 59.8794 73.9997 60.7706C73.992 61.6619 73.8063 62.5427 73.4536 63.3616C73.1009 64.1805 72.5883 64.9212 71.9455 65.5404L60.4579 77L48.9704 65.5404C47.7087 64.2817 47 62.5747 47 60.7948C47 59.0149 47.7087 57.3079 48.9704 56.0492Z" fill="white"/>
</g>
</g>
</svg>
