<svg width="25" height="25" viewBox="0 0 25 25" fill="none" xmlns="http://www.w3.org/2000/svg">
<g id="Frame 2">
<rect width="25" height="25" rx="12.5" fill="#313743" fill-opacity="0.07"/>
<g id="Group 124803">
<path id="Vector" d="M13.4894 6C13.2743 6 13.0679 6.08547 12.9158 6.23762C12.7636 6.38976 12.6782 6.59611 12.6782 6.81128C12.6782 7.02644 12.7636 7.23279 12.9158 7.38493C13.0679 7.53708 13.2743 7.62255 13.4894 7.62255H15.5874L10.482 12.7279C10.4046 12.8027 10.3428 12.8923 10.3002 12.9912C10.2577 13.0902 10.2353 13.1967 10.2344 13.3044C10.2335 13.4121 10.254 13.5189 10.2948 13.6186C10.3356 13.7183 10.3958 13.8089 10.472 13.8851C10.5482 13.9613 10.6387 14.0215 10.7384 14.0623C10.8382 14.1031 10.945 14.1236 11.0527 14.1227C11.1604 14.1218 11.2669 14.0994 11.3659 14.0569C11.4648 14.0143 11.5544 13.9525 11.6292 13.875L16.7345 8.76969V10.8677C16.7345 11.0828 16.82 11.2892 16.9722 11.4413C17.1243 11.5935 17.3307 11.6789 17.5458 11.6789C17.761 11.6789 17.9673 11.5935 18.1195 11.4413C18.2716 11.2892 18.3571 11.0828 18.3571 10.8677V6.81128C18.3571 6.59611 18.2716 6.38976 18.1195 6.23762C17.9673 6.08547 17.761 6 17.5458 6H13.4894Z" fill="#313743" fill-opacity="0.4"/>
<path id="Vector_2" d="M8.62255 7.62207C8.19222 7.62207 7.77952 7.79302 7.47523 8.0973C7.17095 8.40159 7 8.81429 7 9.24462V15.7348C7 16.1651 7.17095 16.5779 7.47523 16.8821C7.77952 17.1864 8.19222 17.3574 8.62255 17.3574H15.1128C15.5431 17.3574 15.9558 17.1864 16.2601 16.8821C16.5644 16.5779 16.7353 16.1651 16.7353 15.7348V13.301C16.7353 13.0858 16.6498 12.8795 16.4977 12.7273C16.3455 12.5752 16.1392 12.4897 15.924 12.4897C15.7089 12.4897 15.5025 12.5752 15.3504 12.7273C15.1982 12.8795 15.1128 13.0858 15.1128 13.301V15.7348H8.62255V9.24462H11.0564C11.2715 9.24462 11.4779 9.15915 11.63 9.007C11.7822 8.85486 11.8677 8.64851 11.8677 8.43335C11.8677 8.21818 11.7822 8.01183 11.63 7.85969C11.4779 7.70754 11.2715 7.62207 11.0564 7.62207H8.62255Z" fill="#313743"/>
</g>
</g>
</svg>
