<svg width="11" height="13" viewBox="0 0 11 13" fill="none" xmlns="http://www.w3.org/2000/svg">
<path id="Vector" fill-rule="evenodd" clip-rule="evenodd" d="M1.61101 1.57716C2.64245 0.567323 4.04138 0 5.50006 0C6.95873 0 8.35767 0.567323 9.3891 1.57716C10.4205 2.58701 11 3.95665 11 5.38478C11 6.81291 10.4205 8.18255 9.3891 9.19239L5.50006 13L1.61101 9.19239C1.10026 8.69238 0.695109 8.09878 0.41869 7.44546C0.142271 6.79215 0 6.09193 0 5.38478C0 4.67763 0.142271 3.9774 0.41869 3.32409C0.695109 2.67078 1.10026 2.07717 1.61101 1.57716ZM5.50006 6.92321C5.9168 6.92321 6.31648 6.76112 6.61116 6.47261C6.90584 6.1841 7.07139 5.79279 7.07139 5.38478C7.07139 4.97676 6.90584 4.58545 6.61116 4.29694C6.31648 4.00843 5.9168 3.84635 5.50006 3.84635C5.08331 3.84635 4.68364 4.00843 4.38896 4.29694C4.09428 4.58545 3.92873 4.97676 3.92873 5.38478C3.92873 5.79279 4.09428 6.1841 4.38896 6.47261C4.68364 6.76112 5.08331 6.92321 5.50006 6.92321Z" fill="#A8ADB8"/>
</svg>
