<svg width="19" height="19" viewBox="0 0 19 19" fill="none" xmlns="http://www.w3.org/2000/svg">
<path fill-rule="evenodd" clip-rule="evenodd" d="M7 5.83333C7 5.61232 7.08278 5.40036 7.23013 5.24408C7.37748 5.0878 7.57733 5 7.78571 5H17.2143C17.4227 5 17.6225 5.0878 17.7699 5.24408C17.9172 5.40036 18 5.61232 18 5.83333C18 6.05435 17.9172 6.26631 17.7699 6.42259C17.6225 6.57887 17.4227 6.66667 17.2143 6.66667H7.78571C7.57733 6.66667 7.37748 6.57887 7.23013 6.42259C7.08278 6.26631 7 6.05435 7 5.83333ZM7 10C7 9.77899 7.08278 9.56702 7.23013 9.41074C7.37748 9.25446 7.57733 9.16667 7.78571 9.16667H17.2143C17.4227 9.16667 17.6225 9.25446 17.7699 9.41074C17.9172 9.56702 18 9.77899 18 10C18 10.221 17.9172 10.433 17.7699 10.5893C17.6225 10.7455 17.4227 10.8333 17.2143 10.8333H7.78571C7.57733 10.8333 7.37748 10.7455 7.23013 10.5893C7.08278 10.433 7 10.221 7 10ZM11.7143 14.1667C11.7143 13.9457 11.7971 13.7337 11.9444 13.5774C12.0918 13.4211 12.2916 13.3333 12.5 13.3333H17.2143C17.4227 13.3333 17.6225 13.4211 17.7699 13.5774C17.9172 13.7337 18 13.9457 18 14.1667C18 14.3877 17.9172 14.5996 17.7699 14.7559C17.6225 14.9122 17.4227 15 17.2143 15H12.5C12.2916 15 12.0918 14.9122 11.9444 14.7559C11.7971 14.5996 11.7143 14.3877 11.7143 14.1667Z" fill="#313743" fill-opacity="0.2"/>
</svg>
