<svg width="23" height="22" viewBox="0 0 23 22" fill="none" xmlns="http://www.w3.org/2000/svg">
<path d="M0.169922 3.55134C0.169922 2.82081 0.460124 2.1202 0.976686 1.60364C1.49325 1.08708 2.19386 0.796875 2.92439 0.796875H12.565C13.2955 0.796875 13.9962 1.08708 14.5127 1.60364C15.0293 2.1202 15.3195 2.82081 15.3195 3.55134V9.06027C15.3195 9.7908 15.0293 10.4914 14.5127 11.008C13.9962 11.5245 13.2955 11.8147 12.565 11.8147H9.81055L5.67885 15.9464V11.8147H2.92439C2.19386 11.8147 1.49325 11.5245 0.976686 11.008C0.460124 10.4914 0.169922 9.7908 0.169922 9.06027V3.55134Z" fill="url(#paint0_linear_920_27293)"/>
<path d="M18.0748 6.30566V9.06013C18.0748 10.5212 17.4944 11.9224 16.4612 12.9555C15.4281 13.9887 14.0269 14.5691 12.5658 14.5691H10.9517L8.51953 17.0026C8.90516 17.2078 9.34449 17.3235 9.81138 17.3235H12.5658L16.6975 21.4552V17.3235H19.452C20.1825 17.3235 20.8831 17.0333 21.3997 16.5168C21.9163 16.0002 22.2065 15.2996 22.2065 14.5691V9.06013C22.2065 8.3296 21.9163 7.62899 21.3997 7.11243C20.8831 6.59587 20.1825 6.30566 19.452 6.30566H18.0748Z" fill="url(#paint1_linear_920_27293)"/>
<defs>
<linearGradient id="paint0_linear_920_27293" x1="7.7447" y1="0.796875" x2="7.7447" y2="15.9464" gradientUnits="userSpaceOnUse">
<stop stop-color="#FB6B41"/>
<stop offset="1" stop-color="#FFB074"/>
</linearGradient>
<linearGradient id="paint1_linear_920_27293" x1="15.363" y1="6.30566" x2="15.363" y2="21.4552" gradientUnits="userSpaceOnUse">
<stop stop-color="#FB6B41"/>
<stop offset="1" stop-color="#FFB074"/>
</linearGradient>
</defs>
</svg>
