<svg width="134" height="30" viewBox="0 0 134 30" fill="none" xmlns="http://www.w3.org/2000/svg">
<path d="M7.42054 7.51013C11.5192 3.41148 18.1644 3.41148 22.2631 7.51013C26.3617 11.6088 26.3617 18.254 22.2631 22.3526L16.0673 28.5484C15.3905 29.2252 14.2931 29.2252 13.6163 28.5484L7.42054 22.3526C3.32189 18.254 3.32189 11.6088 7.42054 7.51013Z" fill="#4230AF"/>
<path d="M7.42054 7.51013C11.5192 3.41148 18.1644 3.41148 22.2631 7.51013C26.3617 11.6088 26.3617 18.254 22.2631 22.3526L16.0673 28.5484C15.3905 29.2252 14.2931 29.2252 13.6163 28.5484L7.42054 22.3526C3.32189 18.254 3.32189 11.6088 7.42054 7.51013Z" fill="url(#paint0_radial_841_4353)"/>
<path fill-rule="evenodd" clip-rule="evenodd" d="M20.3278 5.60381V14.9314H9.72266V5.63125C13.0047 3.90034 17.0379 3.8912 20.3278 5.60381Z" fill="#FB81AD"/>
<path fill-rule="evenodd" clip-rule="evenodd" d="M9.72266 15.276L12.6305 12.2803L15.0253 14.7475L17.42 12.2803L20.3278 15.276L15.8622 19.8767C15.3996 20.3533 14.6509 20.3533 14.1883 19.8767L9.72266 15.276Z" fill="white"/>
<path fill-rule="evenodd" clip-rule="evenodd" d="M38.4389 22.1784H40.3798V16.5583C40.3798 15.4732 40.005 14.5422 39.2552 13.7655C38.4999 12.9944 37.5947 12.6089 36.5395 12.6089C35.8786 12.5975 35.2455 12.766 34.6402 13.1143V8.74512H32.6992V22.1784H34.6402V16.5583C34.6402 16.0157 34.8235 15.556 35.19 15.179C35.5621 14.7964 36.0119 14.605 36.5395 14.605C37.0671 14.605 37.517 14.7964 37.889 15.179C38.2556 15.556 38.4389 16.0157 38.4389 16.5583V22.1784ZM44.0835 15.436C44.6222 14.882 45.2748 14.605 46.0412 14.605C46.8076 14.605 47.4601 14.882 47.9988 15.436C48.5375 15.99 48.8068 16.6611 48.8068 17.4493C48.8068 18.2375 48.5375 18.9114 47.9988 19.4712C47.4601 20.0252 46.8076 20.3022 46.0412 20.3022C45.2748 20.3022 44.6222 20.0252 44.0835 19.4712C43.5393 18.9114 43.2671 18.2375 43.2671 17.4493C43.2671 16.6668 43.5393 15.9958 44.0835 15.436ZM42.709 20.8762C43.6309 21.8243 44.7416 22.2983 46.0412 22.2983C47.3351 22.2983 48.4431 21.8243 49.365 20.8762C50.2869 19.9281 50.7478 18.7858 50.7478 17.4493C50.7478 16.1186 50.2869 14.9791 49.365 14.031C48.4431 13.0829 47.3351 12.6089 46.0412 12.6089C44.7416 12.6089 43.6309 13.0829 42.709 14.031C41.7871 14.9791 41.3262 16.1186 41.3262 17.4493C41.3262 18.7858 41.7871 19.9281 42.709 20.8762ZM56.0176 14.605V12.6089H55.5261C54.8542 12.626 54.221 12.7774 53.6268 13.0629V12.7203H51.6858V22.1784H53.6268V16.5669C53.6268 16.0243 53.8129 15.5617 54.1849 15.179C54.557 14.7964 55.0041 14.605 55.5261 14.605H56.0176ZM58.83 15.4446C59.3742 14.8849 60.0268 14.605 60.7876 14.605C61.554 14.605 62.2093 14.8849 62.7536 15.4446C63.2923 15.9986 63.5616 16.6697 63.5616 17.4579C63.5616 18.2461 63.2923 18.9171 62.7536 19.4712C62.2093 20.0252 61.554 20.3022 60.7876 20.3022C60.0212 20.3022 59.3687 20.0252 58.83 19.4712C58.2913 18.9171 58.0219 18.2461 58.0219 17.4579C58.0219 16.6697 58.2913 15.9986 58.83 15.4446ZM57.4638 20.8762C58.3857 21.8243 59.4936 22.2983 60.7876 22.2983C62.0927 22.2983 63.0174 22.0184 63.5616 21.4587V22.1784H65.5026V12.7203H63.5616V13.4485C63.0174 12.8887 62.0927 12.6089 60.7876 12.6089C59.4936 12.6089 58.3857 13.0829 57.4638 14.031C56.5419 14.9791 56.0809 16.1214 56.0809 17.4579C56.0809 18.7886 56.5419 19.9281 57.4638 20.8762ZM68.998 12.7203H67.0571V22.1784H68.998V12.7203ZM67.1903 11.6065C67.4236 11.8464 67.7013 11.9664 68.0234 11.9664C68.351 11.9664 68.6315 11.8464 68.8647 11.6065C69.098 11.3667 69.2146 11.0811 69.2146 10.7498C69.2146 10.4129 69.098 10.1244 68.8647 9.88454C68.6315 9.64466 68.351 9.52473 68.0234 9.52473C67.7013 9.52473 67.4236 9.64466 67.1903 9.88454C66.9571 10.1244 66.8405 10.4129 66.8405 10.7498C66.8405 11.0811 66.9571 11.3667 67.1903 11.6065ZM74.8676 14.605V12.6089H74.3761C73.7041 12.626 73.071 12.7774 72.4768 13.0629V12.7203H70.5358V22.1784H72.4768V16.5669C72.4768 16.0243 72.6628 15.5617 73.0349 15.179C73.407 14.7964 73.8541 14.605 74.3761 14.605H74.8676ZM81.262 15.1448C81.6674 15.4703 81.9396 15.7787 82.0784 16.07H77.2218C77.3662 15.7844 77.6355 15.476 78.0298 15.1448C78.5074 14.7849 79.0461 14.605 79.6459 14.605C80.2402 14.605 80.7789 14.7849 81.262 15.1448ZM82.9698 14.031C82.0479 13.0829 80.9399 12.6089 79.6459 12.6089C78.3519 12.6089 77.244 13.0829 76.3221 14.031C75.3947 14.9791 74.9309 16.1186 74.9309 17.4493C74.9309 18.7858 75.3947 19.9281 76.3221 20.8762C77.244 21.8243 78.3519 22.2983 79.6459 22.2983C80.5567 22.2983 81.3925 22.047 82.1534 21.5444C82.8976 21.0646 83.5196 20.3107 84.0194 19.2827L82.2284 18.4859C81.9007 19.1427 81.523 19.6025 81.0954 19.8652C80.6456 20.1565 80.1624 20.3022 79.6459 20.3022C78.924 20.3022 78.2992 20.0509 77.7716 19.5483C77.2884 19.0285 77.0107 18.5345 76.9386 18.0661H84.3359L84.3526 17.4493C84.3526 16.1186 83.8916 14.9791 82.9698 14.031ZM86.6318 21.7329C87.2538 22.1041 87.948 22.2926 88.7144 22.2983H88.7227C89.5447 22.2983 90.2527 22.0727 90.847 21.6215C91.5356 21.1075 91.9133 20.3935 91.9799 19.4797C92.0354 18.7715 91.8355 18.1404 91.3801 17.5864C91.1302 17.3008 90.8303 17.0638 90.4804 16.8753C90.0195 16.6354 89.4891 16.4955 88.8893 16.4555C88.3284 16.4155 87.8869 16.3299 87.5648 16.1985C87.2371 16.0557 87.0733 15.873 87.0733 15.6502C87.0733 15.2333 87.2954 14.9363 87.7397 14.7592C87.9008 14.6964 88.0646 14.6536 88.2312 14.6307C88.3034 14.6193 88.3867 14.6107 88.4811 14.605C88.981 14.605 89.4003 14.7849 89.739 15.1448C89.8445 15.259 89.9362 15.3875 90.0139 15.5303L90.2638 16.01L92.0715 15.3247C91.8438 14.7193 91.5356 14.1995 91.1469 13.7655C90.436 12.9944 89.553 12.6089 88.4978 12.6089C87.6092 12.6089 86.8484 12.8602 86.2153 13.3628C85.4933 13.9396 85.1323 14.7021 85.1323 15.6502C85.1323 15.9415 85.1768 16.2156 85.2656 16.4727C85.3711 16.8039 85.5516 17.1009 85.8071 17.3636C86.418 17.9976 87.401 18.3603 88.756 18.4517C89.3003 18.4859 89.6807 18.6373 89.8973 18.9057C90.0084 19.0257 90.0584 19.1656 90.0472 19.3255C90.0195 19.7025 89.8418 19.9738 89.5141 20.1394C89.3864 20.1965 89.2392 20.2393 89.0726 20.2679C89.0115 20.2793 88.9504 20.2879 88.8893 20.2936C88.8282 20.2993 88.7727 20.3022 88.7227 20.3022C88.3173 20.2965 87.9619 20.2079 87.6564 20.0366C87.3066 19.8367 87.0483 19.4426 86.8817 18.8543L85.024 19.394C85.335 20.4906 85.871 21.2702 86.6318 21.7329ZM95.517 21.116C95.517 20.7277 95.3837 20.3964 95.1171 20.1223C94.8505 19.8481 94.5312 19.711 94.1591 19.711C93.787 19.711 93.4677 19.8481 93.2011 20.1223C92.9346 20.3964 92.8013 20.7277 92.8013 21.116C92.8013 21.4987 92.9346 21.8271 93.2011 22.1013C93.4622 22.3811 93.7815 22.521 94.1591 22.521C94.5368 22.521 94.8561 22.3811 95.1171 22.1013C95.3837 21.8271 95.517 21.4987 95.517 21.116ZM98.7375 21.7329C99.3595 22.1041 100.054 22.2926 100.82 22.2983H100.828C101.65 22.2983 102.358 22.0727 102.953 21.6215C103.641 21.1075 104.019 20.3935 104.086 19.4797C104.141 18.7715 103.941 18.1404 103.486 17.5864C103.236 17.3008 102.936 17.0638 102.586 16.8753C102.125 16.6354 101.595 16.4955 100.995 16.4555C100.434 16.4155 99.9926 16.3299 99.6705 16.1985C99.3428 16.0557 99.179 15.873 99.179 15.6502C99.179 15.2333 99.4012 14.9363 99.8455 14.7592C100.007 14.6964 100.17 14.6536 100.337 14.6307C100.409 14.6193 100.492 14.6107 100.587 14.605C101.087 14.605 101.506 14.7849 101.845 15.1448C101.95 15.259 102.042 15.3875 102.12 15.5303L102.37 16.01L104.177 15.3247C103.95 14.7193 103.641 14.1995 103.253 13.7655C102.542 12.9944 101.659 12.6089 100.604 12.6089C99.7149 12.6089 98.9541 12.8602 98.321 13.3628C97.599 13.9396 97.238 14.7021 97.238 15.6502C97.238 15.9415 97.2825 16.2156 97.3713 16.4727C97.4768 16.8039 97.6573 17.1009 97.9128 17.3636C98.5237 17.9976 99.5067 18.3603 100.862 18.4517C101.406 18.4859 101.786 18.6373 102.003 18.9057C102.114 19.0257 102.164 19.1656 102.153 19.3255C102.125 19.7025 101.947 19.9738 101.62 20.1394C101.492 20.1965 101.345 20.2393 101.178 20.2679C101.117 20.2793 101.056 20.2879 100.995 20.2936C100.934 20.2993 100.878 20.3022 100.828 20.3022C100.423 20.2965 100.068 20.2079 99.7621 20.0366C99.4123 19.8367 99.154 19.4426 98.9874 18.8543L97.1297 19.394C97.4407 20.4906 97.9767 21.2702 98.7375 21.7329ZM110.78 22.1784H112.721V16.5583C112.721 15.4732 112.346 14.5422 111.596 13.7655C110.841 12.9944 109.936 12.6089 108.881 12.6089C108.22 12.5975 107.587 12.766 106.981 13.1143V8.74512H105.04V22.1784H106.981V16.5583C106.981 16.0157 107.165 15.556 107.531 15.179C107.903 14.7964 108.353 14.605 108.881 14.605C109.408 14.605 109.858 14.7964 110.23 15.179C110.597 15.556 110.78 16.0157 110.78 16.5583V22.1784ZM116.425 15.436C116.963 14.882 117.616 14.605 118.382 14.605C119.149 14.605 119.801 14.882 120.34 15.436C120.879 15.99 121.148 16.6611 121.148 17.4493C121.148 18.2375 120.879 18.9114 120.34 19.4712C119.801 20.0252 119.149 20.3022 118.382 20.3022C117.616 20.3022 116.963 20.0252 116.425 19.4712C115.88 18.9114 115.608 18.2375 115.608 17.4493C115.608 16.6668 115.88 15.9958 116.425 15.436ZM115.05 20.8762C115.972 21.8243 117.083 22.2983 118.382 22.2983C119.676 22.2983 120.784 21.8243 121.706 20.8762C122.628 19.9281 123.089 18.7858 123.089 17.4493C123.089 16.1186 122.628 14.9791 121.706 14.031C120.784 13.0829 119.676 12.6089 118.382 12.6089C117.083 12.6089 115.972 13.0829 115.05 14.031C114.128 14.9791 113.667 16.1186 113.667 17.4493C113.667 18.7858 114.128 19.9281 115.05 20.8762ZM130.7 19.4712C130.155 20.0252 129.5 20.3022 128.734 20.3022C127.967 20.3022 127.315 20.0252 126.776 19.4712C126.237 18.9171 125.968 18.2461 125.968 17.4579C125.968 16.6697 126.237 15.9958 126.776 15.436C127.315 14.882 127.967 14.605 128.734 14.605C129.5 14.605 130.155 14.882 130.7 15.436C131.238 15.9958 131.508 16.6697 131.508 17.4579C131.508 18.2461 131.238 18.9171 130.7 19.4712ZM132.066 14.031C131.144 13.0829 130.033 12.6089 128.734 12.6089C127.678 12.6089 126.756 12.9116 125.968 13.517V12.7203H124.027V25.5367H125.968V21.3816C126.74 21.9813 127.662 22.2869 128.734 22.2983C130.033 22.2983 131.144 21.8243 132.066 20.8762C132.988 19.9281 133.449 18.7886 133.449 17.4579C133.449 16.1214 132.988 14.9791 132.066 14.031Z" fill="#313743"/>
<defs>
<radialGradient id="paint0_radial_841_4353" cx="0" cy="0" r="1" gradientUnits="userSpaceOnUse" gradientTransform="translate(8.65948 21.2095) rotate(-45) scale(19.3061)">
<stop stop-color="#B53A7C"/>
<stop offset="1" stop-color="#F95586"/>
</radialGradient>
</defs>
</svg>
