<svg width="131" height="30" viewBox="0 0 131 30" fill="none" xmlns="http://www.w3.org/2000/svg">
<path d="M7.86194 7.51013C11.9606 3.41148 18.6058 3.41148 22.7045 7.51013C26.8031 11.6088 26.8031 18.254 22.7045 22.3526L16.5087 28.5484C15.8319 29.2252 14.7345 29.2252 14.0577 28.5484L7.86195 22.3527C3.7633 18.254 3.7633 11.6088 7.86194 7.51013Z" fill="#4230AF"/>
<path d="M7.86194 7.51013C11.9606 3.41148 18.6058 3.41148 22.7045 7.51013C26.8031 11.6088 26.8031 18.254 22.7045 22.3526L16.5087 28.5484C15.8319 29.2252 14.7345 29.2252 14.0577 28.5484L7.86195 22.3527C3.7633 18.254 3.7633 11.6088 7.86194 7.51013Z" fill="url(#paint0_radial_841_4360)"/>
<path fill-rule="evenodd" clip-rule="evenodd" d="M20.3674 5.74657V15.3111H10.1504V5.77479C13.3123 3.99989 17.1979 3.99048 20.3674 5.74657Z" fill="#FFF493"/>
<path fill-rule="evenodd" clip-rule="evenodd" d="M10.1504 15.3238L12.9518 12.5293L15.2589 14.8307L17.566 12.5293L20.3674 15.3238L15.986 19.6944C15.5842 20.0953 14.9337 20.0953 14.5318 19.6944L10.1504 15.3238Z" fill="white"/>
<path fill-rule="evenodd" clip-rule="evenodd" d="M35.0441 14.9708C35.5768 14.4381 36.2154 14.1718 36.9601 14.1718C37.7102 14.1718 38.3516 14.4381 38.8843 14.9708C39.4115 15.498 39.6751 16.1367 39.6751 16.8868C39.6751 17.6369 39.4115 18.2756 38.8843 18.8028C38.3516 19.3301 37.7102 19.5937 36.9601 19.5937C36.21 19.5937 35.5713 19.3301 35.0441 18.8028C34.5168 18.2756 34.2532 17.6369 34.2532 16.8868C34.2532 16.1367 34.5168 15.498 35.0441 14.9708ZM33.707 20.14C34.6092 21.0422 35.6936 21.4934 36.9601 21.4934C38.2374 21.4934 39.1424 21.2271 39.6751 20.6944V21.3792H41.5748V12.3781H39.6751V13.0711C39.1424 12.5384 38.2374 12.2721 36.9601 12.2721C35.6936 12.2721 34.6092 12.7232 33.707 13.6255C32.8047 14.5278 32.3535 15.6149 32.3535 16.8868C32.3535 18.1533 32.8047 19.2377 33.707 20.14ZM48.722 21.3792H50.6217V16.0389C50.6217 15.0007 50.2521 14.1147 49.5128 13.3809C48.779 12.6417 47.8958 12.2721 46.863 12.2721C46.2053 12.2612 45.583 12.4188 44.9959 12.745V12.3781H43.0962V21.3792H44.9959V16.0389C44.9959 15.5225 45.178 15.0822 45.5422 14.7181C45.9064 14.3539 46.3466 14.1718 46.863 14.1718C47.374 14.1718 47.8115 14.3539 48.1757 14.7181C48.5399 15.0822 48.722 15.5225 48.722 16.0389V21.3792ZM57.7688 21.3792H59.6685V16.0389C59.6685 15.0007 59.2989 14.1147 58.5597 13.3809C57.8259 12.6417 56.9426 12.2721 55.9099 12.2721C55.2522 12.2612 54.6298 12.4188 54.0428 12.745V12.3781H52.1431V21.3792H54.0428V16.0389C54.0428 15.5225 54.2249 15.0822 54.589 14.7181C54.9532 14.3539 55.3935 14.1718 55.9099 14.1718C56.4208 14.1718 56.8584 14.3539 57.2225 14.7181C57.5867 15.0822 57.7688 15.5225 57.7688 16.0389V21.3792ZM62.9265 12.3781H61.0268V17.7266C61.0268 18.7593 61.3964 19.6453 62.1357 20.3846C62.8749 21.1238 63.7609 21.4934 64.7936 21.4934C65.5111 21.488 66.1335 21.3276 66.6607 21.0124V21.3792H68.5604V12.3781H66.6607V17.7266C66.6607 18.243 66.4786 18.6832 66.1145 19.0474C65.7503 19.4116 65.31 19.5937 64.7936 19.5937C64.2773 19.5937 63.837 19.4116 63.4728 19.0474C63.1086 18.6832 62.9265 18.243 62.9265 17.7266V12.3781ZM72.1609 14.9708C72.6936 14.4381 73.3322 14.1718 74.0769 14.1718C74.827 14.1718 75.4684 14.4381 76.0011 14.9708C76.5283 15.498 76.7919 16.1367 76.7919 16.8868C76.7919 17.6369 76.5283 18.2756 76.0011 18.8028C75.4684 19.3301 74.827 19.5937 74.0769 19.5937C73.3268 19.5937 72.6881 19.3301 72.1609 18.8028C71.6337 18.2756 71.37 17.6369 71.37 16.8868C71.37 16.1367 71.6337 15.498 72.1609 14.9708ZM70.8238 20.14C71.7261 21.0422 72.8104 21.4934 74.0769 21.4934C75.3542 21.4934 76.2593 21.2271 76.7919 20.6944V21.3792H78.6916V12.3781H76.7919V13.0711C76.2593 12.5384 75.3542 12.2721 74.0769 12.2721C72.8104 12.2721 71.7261 12.7232 70.8238 13.6255C69.9215 14.5278 69.4703 15.6149 69.4703 16.8868C69.4703 18.1533 69.9215 19.2377 70.8238 20.14ZM82.1127 12.3781H80.213V21.3792H82.1127V12.3781ZM80.3435 11.3182C80.5718 11.5464 80.8436 11.6606 81.1588 11.6606C81.4795 11.6606 81.754 11.5464 81.9823 11.3182C82.2106 11.0899 82.3247 10.8181 82.3247 10.5028C82.3247 10.1821 82.2106 9.90764 81.9823 9.67935C81.754 9.45106 81.4795 9.33691 81.1588 9.33691C80.8436 9.33691 80.5718 9.45106 80.3435 9.67935C80.1152 9.90764 80.001 10.1821 80.001 10.5028C80.001 10.8181 80.1152 11.0899 80.3435 11.3182ZM87.8575 14.1718V12.2721H87.3765C86.7188 12.2884 86.0991 12.4324 85.5175 12.7042V12.3781H83.6178V21.3792H85.5175V16.0389C85.5175 15.5225 85.6996 15.0822 86.0638 14.7181C86.428 14.3539 86.8655 14.1718 87.3765 14.1718H87.8575ZM94.1159 14.6854C94.5127 14.9953 94.7791 15.2888 94.915 15.566H90.1616C90.3029 15.2942 90.5666 15.0007 90.9525 14.6854C91.4199 14.343 91.9472 14.1718 92.5342 14.1718C93.1158 14.1718 93.6431 14.343 94.1159 14.6854ZM95.7874 13.6255C94.8851 12.7232 93.8007 12.2721 92.5342 12.2721C91.2677 12.2721 90.1834 12.7232 89.2811 13.6255C88.3733 14.5278 87.9195 15.6122 87.9195 16.8787C87.9195 18.1506 88.3733 19.2377 89.2811 20.14C90.1834 21.0422 91.2677 21.4934 92.5342 21.4934C93.4256 21.4934 94.2437 21.2542 94.9883 20.7759C95.7167 20.3193 96.3255 19.6018 96.8147 18.6235L95.0617 17.8652C94.741 18.4903 94.3714 18.9278 93.9529 19.1779C93.5126 19.4551 93.0397 19.5937 92.5342 19.5937C91.8276 19.5937 91.2161 19.3545 90.6997 18.8762C90.2268 18.3816 89.9551 17.9114 89.8844 17.4657H97.1245L97.1408 16.8787C97.1408 15.6122 96.6896 14.5278 95.7874 13.6255ZM100.798 20.3682C100.798 19.9986 100.668 19.6834 100.407 19.4225C100.146 19.1616 99.8335 19.0311 99.4694 19.0311C99.1052 19.0311 98.7926 19.1616 98.5317 19.4225C98.2708 19.6834 98.1404 19.9986 98.1404 20.3682C98.1404 20.7324 98.2708 21.045 98.5317 21.3059C98.7872 21.5722 99.0997 21.7054 99.4694 21.7054C99.839 21.7054 100.152 21.5722 100.407 21.3059C100.668 21.045 100.798 20.7324 100.798 20.3682ZM104.945 14.9626C105.472 14.4354 106.111 14.1718 106.861 14.1718C107.611 14.1718 108.25 14.4354 108.777 14.9626C109.304 15.4899 109.568 16.1286 109.568 16.8787C109.568 17.6288 109.304 18.2701 108.777 18.8028C108.25 19.3301 107.611 19.5937 106.861 19.5937C106.111 19.5937 105.472 19.3301 104.945 18.8028C104.412 18.2701 104.146 17.6288 104.146 16.8787C104.146 16.134 104.412 15.4953 104.945 14.9626ZM103.6 20.14C104.502 21.0422 105.589 21.4934 106.861 21.4934C108.128 21.4934 109.212 21.0422 110.114 20.14C111.017 19.2377 111.468 18.1506 111.468 16.8787C111.468 15.6122 111.017 14.5278 110.114 13.6255C109.212 12.7232 108.128 12.2721 106.861 12.2721C105.589 12.2721 104.502 12.7232 103.6 13.6255C102.697 14.5278 102.246 15.6122 102.246 16.8787C102.246 18.1506 102.697 19.2377 103.6 20.14ZM118.011 21.3792H119.911V16.0389C119.911 15.0007 119.542 14.1147 118.802 13.3809C118.069 12.6417 117.185 12.2721 116.153 12.2721C115.495 12.2612 114.872 12.4188 114.285 12.745V12.3781H112.386V21.3792H114.285V16.0389C114.285 15.5225 114.468 15.0822 114.832 14.7181C115.196 14.3539 115.636 14.1718 116.153 14.1718C116.663 14.1718 117.101 14.3539 117.465 14.7181C117.829 15.0822 118.011 15.5225 118.011 16.0389V21.3792ZM127.026 14.6854C127.422 14.9953 127.689 15.2888 127.825 15.566H123.071C123.213 15.2942 123.476 15.0007 123.862 14.6854C124.33 14.343 124.857 14.1718 125.444 14.1718C126.026 14.1718 126.553 14.343 127.026 14.6854ZM128.697 13.6255C127.795 12.7232 126.71 12.2721 125.444 12.2721C124.177 12.2721 123.093 12.7232 122.191 13.6255C121.283 14.5278 120.829 15.6122 120.829 16.8787C120.829 18.1506 121.283 19.2377 122.191 20.14C123.093 21.0422 124.177 21.4934 125.444 21.4934C126.335 21.4934 127.153 21.2542 127.898 20.7759C128.626 20.3193 129.235 19.6018 129.724 18.6235L127.971 17.8652C127.651 18.4903 127.281 18.9278 126.863 19.1779C126.422 19.4551 125.949 19.5937 125.444 19.5937C124.737 19.5937 124.126 19.3545 123.609 18.8762C123.137 18.3816 122.865 17.9114 122.794 17.4657H130.034L130.051 16.8787C130.051 15.6122 129.599 14.5278 128.697 13.6255Z" fill="#313743"/>
<defs>
<radialGradient id="paint0_radial_841_4360" cx="0" cy="0" r="1" gradientUnits="userSpaceOnUse" gradientTransform="translate(9.10089 21.2095) rotate(-45) scale(19.3061)">
<stop stop-color="#EBE208"/>
<stop offset="1" stop-color="#F7F752"/>
</radialGradient>
</defs>
</svg>
