<svg width="101" height="32" viewBox="0 0 101 32" fill="none" xmlns="http://www.w3.org/2000/svg">
<path d="M11.5317 32C8.62431 32 6.1782 31.3405 4.19335 30.0215C2.2085 28.6738 0.810713 26.8531 0 24.5591L4.94815 21.5914C6.09433 24.6595 8.34476 26.1936 11.6994 26.1936C13.3209 26.1936 14.509 25.8925 15.2638 25.2903C16.0186 24.6882 16.396 23.9283 16.396 23.0108C16.396 21.9498 15.9347 21.1326 15.0122 20.5591C14.0896 19.957 12.4403 19.3118 10.064 18.6237C8.75011 18.2222 7.63189 17.8208 6.70935 17.4194C5.81477 17.0179 4.90621 16.4875 3.98368 15.828C3.0891 15.1398 2.40418 14.2796 1.92894 13.2473C1.45369 12.2151 1.21607 11.0108 1.21607 9.63441C1.21607 6.9104 2.15258 4.74552 4.02561 3.13979C5.92659 1.50538 8.20498 0.688171 10.8608 0.688171C13.237 0.688171 15.3197 1.29032 17.1088 2.49462C18.926 3.67025 20.3377 5.319 21.3441 7.44086L16.4798 10.3226C15.3057 7.74194 13.4327 6.45161 10.8608 6.45161C9.65867 6.45161 8.70818 6.73835 8.00929 7.31183C7.33835 7.85663 7.00289 8.57348 7.00289 9.46236C7.00289 10.4086 7.38029 11.1828 8.13509 11.7849C8.91785 12.3584 10.3995 12.9892 12.58 13.6774C13.4746 13.9642 14.1456 14.1936 14.5928 14.3656C15.0681 14.509 15.6971 14.7527 16.4798 15.0968C17.2906 15.4122 17.9056 15.7133 18.3249 16C18.7722 16.2867 19.2754 16.6738 19.8345 17.1613C20.3936 17.6487 20.813 18.1505 21.0925 18.6667C21.4 19.1828 21.6516 19.8136 21.8473 20.5591C22.071 21.276 22.1828 22.0645 22.1828 22.9247C22.1828 25.7061 21.1904 27.914 19.2055 29.5484C17.2486 31.1828 14.6907 32 11.5317 32Z" fill="#313743" fill-opacity="0.7"/>
<path d="M36.2456 15.2258H31.5071V24.172C31.5071 24.9176 31.6888 25.4624 32.0522 25.8065C32.4157 26.1505 32.9468 26.3513 33.6457 26.4086C34.3446 26.4373 35.2112 26.4229 36.2456 26.3656V31.3979C32.5275 31.828 29.8996 31.4695 28.3621 30.3226C26.8525 29.1756 26.0977 27.1254 26.0977 24.172V15.2258H22.4495V9.89248H26.0977V5.54839L31.5071 3.87097V9.89248H36.2456V15.2258Z" fill="#313743" fill-opacity="0.7"/>
<path d="M56.4293 28.7312C54.2767 30.9104 51.6489 32 48.5458 32C45.4428 32 42.8149 30.9104 40.6623 28.7312C38.5377 26.5233 37.4754 23.828 37.4754 20.6452C37.4754 17.4624 38.5377 14.7814 40.6623 12.6022C42.8149 10.3943 45.4428 9.29032 48.5458 9.29032C51.6489 9.29032 54.2767 10.3943 56.4293 12.6022C58.5819 14.7814 59.6582 17.4624 59.6582 20.6452C59.6582 23.828 58.5819 26.5233 56.4293 28.7312ZM44.4783 24.9032C45.5686 26.0215 46.9244 26.5806 48.5458 26.5806C50.1673 26.5806 51.5231 26.0215 52.6134 24.9032C53.7037 23.7849 54.2488 22.3656 54.2488 20.6452C54.2488 18.9247 53.7037 17.5054 52.6134 16.3871C51.5231 15.2688 50.1673 14.7097 48.5458 14.7097C46.9244 14.7097 45.5686 15.2688 44.4783 16.3871C43.416 17.5054 42.8848 18.9247 42.8848 20.6452C42.8848 22.3656 43.416 23.7849 44.4783 24.9032Z" fill="#313743" fill-opacity="0.7"/>
<path d="M62.625 31.3979V0H68.0344V31.3979H62.625Z" fill="#313743" fill-opacity="0.7"/>
<path d="M74.8306 7.31183C73.936 7.31183 73.1532 6.98208 72.4823 6.32258C71.8393 5.63441 71.5178 4.83154 71.5178 3.91398C71.5178 2.99642 71.8393 2.19355 72.4823 1.50538C73.1532 0.817204 73.936 0.473117 74.8306 0.473117C75.7531 0.473117 76.5359 0.817204 77.1788 1.50538C77.8498 2.19355 78.1852 2.99642 78.1852 3.91398C78.1852 4.83154 77.8498 5.63441 77.1788 6.32258C76.5359 6.98208 75.7531 7.31183 74.8306 7.31183ZM72.1468 31.3979V9.89248H77.5563V31.3979H72.1468Z" fill="#313743" fill-opacity="0.7"/>
<path d="M101 31.3979H94.71L87.0781 21.6344V31.3979H81.6687V1.29032H87.0781V19.3548L94.2906 9.89248H100.748L92.3198 20.5161L101 31.3979Z" fill="#313743" fill-opacity="0.7"/>
</svg>
