<svg width="120" height="31" viewBox="0 0 120 31" fill="none" xmlns="http://www.w3.org/2000/svg">
<g id="Group 124758">
<g id="Group 5">
<g id="Rectangle 1">
<path d="M7.6687 7.66919C11.9043 3.43362 18.7715 3.43362 23.0071 7.66919C27.2427 11.9048 27.2427 18.772 23.0071 23.0076L16.6044 29.4103C15.9049 30.1097 14.7709 30.1098 14.0714 29.4103L7.6687 23.0076C3.43313 18.772 3.43312 11.9048 7.6687 7.66919Z" fill="#4230AF"/>
<path d="M7.6687 7.66919C11.9043 3.43362 18.7715 3.43362 23.0071 7.66919C27.2427 11.9048 27.2427 18.772 23.0071 23.0076L16.6044 29.4103C15.9049 30.1097 14.7709 30.1098 14.0714 29.4103L7.6687 23.0076C3.43313 18.772 3.43312 11.9048 7.6687 7.66919Z" fill="url(#paint0_radial_841_4371)"/>
</g>
<path id="Intersect" fill-rule="evenodd" clip-rule="evenodd" d="M20.5916 5.846V15.7301H10.0332V5.87516C13.3007 4.04097 17.3162 4.03125 20.5916 5.846Z" fill="#FEA934"/>
<path id="Vector 3 (Stroke)" fill-rule="evenodd" clip-rule="evenodd" d="M10.0332 15.7433L12.9282 12.8555L15.3124 15.2338L17.6966 12.8555L20.5916 15.7433L16.0638 20.2599C15.6485 20.6742 14.9763 20.6742 14.561 20.2599L10.0332 15.7433Z" fill="white"/>
</g>
<path id="Subtract" fill-rule="evenodd" clip-rule="evenodd" d="M34.1159 12.8607V11.6957C34.1447 10.7999 34.4879 10.0374 35.1453 9.40818C35.8085 8.76757 36.7168 8.44727 37.8701 8.44727V10.4286C37.2704 10.4286 36.835 10.5562 36.5639 10.8113C36.2929 11.0664 36.1487 11.3669 36.1314 11.7127V12.8607H37.8701V14.842H36.1314V22.2657H34.1159V14.842H33V12.8607H34.1159ZM42.8752 14.7485C42.0794 14.7485 41.4018 15.0234 40.8424 15.5733C40.2772 16.1289 39.9947 16.795 39.9947 17.5717C39.9947 18.354 40.2772 19.023 40.8424 19.5785C41.4018 20.1284 42.0794 20.4034 42.8752 20.4034C43.6711 20.4034 44.3487 20.1284 44.9081 19.5785C45.4675 19.023 45.7472 18.354 45.7472 17.5717C45.7472 16.7893 45.4675 16.1232 44.9081 15.5733C44.3487 15.0234 43.6711 14.7485 42.8752 14.7485ZM42.8752 22.3848C41.5258 22.3848 40.3724 21.9142 39.4151 20.9731C38.4578 20.0321 37.9791 18.8983 37.9791 17.5717C37.9791 16.2508 38.4578 15.1198 39.4151 14.1787C40.3724 13.2377 41.5258 12.7671 42.8752 12.7671C44.2189 12.7671 45.3694 13.2377 46.3267 14.1787C47.284 15.1198 47.7627 16.2508 47.7627 17.5717C47.7627 18.8983 47.284 20.0321 46.3267 20.9731C45.3694 21.9142 44.2189 22.3848 42.8752 22.3848ZM53.2176 14.7485C52.4218 14.7485 51.7441 15.0234 51.1848 15.5733C50.6196 16.1289 50.337 16.795 50.337 17.5717C50.337 18.354 50.6196 19.023 51.1848 19.5785C51.7441 20.1284 52.4218 20.4034 53.2176 20.4034C54.0134 20.4034 54.691 20.1284 55.2504 19.5785C55.8098 19.023 56.0895 18.354 56.0895 17.5717C56.0895 16.7893 55.8098 16.1232 55.2504 15.5733C54.691 15.0234 54.0134 14.7485 53.2176 14.7485ZM53.2176 22.3848C51.8681 22.3848 50.7148 21.9142 49.7575 20.9731C48.8001 20.0321 48.3215 18.8983 48.3215 17.5717C48.3215 16.2508 48.8001 15.1198 49.7575 14.1787C50.7148 13.2377 51.8681 12.7671 53.2176 12.7671C54.5613 12.7671 55.7118 13.2377 56.6691 14.1787C57.6264 15.1198 58.105 16.2508 58.105 17.5717C58.105 18.8983 57.6264 20.0321 56.6691 20.9731C55.7118 21.9142 54.5613 22.3848 53.2176 22.3848ZM63.5599 14.757C62.7641 14.757 62.0836 15.0319 61.5185 15.5818C60.9591 16.1317 60.6794 16.7979 60.6794 17.5802C60.6794 18.3625 60.9591 19.0286 61.5185 19.5785C62.0836 20.1284 62.7641 20.4034 63.5599 20.4034C64.3558 20.4034 65.0334 20.1284 65.5928 19.5785C66.1522 19.0286 66.4319 18.3625 66.4319 17.5802C66.4319 16.7979 66.1522 16.1317 65.5928 15.5818C65.0334 15.0319 64.3558 14.757 63.5599 14.757ZM63.5599 22.3933C62.2105 22.3933 61.0571 21.9199 60.0998 20.9731C59.1425 20.0321 58.6638 18.9011 58.6638 17.5802C58.6638 16.2593 59.1425 15.1283 60.0998 14.1872C61.0571 13.2405 62.2105 12.7671 63.5599 12.7671C64.7595 12.7501 65.7168 13.0307 66.4319 13.609V8.49829H68.4474V22.2657H66.4319V21.5514C65.8725 22.1126 64.9152 22.3933 63.5599 22.3933ZM75.84 12.8777H78.0285L74.7391 20.87L74.7324 20.8674L73.2469 24.4473H71.0706L72.3885 21.2708L68.937 12.8777H71.1169L73.4784 18.6091L75.84 12.8777ZM81.9004 22.3848C81.1046 22.3791 80.3837 22.192 79.7378 21.8235C78.9478 21.3643 78.3913 20.5905 78.0683 19.502L79.9973 18.9663C80.1703 19.5502 80.4385 19.9414 80.8018 20.1398C81.119 20.3099 81.4881 20.3977 81.9091 20.4034C81.961 20.4034 82.0186 20.4006 82.0821 20.3949C82.1455 20.3892 82.2089 20.3807 82.2724 20.3694C82.4454 20.341 82.5982 20.2985 82.7308 20.2418C83.0711 20.0774 83.2556 19.8081 83.2845 19.434C83.296 19.2752 83.2441 19.1364 83.1288 19.0173C82.9039 18.7509 82.5088 18.6006 81.9437 18.5666C80.5365 18.4759 79.5158 18.1159 78.8814 17.4866C78.6162 17.2259 78.4287 16.9311 78.3192 16.6023C78.2269 16.3472 78.1808 16.075 78.1808 15.7859C78.1808 14.8448 78.5556 14.088 79.3053 13.5154C79.9627 13.0166 80.7528 12.7671 81.6755 12.7671C82.7712 12.7671 83.6881 13.1498 84.4263 13.9151C84.83 14.346 85.1501 14.8619 85.3865 15.4628L83.5094 16.1431L83.2499 15.6669C83.1691 15.5251 83.074 15.3976 82.9644 15.2842C82.6126 14.927 82.1772 14.7485 81.6582 14.7485C81.5602 14.7541 81.4737 14.7626 81.3987 14.774C81.2257 14.7967 81.0556 14.8392 80.8883 14.9015C80.427 15.0773 80.1963 15.3721 80.1963 15.7859C80.1963 16.007 80.3664 16.1884 80.7067 16.3302C81.0411 16.4605 81.4996 16.5456 82.0821 16.5853C82.7049 16.6249 83.2556 16.7638 83.7343 17.0019C84.0976 17.189 84.409 17.4243 84.6685 17.7077C85.1414 18.2576 85.349 18.8841 85.2913 19.5871C85.2221 20.4941 84.83 21.2027 84.1149 21.713C83.4978 22.1608 82.7626 22.3848 81.9091 22.3848H81.9004ZM88.5491 20.2248C88.8259 20.4969 88.9643 20.8257 88.9643 21.2112C88.9643 21.5911 88.8259 21.9171 88.5491 22.1892C88.278 22.467 87.9464 22.6058 87.5543 22.6058C87.1621 22.6058 86.8305 22.467 86.5595 22.1892C86.2827 21.9171 86.1443 21.5911 86.1443 21.2112C86.1443 20.8257 86.2827 20.4969 86.5595 20.2248C86.8363 19.9527 87.1679 19.8166 87.5543 19.8166C87.9407 19.8166 88.2723 19.9527 88.5491 20.2248ZM95.3967 14.7485C94.6008 14.7485 93.9232 15.0234 93.3638 15.5733C92.7987 16.1289 92.5161 16.795 92.5161 17.5717C92.5161 18.354 92.7987 19.023 93.3638 19.5785C93.9232 20.1284 94.6008 20.4034 95.3967 20.4034C96.1925 20.4034 96.8701 20.1284 97.4295 19.5785C97.9889 19.023 98.2686 18.354 98.2686 17.5717C98.2686 16.7893 97.9889 16.1232 97.4295 15.5733C96.8701 15.0234 96.1925 14.7485 95.3967 14.7485ZM95.3967 22.3848C94.0472 22.3848 92.8938 21.9142 91.9365 20.9731C90.9792 20.0321 90.5006 18.8983 90.5006 17.5717C90.5006 16.2508 90.9792 15.1198 91.9365 14.1787C92.8938 13.2377 94.0472 12.7671 95.3967 12.7671C96.7404 12.7671 97.8909 13.2377 98.8482 14.1787C99.8055 15.1198 100.284 16.2508 100.284 17.5717C100.284 18.8983 99.8055 20.0321 98.8482 20.9731C97.8909 21.9142 96.7404 22.3848 95.3967 22.3848ZM109.242 22.2657H107.227V16.6958C107.227 16.1572 107.034 15.698 106.647 15.3182C106.261 14.9384 105.797 14.7485 105.255 14.7485C104.707 14.7485 104.24 14.9384 103.853 15.3182C103.467 15.698 103.274 16.1572 103.274 16.6958V22.2657H101.258V12.8777H103.274V13.2603C103.897 12.9202 104.557 12.7558 105.255 12.7671C106.35 12.7671 107.287 13.1526 108.066 13.9236C108.85 14.6889 109.242 15.613 109.242 16.6958V22.2657ZM117.638 16.2026C117.494 15.9135 117.212 15.6073 116.791 15.2842C116.289 14.927 115.73 14.7485 115.113 14.7485C114.49 14.7485 113.93 14.927 113.434 15.2842C113.025 15.613 112.745 15.9191 112.595 16.2026H117.638ZM115.113 12.7671C116.456 12.7671 117.607 13.2377 118.564 14.1787C119.521 15.1198 120 16.2508 120 17.5717L119.983 18.1839H112.301C112.376 18.6488 112.665 19.1392 113.166 19.6551C113.714 20.154 114.363 20.4034 115.113 20.4034C115.649 20.4034 116.151 20.2588 116.618 19.9697C117.062 19.7089 117.454 19.2526 117.794 18.6006L119.654 19.3915C119.135 20.4119 118.489 21.1602 117.716 21.6364C116.926 22.1353 116.058 22.3848 115.113 22.3848C113.769 22.3848 112.618 21.9142 111.661 20.9731C110.698 20.0321 110.216 18.8983 110.216 17.5717C110.216 16.2508 110.698 15.1198 111.661 14.1787C112.618 13.2377 113.769 12.7671 115.113 12.7671Z" fill="#313743"/>
</g>
<defs>
<radialGradient id="paint0_radial_841_4371" cx="0" cy="0" r="1" gradientUnits="userSpaceOnUse" gradientTransform="translate(8.94903 21.8262) rotate(-45) scale(19.9511)">
<stop stop-color="#FFC224"/>
<stop offset="1" stop-color="#F97255"/>
</radialGradient>
</defs>
</svg>
