<svg width="20" height="19" viewBox="0 0 20 19" fill="none" xmlns="http://www.w3.org/2000/svg">
<g id="Frame 30">
<path id="Vector" d="M10 11C10.2652 11 10.5196 10.8946 10.7071 10.7071C10.8946 10.5196 11 10.2652 11 10C11 9.73478 10.8946 9.48043 10.7071 9.29289C10.5196 9.10536 10.2652 9 10 9C9.73478 9 9.48043 9.10536 9.29289 9.29289C9.10536 9.48043 9 9.73478 9 10C9 10.2652 9.10536 10.5196 9.29289 10.7071C9.48043 10.8946 9.73478 11 10 11Z" fill="#3C527E"/>
<path id="Vector_2" fill-rule="evenodd" clip-rule="evenodd" d="M3 10C3.9346 7.10214 6.71494 5 10 5C13.2851 5 16.0654 7.10214 17 10C16.0654 12.8979 13.2851 15 10 15C6.71494 15 3.9346 12.8979 3 10ZM12.9344 10C12.9344 10.7578 12.6252 11.4845 12.0749 12.0203C11.5246 12.5561 10.7782 12.8571 10 12.8571C9.22175 12.8571 8.47537 12.5561 7.92507 12.0203C7.37476 11.4845 7.0656 10.7578 7.0656 10C7.0656 9.24224 7.37476 8.51551 7.92507 7.97969C8.47537 7.44388 9.22175 7.14286 10 7.14286C10.7782 7.14286 11.5246 7.44388 12.0749 7.97969C12.6252 8.51551 12.9344 9.24224 12.9344 10Z" fill="#3C527E"/>
</g>
</svg>
