<svg width="239" height="66" viewBox="0 0 239 66" fill="none" xmlns="http://www.w3.org/2000/svg">
<path d="M74.8914 50.6953V51.4768H71.6297V52.6067H74.5677V53.3797H71.6297V54.603H75.0158V55.393H70.7832V50.6953H74.8914Z" fill="#1F1B2C"/>
<path d="M79.2767 53.8894H81.7499L80.7872 51.4683H80.2643L79.2767 53.8894ZM81.3432 50.6953L83.2935 55.393H82.4055L82.0902 54.6539H78.9613L78.6459 55.393H77.7413L79.7497 50.6953H81.3432Z" fill="#1F1B2C"/>
<path d="M89.8957 50.6953V51.4768H87.9454V55.393H87.0988V51.4768H85.1485V50.6953H89.8957Z" fill="#1F1B2C"/>
<path d="M92.2733 54.1782C92.4559 54.1782 92.6108 54.2433 92.7381 54.3736C92.8653 54.5038 92.929 54.6596 92.929 54.8408C92.929 55.022 92.8653 55.1749 92.7381 55.2995C92.6108 55.4185 92.4559 55.4779 92.2733 55.4779C92.0963 55.4779 91.9441 55.4185 91.8169 55.2995C91.6951 55.1749 91.6343 55.022 91.6343 54.8408C91.6343 54.6596 91.6951 54.5038 91.8169 54.3736C91.9441 54.2433 92.0963 54.1782 92.2733 54.1782Z" fill="#1F1B2C"/>
<path d="M98.0857 50.6953C98.4067 50.6953 98.7165 50.7519 99.0153 50.8652C99.314 50.9728 99.5769 51.1286 99.8037 51.3324C100.036 51.5363 100.219 51.7827 100.351 52.0715C100.49 52.3603 100.559 52.6831 100.559 53.0399C100.559 53.3967 100.49 53.7223 100.351 54.0168C100.213 54.3056 100.031 54.552 99.8037 54.7559C99.5769 54.9597 99.314 55.1183 99.0153 55.2316C98.7165 55.3392 98.4067 55.393 98.0857 55.393H95.7702V50.6953H98.0857ZM96.6168 54.603H98.0691C98.3126 54.603 98.5339 54.5661 98.7331 54.4925C98.9378 54.4132 99.1121 54.3056 99.2559 54.1697C99.3998 54.0338 99.5105 53.8696 99.5879 53.677C99.6709 53.4845 99.7124 53.2721 99.7124 53.0399C99.7124 52.8077 99.6709 52.5953 99.5879 52.4028C99.5105 52.2102 99.3998 52.046 99.2559 51.9101C99.1121 51.7742 98.9378 51.6694 98.7331 51.5958C98.5339 51.5165 98.3126 51.4768 98.0691 51.4768H96.6168V54.603Z" fill="#1F1B2C"/>
<path d="M106.102 50.6953C106.368 50.6953 106.614 50.7406 106.841 50.8312C107.068 50.9162 107.264 51.0379 107.43 51.1965C107.596 51.3551 107.726 51.5476 107.82 51.7742C107.92 51.995 107.97 52.2414 107.97 52.5132C107.97 52.887 107.881 53.2098 107.704 53.4816C107.532 53.7478 107.303 53.9517 107.015 54.0933L107.737 55.393H106.816L106.235 54.3056H104.251V55.393H103.405V50.6953H106.102ZM104.251 53.5156H106.069C106.384 53.5156 106.639 53.4278 106.833 53.2523C107.032 53.0767 107.131 52.8304 107.131 52.5132C107.131 52.1904 107.032 51.9384 106.833 51.7572C106.639 51.5759 106.384 51.4853 106.069 51.4853H104.251V53.5156Z" fill="#1F1B2C"/>
<path d="M111.619 50.6953V55.393H110.772V50.6953H111.619Z" fill="#1F1B2C"/>
<path d="M115.42 50.6953L118.466 54.1867V50.6953H119.304V55.393H118.449L115.403 51.8846V55.393H114.573V50.6953H115.42Z" fill="#1F1B2C"/>
<path d="M123.095 50.6953V52.5132H124.697L125.908 50.6953H126.879L125.419 52.87L126.996 55.393H126L124.722 53.2947H123.095V55.393H122.257V50.6953H123.095Z" fill="#1F1B2C"/>
<path d="M130.236 54.1782C130.419 54.1782 130.574 54.2433 130.701 54.3736C130.828 54.5038 130.892 54.6596 130.892 54.8408C130.892 55.022 130.828 55.1749 130.701 55.2995C130.574 55.4185 130.419 55.4779 130.236 55.4779C130.059 55.4779 129.907 55.4185 129.78 55.2995C129.658 55.1749 129.597 55.022 129.597 54.8408C129.597 54.6596 129.658 54.5038 129.78 54.3736C129.907 54.2433 130.059 54.1782 130.236 54.1782Z" fill="#1F1B2C"/>
<path d="M136.049 50.6953C136.369 50.6953 136.679 50.7519 136.978 50.8652C137.277 50.9728 137.54 51.1286 137.766 51.3324C137.999 51.5363 138.181 51.7827 138.314 52.0715C138.453 52.3603 138.522 52.6831 138.522 53.0399C138.522 53.3967 138.453 53.7223 138.314 54.0168C138.176 54.3056 137.993 54.552 137.766 54.7559C137.54 54.9597 137.277 55.1183 136.978 55.2316C136.679 55.3392 136.369 55.393 136.049 55.393H133.733V50.6953H136.049ZM134.58 54.603H136.032C136.275 54.603 136.497 54.5661 136.696 54.4925C136.901 54.4132 137.075 54.3056 137.219 54.1697C137.363 54.0338 137.473 53.8696 137.551 53.677C137.634 53.4845 137.675 53.2721 137.675 53.0399C137.675 52.8077 137.634 52.5953 137.551 52.4028C137.473 52.2102 137.363 52.046 137.219 51.9101C137.075 51.7742 136.901 51.6694 136.696 51.5958C136.497 51.5165 136.275 51.4768 136.032 51.4768H134.58V54.603Z" fill="#1F1B2C"/>
<path d="M145.476 50.6953V51.4768H142.214V52.6067H145.152V53.3797H142.214V54.603H145.6V55.393H141.368V50.6953H145.476Z" fill="#1F1B2C"/>
<path d="M149.338 50.6953V54.6114H152.641V55.393H148.492V50.6953H149.338Z" fill="#1F1B2C"/>
<path d="M156.236 50.6953V55.393H155.389V50.6953H156.236Z" fill="#1F1B2C"/>
<path d="M159.929 50.6953L161.547 54.6114H161.879L163.497 50.6953H164.419L162.394 55.393H161.016L158.999 50.6953H159.929Z" fill="#1F1B2C"/>
<path d="M171.29 50.6953V51.4768H168.028V52.6067H170.966V53.3797H168.028V54.603H171.414V55.393H167.181V50.6953H171.29Z" fill="#1F1B2C"/>
<path d="M177.003 50.6953C177.268 50.6953 177.515 50.7406 177.741 50.8312C177.968 50.9162 178.165 51.0379 178.331 51.1965C178.497 51.3551 178.627 51.5476 178.721 51.7742C178.82 51.995 178.87 52.2414 178.87 52.5132C178.87 52.887 178.782 53.2098 178.605 53.4816C178.433 53.7478 178.203 53.9517 177.916 54.0933L178.638 55.393H177.717L177.136 54.3056H175.152V55.393H174.306V50.6953H177.003ZM175.152 53.5156H176.97C177.285 53.5156 177.54 53.4278 177.733 53.2523C177.932 53.0767 178.032 52.8304 178.032 52.5132C178.032 52.1904 177.932 51.9384 177.733 51.7572C177.54 51.5759 177.285 51.4853 176.97 51.4853H175.152V53.5156Z" fill="#1F1B2C"/>
<path d="M16.5 16.5C25.6127 7.38731 40.3873 7.38731 49.5 16.5C58.6127 25.6127 58.6127 40.3873 49.5 49.5L35.7248 63.2752C34.2199 64.7801 31.7801 64.7801 30.2752 63.2752L16.5 49.5C7.38731 40.3873 7.38731 25.6127 16.5 16.5Z" fill="#4230AF"/>
<path d="M16.5 16.5C25.6127 7.38731 40.3873 7.38731 49.5 16.5C58.6127 25.6127 58.6127 40.3873 49.5 49.5L35.7248 63.2752C34.2199 64.7801 31.7801 64.7801 30.2752 63.2752L16.5 49.5C7.38731 40.3873 7.38731 25.6127 16.5 16.5Z" fill="url(#paint0_radial_841_4319)"/>
<path fill-rule="evenodd" clip-rule="evenodd" d="M44.302 12.5787V33.844H21.5859V12.6414C28.6159 8.69523 37.255 8.67432 44.302 12.5787Z" fill="#FEA934"/>
<path fill-rule="evenodd" clip-rule="evenodd" d="M21.5859 33.8713L27.8144 27.6582L32.9439 32.7751L38.0735 27.6582L44.302 33.8713L34.5605 43.5887C33.6671 44.4799 32.2208 44.4799 31.3274 43.5887L21.5859 33.8713Z" fill="white"/>
<path fill-rule="evenodd" clip-rule="evenodd" d="M72.36 23.5801V21.2832C72.4159 19.5173 73.0809 18.014 74.3551 16.7734C75.6404 15.5104 77.4007 14.8789 79.6361 14.8789V18.7852C78.4737 18.7852 77.6299 19.0367 77.1046 19.5396C76.5792 20.0426 76.2998 20.635 76.2663 21.3168V23.5801H79.6361V27.4864H76.2663V42.1225H72.36V27.4864H70.1973V23.5801H72.36ZM89.3365 27.302C87.7941 27.302 86.4808 27.844 85.3967 28.9282C84.3013 30.0235 83.7537 31.3368 83.7537 32.868C83.7537 34.4104 84.3013 35.7293 85.3967 36.8246C86.4808 37.9088 87.7941 38.4509 89.3365 38.4509C90.8789 38.4509 92.1922 37.9088 93.2763 36.8246C94.3605 35.7293 94.9026 34.4104 94.9026 32.868C94.9026 31.3256 94.3605 30.0124 93.2763 28.9282C92.1922 27.844 90.8789 27.302 89.3365 27.302ZM89.3365 42.3572C86.7211 42.3572 84.4857 41.4295 82.6304 39.5741C80.775 37.7188 79.8474 35.4834 79.8474 32.868C79.8474 30.2638 80.775 28.034 82.6304 26.1787C84.4857 24.3233 86.7211 23.3957 89.3365 23.3957C91.9407 23.3957 94.1705 24.3233 96.0258 26.1787C97.8812 28.034 98.8089 30.2638 98.8089 32.868C98.8089 35.4834 97.8812 37.7188 96.0258 39.5741C94.1705 41.4295 91.9407 42.3572 89.3365 42.3572ZM109.381 27.302C107.839 27.302 106.525 27.844 105.441 28.9282C104.346 30.0235 103.798 31.3368 103.798 32.868C103.798 34.4104 104.346 35.7293 105.441 36.8246C106.525 37.9088 107.839 38.4509 109.381 38.4509C110.923 38.4509 112.237 37.9088 113.321 36.8246C114.405 35.7293 114.947 34.4104 114.947 32.868C114.947 31.3256 114.405 30.0124 113.321 28.9282C112.237 27.844 110.923 27.302 109.381 27.302ZM109.381 42.3572C106.766 42.3572 104.53 41.4295 102.675 39.5741C100.82 37.7188 99.8919 35.4834 99.8919 32.868C99.8919 30.2638 100.82 28.034 102.675 26.1787C104.53 24.3233 106.766 23.3957 109.381 23.3957C111.985 23.3957 114.215 24.3233 116.07 26.1787C117.926 28.034 118.853 30.2638 118.853 32.868C118.853 35.4834 117.926 37.7188 116.07 39.5741C114.215 41.4295 111.985 42.3572 109.381 42.3572ZM129.426 27.3187C127.883 27.3187 126.564 27.8608 125.469 28.945C124.385 30.0291 123.843 31.3424 123.843 32.8848C123.843 34.4272 124.385 35.7405 125.469 36.8246C126.564 37.9088 127.883 38.4509 129.426 38.4509C130.968 38.4509 132.281 37.9088 133.365 36.8246C134.45 35.7405 134.992 34.4272 134.992 32.8848C134.992 31.3424 134.45 30.0291 133.365 28.945C132.281 27.8608 130.968 27.3187 129.426 27.3187ZM129.426 42.3739C126.81 42.3739 124.575 41.4407 122.719 39.5741C120.864 37.7188 119.936 35.489 119.936 32.8848C119.936 30.2806 120.864 28.0508 122.719 26.1955C124.575 24.3289 126.81 23.3957 129.426 23.3957C131.75 23.3621 133.606 23.9154 134.992 25.0554V14.9795H138.898V42.1225H134.992V40.7142C133.907 41.8207 132.052 42.3739 129.426 42.3739ZM153.226 23.6136H157.467L151.092 39.3708L151.079 39.3657L148.2 46.4235H143.982L146.536 40.1609L139.847 23.6136H144.072L148.649 34.9134L153.226 23.6136ZM164.971 42.3572C163.429 42.346 162.032 41.9772 160.78 41.2507C159.249 40.3453 158.17 38.8197 157.544 36.6737L161.283 35.6175C161.618 36.7688 162.138 37.54 162.842 37.9311C163.457 38.2664 164.172 38.4397 164.988 38.4509C165.089 38.4509 165.2 38.4453 165.323 38.4341C165.446 38.4229 165.569 38.4062 165.692 38.3838C166.028 38.3279 166.324 38.2441 166.581 38.1323C167.24 37.8082 167.598 37.2773 167.654 36.5396C167.676 36.2267 167.575 35.9528 167.352 35.7181C166.916 35.1928 166.15 34.8966 165.055 34.8296C162.328 34.6507 160.35 33.941 159.12 32.7004C158.606 32.1862 158.243 31.6051 158.03 30.9568C157.852 30.4538 157.762 29.9173 157.762 29.3473C157.762 27.492 158.489 25.9999 159.942 24.871C161.216 23.8874 162.747 23.3957 164.535 23.3957C166.659 23.3957 168.436 24.1501 169.867 25.659C170.649 26.5084 171.269 27.5255 171.728 28.7102L168.09 30.0515L167.587 29.1126C167.43 28.8332 167.246 28.5817 167.033 28.3582C166.352 27.654 165.508 27.302 164.502 27.302C164.312 27.3131 164.144 27.3299 163.999 27.3523C163.664 27.397 163.334 27.4808 163.01 27.6037C162.116 27.9502 161.669 28.5314 161.669 29.3473C161.669 29.7832 161.998 30.1409 162.658 30.4203C163.306 30.6774 164.195 30.845 165.323 30.9233C166.53 31.0015 167.598 31.2753 168.526 31.7448C169.23 32.1136 169.833 32.5774 170.336 33.1363C171.253 34.2204 171.655 35.4555 171.543 36.8414C171.409 38.6297 170.649 40.0268 169.263 41.0327C168.067 41.9157 166.642 42.3572 164.988 42.3572H164.971ZM177.857 38.0988C178.394 38.6353 178.662 39.2835 178.662 40.0436C178.662 40.7924 178.394 41.4351 177.857 41.9716C177.332 42.5192 176.689 42.7931 175.929 42.7931C175.169 42.7931 174.526 42.5192 174.001 41.9716C173.465 41.4351 173.196 40.7924 173.196 40.0436C173.196 39.2835 173.465 38.6353 174.001 38.0988C174.538 37.5623 175.18 37.2941 175.929 37.2941C176.678 37.2941 177.321 37.5623 177.857 38.0988ZM191.128 27.302C189.586 27.302 188.273 27.844 187.189 28.9282C186.093 30.0235 185.546 31.3368 185.546 32.868C185.546 34.4104 186.093 35.7293 187.189 36.8246C188.273 37.9088 189.586 38.4509 191.128 38.4509C192.671 38.4509 193.984 37.9088 195.068 36.8246C196.152 35.7293 196.695 34.4104 196.695 32.868C196.695 31.3256 196.152 30.0124 195.068 28.9282C193.984 27.844 192.671 27.302 191.128 27.302ZM191.128 42.3572C188.513 42.3572 186.278 41.4295 184.422 39.5741C182.567 37.7188 181.639 35.4834 181.639 32.868C181.639 30.2638 182.567 28.034 184.422 26.1787C186.278 24.3233 188.513 23.3957 191.128 23.3957C193.733 23.3957 195.962 24.3233 197.818 26.1787C199.673 28.034 200.601 30.2638 200.601 32.868C200.601 35.4834 199.673 37.7188 197.818 39.5741C195.962 41.4295 193.733 42.3572 191.128 42.3572ZM217.963 42.1225H214.057V31.1412C214.057 30.0794 213.682 29.1741 212.933 28.4252C212.185 27.6764 211.285 27.302 210.234 27.302C209.172 27.302 208.267 27.6764 207.518 28.4252C206.769 29.1741 206.395 30.0794 206.395 31.1412V42.1225H202.489V23.6136H206.395V24.368C207.602 23.6974 208.882 23.3733 210.234 23.3957C212.358 23.3957 214.174 24.1557 215.683 25.6757C217.203 27.1846 217.963 29.0064 217.963 31.1412V42.1225ZM234.235 30.1688C233.956 29.5988 233.408 28.9953 232.592 28.3582C231.62 27.654 230.536 27.302 229.34 27.302C228.133 27.302 227.049 27.654 226.087 28.3582C225.294 29.0064 224.752 29.61 224.461 30.1688H234.235ZM229.34 23.3957C231.944 23.3957 234.174 24.3233 236.029 26.1787C237.885 28.034 238.812 30.2638 238.812 32.868L238.779 34.0751H223.891C224.036 34.9916 224.595 35.9584 225.568 36.9755C226.629 37.9591 227.887 38.4509 229.34 38.4509C230.379 38.4509 231.352 38.1659 232.257 37.5958C233.118 37.0817 233.878 36.182 234.537 34.8966L238.142 36.4558C237.136 38.4676 235.884 39.943 234.386 40.8818C232.855 41.8654 231.173 42.3572 229.34 42.3572C226.736 42.3572 224.506 41.4295 222.651 39.5741C220.784 37.7188 219.851 35.4834 219.851 32.868C219.851 30.2638 220.784 28.034 222.651 26.1787C224.506 24.3233 226.736 23.3957 229.34 23.3957Z" fill="#313743"/>
<defs>
<radialGradient id="paint0_radial_841_4319" cx="0" cy="0" r="1" gradientUnits="userSpaceOnUse" gradientTransform="translate(19.2546 46.9583) rotate(-45) scale(42.924)">
<stop stop-color="#FFC224"/>
<stop offset="1" stop-color="#F97255"/>
</radialGradient>
</defs>
</svg>
