<svg width="20" height="20" viewBox="0 0 20 20" fill="none" xmlns="http://www.w3.org/2000/svg">
<path d="M12.5 10C12.5 10.663 12.2366 11.2989 11.7678 11.7678C11.2989 12.2366 10.663 12.5 10 12.5C9.33696 12.5 8.70107 12.2366 8.23223 11.7678C7.76339 11.2989 7.5 10.663 7.5 10C7.5 9.33696 7.76339 8.70107 8.23223 8.23223C8.70107 7.76339 9.33696 7.5 10 7.5C10.663 7.5 11.2989 7.76339 11.7678 8.23223C12.2366 8.70107 12.5 9.33696 12.5 10Z" stroke="#616265" stroke-width="1.5" stroke-linecap="round" stroke-linejoin="round"/>
<path d="M1.66675 9.99996C3.00008 6.58579 6.11341 4.16663 10.0001 4.16663C13.8867 4.16663 17.0001 6.58579 18.3334 9.99996C17.0001 13.4141 13.8867 15.8333 10.0001 15.8333C6.11341 15.8333 3.00008 13.4141 1.66675 9.99996Z" stroke="#616265" stroke-width="1.5" stroke-linecap="round" stroke-linejoin="round"/>
</svg>
