<?xml version="1.0" encoding="UTF-8"?>
<svg width="239" height="66" fill="none" version="1.1" viewBox="0 0 239 66" xml:space="preserve" xmlns="http://www.w3.org/2000/svg"><path d="m16.5 16.5c9.1127-9.1127 23.887-9.1127 33 0 9.1127 9.1127 9.1127 23.887 0 33l-13.775 13.775c-1.5049 1.5049-3.9447 1.5049-5.4496 0l-13.775-13.775c-9.1127-9.1127-9.1127-23.887 0-33z" fill="#4230AF"/><path d="m16.5 16.5c9.1127-9.1127 23.887-9.1127 33 0 9.1127 9.1127 9.1127 23.887 0 33l-13.775 13.775c-1.5049 1.5049-3.9447 1.5049-5.4496 0l-13.775-13.775c-9.1127-9.1127-9.1127-23.887 0-33z" fill="url(#paint0_radial_841_4319)"/><g clip-rule="evenodd" fill-rule="evenodd"><path d="m44.302 12.579v21.265h-22.716v-21.203c7.03-3.9462 15.669-3.9671 22.716-0.0627z" fill="#FEA934"/><path d="m21.586 33.871 6.2285-6.2131 5.1295 5.1169 5.1296-5.1169 6.2285 6.2131-9.7415 9.7174c-0.8934 0.8912-2.3397 0.8912-3.2331 0l-9.7415-9.7174z" fill="#fff"/><path d="m72.36 23.58v-2.2969c0.0559-1.7659 0.7209-3.2692 1.9951-4.5098 1.2853-1.263 3.0456-1.8945 5.281-1.8945v3.9063c-1.1624 0-2.0062 0.2515-2.5315 0.7544-0.5254 0.503-0.8048 1.0954-0.8383 1.7772v2.2633h3.3698v3.9063h-3.3698v14.636h-3.9063v-14.636h-2.1627v-3.9063h2.1627zm16.976 3.7219c-1.5424 0-2.8557 0.542-3.9398 1.6262-1.0954 1.0953-1.643 2.4086-1.643 3.9398 0 1.5424 0.5476 2.8613 1.643 3.9566 1.0841 1.0842 2.3974 1.6263 3.9398 1.6263s2.8557-0.5421 3.9398-1.6263c1.0842-1.0953 1.6263-2.4142 1.6263-3.9566s-0.5421-2.8556-1.6263-3.9398c-1.0841-1.0842-2.3974-1.6262-3.9398-1.6262zm0 15.055c-2.6154 0-4.8508-0.9277-6.7061-2.7831-1.8554-1.8553-2.783-4.0907-2.783-6.7061 0-2.6042 0.9276-4.834 2.783-6.6893 1.8553-1.8554 4.0907-2.783 6.7061-2.783 2.6042 0 4.834 0.9276 6.6893 2.783 1.8554 1.8553 2.7831 4.0851 2.7831 6.6893 0 2.6154-0.9277 4.8508-2.7831 6.7061-1.8553 1.8554-4.0851 2.7831-6.6893 2.7831zm20.044-15.055c-1.542 0-2.856 0.542-3.94 1.6262-1.095 1.0953-1.643 2.4086-1.643 3.9398 0 1.5424 0.548 2.8613 1.643 3.9566 1.084 1.0842 2.398 1.6263 3.94 1.6263s2.856-0.5421 3.94-1.6263c1.084-1.0953 1.626-2.4142 1.626-3.9566s-0.542-2.8556-1.626-3.9398-2.398-1.6262-3.94-1.6262zm0 15.055c-2.615 0-4.851-0.9277-6.706-2.7831-1.855-1.8553-2.7831-4.0907-2.7831-6.7061 0-2.6042 0.9281-4.834 2.7831-6.6893 1.855-1.8554 4.091-2.783 6.706-2.783 2.604 0 4.834 0.9276 6.689 2.783 1.856 1.8553 2.783 4.0851 2.783 6.6893 0 2.6154-0.927 4.8508-2.783 6.7061-1.855 1.8554-4.085 2.7831-6.689 2.7831zm20.045-15.038c-1.543 0-2.862 0.5421-3.957 1.6263-1.084 1.0841-1.626 2.3974-1.626 3.9398s0.542 2.8557 1.626 3.9398c1.095 1.0842 2.414 1.6263 3.957 1.6263 1.542 0 2.855-0.5421 3.939-1.6263 1.085-1.0841 1.627-2.3974 1.627-3.9398s-0.542-2.8557-1.627-3.9398c-1.084-1.0842-2.397-1.6263-3.939-1.6263zm0 15.055c-2.616 0-4.851-0.9332-6.707-2.7998-1.855-1.8553-2.783-4.0851-2.783-6.6893s0.928-4.834 2.783-6.6893c1.856-1.8666 4.091-2.7998 6.707-2.7998 2.324-0.0336 4.18 0.5197 5.566 1.6597v-10.076h3.906v27.143h-3.906v-1.4083c-1.085 1.1065-2.94 1.6597-5.566 1.6597zm23.8-18.76h4.241l-6.375 15.757-0.013-0.0051-2.879 7.0578h-4.218l2.554-6.2626-6.689-16.547h4.225l4.577 11.3 4.577-11.3zm11.745 18.744c-1.542-0.0112-2.939-0.38-4.191-1.1065-1.531-0.9054-2.61-2.431-3.236-4.577l3.739-1.0562c0.335 1.1513 0.855 1.9225 1.559 2.3136 0.615 0.3353 1.33 0.5086 2.146 0.5198 0.101 0 0.212-0.0056 0.335-0.0168s0.246-0.0279 0.369-0.0503c0.336-0.0559 0.632-0.1397 0.889-0.2515 0.659-0.3241 1.017-0.855 1.073-1.5927 0.022-0.3129-0.079-0.5868-0.302-0.8215-0.436-0.5253-1.202-0.8215-2.297-0.8885-2.727-0.1789-4.705-0.8886-5.935-2.1292-0.514-0.5142-0.877-1.0953-1.09-1.7436-0.178-0.503-0.268-1.0395-0.268-1.6095 0-1.8553 0.727-3.3474 2.18-4.4763 1.274-0.9836 2.805-1.4753 4.593-1.4753 2.124 0 3.901 0.7544 5.332 2.2633 0.782 0.8494 1.402 1.8665 1.861 3.0512l-3.638 1.3413-0.503-0.9389c-0.157-0.2794-0.341-0.5309-0.554-0.7544-0.681-0.7042-1.525-1.0562-2.531-1.0562-0.19 0.0111-0.358 0.0279-0.503 0.0503-0.335 0.0447-0.665 0.1285-0.989 0.2514-0.894 0.3465-1.341 0.9277-1.341 1.7436 0 0.4359 0.329 0.7936 0.989 1.073 0.648 0.2571 1.537 0.4247 2.665 0.503 1.207 0.0782 2.275 0.352 3.203 0.8215 0.704 0.3688 1.307 0.8326 1.81 1.3915 0.917 1.0841 1.319 2.3192 1.207 3.7051-0.134 1.7883-0.894 3.1854-2.28 4.1913-1.196 0.883-2.621 1.3245-4.275 1.3245h-0.017zm12.886-4.2584c0.537 0.5365 0.805 1.1847 0.805 1.9448 0 0.7488-0.268 1.3915-0.805 1.928-0.525 0.5476-1.168 0.8215-1.928 0.8215s-1.403-0.2739-1.928-0.8215c-0.536-0.5365-0.805-1.1792-0.805-1.928 0-0.7601 0.269-1.4083 0.805-1.9448 0.537-0.5365 1.179-0.8047 1.928-0.8047s1.392 0.2682 1.928 0.8047zm13.271-10.797c-1.542 0-2.855 0.542-3.939 1.6262-1.096 1.0953-1.643 2.4086-1.643 3.9398 0 1.5424 0.547 2.8613 1.643 3.9566 1.084 1.0842 2.397 1.6263 3.939 1.6263 1.543 0 2.856-0.5421 3.94-1.6263 1.084-1.0953 1.627-2.4142 1.627-3.9566s-0.543-2.8556-1.627-3.9398-2.397-1.6262-3.94-1.6262zm0 15.055c-2.615 0-4.85-0.9277-6.706-2.7831-1.855-1.8553-2.783-4.0907-2.783-6.7061 0-2.6042 0.928-4.834 2.783-6.6893 1.856-1.8554 4.091-2.783 6.706-2.783 2.605 0 4.834 0.9276 6.69 2.783 1.855 1.8553 2.783 4.0851 2.783 6.6893 0 2.6154-0.928 4.8508-2.783 6.7061-1.856 1.8554-4.085 2.7831-6.69 2.7831zm26.835-0.2347h-3.906v-10.981c0-1.0618-0.375-1.9671-1.124-2.716-0.748-0.7488-1.648-1.1232-2.699-1.1232-1.062 0-1.967 0.3744-2.716 1.1232-0.749 0.7489-1.123 1.6542-1.123 2.716v10.981h-3.906v-18.509h3.906v0.7544c1.207-0.6706 2.487-0.9947 3.839-0.9723 2.124 0 3.94 0.76 5.449 2.28 1.52 1.5089 2.28 3.3307 2.28 5.4655v10.981zm16.272-11.954c-0.279-0.57-0.827-1.1735-1.643-1.8106-0.972-0.7042-2.056-1.0562-3.252-1.0562-1.207 0-2.291 0.352-3.253 1.0562-0.793 0.6482-1.335 1.2518-1.626 1.8106h9.774zm-4.895-6.7731c2.604 0 4.834 0.9276 6.689 2.783 1.856 1.8553 2.783 4.0851 2.783 6.6893l-0.033 1.2071h-14.888c0.145 0.9165 0.704 1.8833 1.677 2.9004 1.061 0.9836 2.319 1.4754 3.772 1.4754 1.039 0 2.012-0.285 2.917-0.8551 0.861-0.5141 1.621-1.4138 2.28-2.6992l3.605 1.5592c-1.006 2.0118-2.258 3.4872-3.756 4.426-1.531 0.9836-3.213 1.4754-5.046 1.4754-2.604 0-4.834-0.9277-6.689-2.7831-1.867-1.8553-2.8-4.0907-2.8-6.7061 0-2.6042 0.933-4.834 2.8-6.6893 1.855-1.8554 4.085-2.783 6.689-2.783z" fill="#313743"/></g><defs><radialGradient id="paint0_radial_841_4319" cx="0" cy="0" r="1" gradientTransform="translate(19.255 46.958) rotate(-45) scale(42.924)" gradientUnits="userSpaceOnUse"><stop stop-color="#FFC224" offset="0"/><stop stop-color="#F97255" offset="1"/></radialGradient></defs><g transform="matrix(.49638 0 0 .49638 70.336 50.398)" fill="none"><path d="m3.417 0.599 3.672 7.395h0.085l3.689-7.395h2.448v9.401h-1.717v-7.259h-0.17l-3.57 7.259h-1.547l-3.553-7.259h-0.187v7.259h-1.666v-9.401zm20.535 6.392h5.066l-1.972-4.845h-1.071zm4.233-6.392 3.995 9.401h-1.819l-0.646-1.479h-6.409l-0.646 1.479h-1.853l4.114-9.401zm13.232 0 6.239 6.987v-6.987h1.717v9.401h-1.751l-6.239-7.021v7.021h-1.7v-9.401zm25.649 4.063v5.338h-1.105l-0.255-0.867c-0.4647 0.36267-0.969 0.64033-1.513 0.833-0.5327 0.1813-1.19 0.272-1.972 0.272-0.748 0-1.445-0.1133-2.091-0.34-0.6347-0.22667-1.1843-0.54967-1.649-0.969-0.4647-0.43067-0.833-0.952-1.105-1.564-0.2607-0.612-0.391-1.2977-0.391-2.057s0.1303-1.445 0.391-2.057c0.272-0.612 0.6403-1.1277 1.105-1.547 0.476-0.43067 1.0313-0.75933 1.666-0.986 0.646-0.22667 1.3373-0.34 2.074-0.34 1.0653 0 1.972 0.19267 2.72 0.578 0.748 0.374 1.3827 0.935 1.904 1.683l-1.36 0.782c-0.3967-0.49867-0.85-0.867-1.36-1.105-0.4987-0.238-1.1503-0.357-1.955-0.357-0.5327 0-1.0143 0.07933-1.445 0.238-0.4193 0.15867-0.782 0.38533-1.088 0.68-0.2947 0.28333-0.527 0.63467-0.697 1.054-0.1587 0.408-0.238 0.867-0.238 1.377s0.085 0.969 0.255 1.377 0.408 0.75933 0.714 1.054 0.6687 0.52133 1.088 0.68c0.4307 0.15867 0.901 0.238 1.411 0.238 0.7593 0 1.3883-0.09067 1.887-0.272s0.9463-0.459 1.343-0.833v-1.377l-2.482-0.102v-1.411zm16.311-4.063v1.564h-6.681v2.261h6.018v1.547h-6.018v2.448h6.936v1.581h-8.67v-9.401zm13.488 0c0.544 0 1.0483 0.090667 1.513 0.272 0.4646 0.17 0.867 0.41367 1.207 0.731s0.6063 0.70267 0.7993 1.156c0.204 0.442 0.306 0.935 0.306 1.479 0 0.748-0.182 1.394-0.544 1.938-0.3517 0.53267-0.822 0.94067-1.4113 1.224l1.4793 2.601h-1.8873l-1.19-2.176h-4.063v2.176h-1.734v-9.401zm-3.791 5.644h3.723c0.646 0 1.1673-0.17567 1.564-0.527 0.408-0.35133 0.612-0.84433 0.612-1.479 0-0.646-0.204-1.1503-0.612-1.513-0.3967-0.36267-0.918-0.544-1.564-0.544h-3.723zm16.213 1.326c0.374 0 0.691 0.13033 0.952 0.391s0.391 0.57233 0.391 0.935-0.13 0.66867-0.391 0.918c-0.261 0.238-0.578 0.357-0.952 0.357-0.363 0-0.674-0.119-0.935-0.357-0.249-0.24933-0.374-0.55533-0.374-0.918s0.125-0.67433 0.374-0.935c0.261-0.26067 0.572-0.391 0.935-0.391zm14.949-6.97c0.419 0 0.805 0.056667 1.156 0.17 0.363 0.11333 0.669 0.27767 0.918 0.493s0.442 0.47033 0.578 0.765c0.147 0.29467 0.221 0.629 0.221 1.003 0 0.782-0.266 1.3543-0.799 1.717 0.465 0.204 0.822 0.51 1.071 0.918 0.261 0.39667 0.391 0.87833 0.391 1.445 0 0.39667-0.079 0.77067-0.238 1.122-0.147 0.35133-0.357 0.65733-0.629 0.918s-0.601 0.47033-0.986 0.629c-0.374 0.14733-0.793 0.221-1.258 0.221h-6.426v-9.401zm-4.267 3.74h4.42c0.329 0 0.584-0.10767 0.765-0.323 0.181-0.22667 0.272-0.476 0.272-0.748 0-0.14733-0.023-0.28333-0.068-0.408-0.034-0.136-0.102-0.255-0.204-0.357s-0.238-0.18133-0.408-0.238c-0.159-0.068-0.363-0.102-0.612-0.102h-4.165zm0 4.097h4.624c0.499 0 0.873-0.12467 1.122-0.374 0.249-0.26067 0.374-0.57233 0.374-0.935 0-0.39667-0.125-0.70833-0.374-0.935-0.238-0.22667-0.555-0.34-0.952-0.34h-4.794zm16.854-3.128c0 0.544 0.091 1.0313 0.272 1.462 0.182 0.41933 0.431 0.77633 0.748 1.071 0.318 0.29467 0.686 0.52133 1.105 0.68 0.431 0.14733 0.896 0.221 1.394 0.221 0.499 0 0.964-0.07367 1.394-0.221 0.431-0.15867 0.805-0.38533 1.122-0.68 0.318-0.29467 0.567-0.65167 0.748-1.071 0.182-0.43067 0.272-0.918 0.272-1.462s-0.09-1.0257-0.272-1.445c-0.181-0.43067-0.43-0.79333-0.748-1.088-0.317-0.29467-0.691-0.51567-1.122-0.663-0.43-0.15867-0.895-0.238-1.394-0.238-0.498 0-0.963 0.07933-1.394 0.238-0.419 0.14733-0.787 0.36833-1.105 0.663-0.317 0.29467-0.566 0.65733-0.748 1.088-0.181 0.41933-0.272 0.901-0.272 1.445zm8.772 0c0 0.748-0.136 1.428-0.408 2.04-0.272 0.60067-0.646 1.1163-1.122 1.547s-1.037 0.765-1.683 1.003c-0.634 0.2267-1.314 0.34-2.04 0.34-0.725 0-1.411-0.1133-2.057-0.34-0.634-0.238-1.19-0.57233-1.666-1.003s-0.85-0.94633-1.122-1.547c-0.272-0.612-0.408-1.292-0.408-2.04s0.136-1.4223 0.408-2.023c0.272-0.612 0.646-1.1333 1.122-1.564s1.032-0.75933 1.666-0.986c0.646-0.238 1.332-0.357 2.057-0.357 0.726 0 1.406 0.119 2.04 0.357 0.646 0.22667 1.207 0.55533 1.683 0.986s0.85 0.952 1.122 1.564c0.272 0.60067 0.408 1.275 0.408 2.023zm9.387-4.709v9.401h-1.734v-9.401zm13.362 0c0.544 0 1.049 0.090667 1.513 0.272 0.465 0.17 0.867 0.41367 1.207 0.731s0.607 0.70267 0.799 1.156c0.204 0.442 0.306 0.935 0.306 1.479 0 0.748-0.181 1.394-0.544 1.938-0.351 0.53267-0.821 0.94067-1.411 1.224l1.479 2.601h-1.887l-1.19-2.176h-4.063v2.176h-1.734v-9.401zm-3.791 5.644h3.723c0.646 0 1.168-0.17567 1.564-0.527 0.408-0.35133 0.612-0.84433 0.612-1.479 0-0.646-0.204-1.1503-0.612-1.513-0.396-0.36267-0.918-0.544-1.564-0.544h-3.723zm23.541-5.644v1.564h-6.681v2.261h6.018v1.547h-6.018v2.448h6.936v1.581h-8.67v-9.401zm9.05 6.97c0.374 0 0.692 0.13033 0.952 0.391 0.261 0.26067 0.391 0.57233 0.391 0.935s-0.13 0.66867-0.391 0.918c-0.26 0.238-0.578 0.357-0.952 0.357-0.362 0-0.674-0.119-0.935-0.357-0.249-0.24933-0.374-0.55533-0.374-0.918s0.125-0.67433 0.374-0.935c0.261-0.26067 0.573-0.391 0.935-0.391zm10.682-6.97v7.837h6.766v1.564h-8.5v-9.401zm15.913 0v9.401h-1.734v-9.401zm9.35 0 3.315 7.837h0.68l3.315-7.837h1.887l-4.148 9.401h-2.822l-4.131-9.401zm22.167 0c0.544 0 1.048 0.090667 1.513 0.272 0.464 0.17 0.867 0.41367 1.207 0.731s0.606 0.70267 0.799 1.156c0.204 0.442 0.306 0.935 0.306 1.479 0 0.748-0.182 1.394-0.544 1.938-0.352 0.53267-0.822 0.94067-1.411 1.224l1.479 2.601h-1.887l-1.19-2.176h-4.063v2.176h-1.734v-9.401zm-3.791 5.644h3.723c0.646 0 1.167-0.17567 1.564-0.527 0.408-0.35133 0.612-0.84433 0.612-1.479 0-0.646-0.204-1.1503-0.612-1.513-0.397-0.36267-0.918-0.544-1.564-0.544h-3.723zm23.54-5.644v1.564h-6.681v2.261h6.018v1.547h-6.018v2.448h6.936v1.581h-8.67v-9.401zm13.488 0c0.544 0 1.048 0.090667 1.513 0.272 0.464 0.17 0.867 0.41367 1.207 0.731s0.606 0.70267 0.799 1.156c0.204 0.442 0.306 0.935 0.306 1.479 0 0.748-0.182 1.394-0.544 1.938-0.352 0.53267-0.822 0.94067-1.411 1.224l1.479 2.601h-1.887l-1.19-2.176h-4.063v2.176h-1.734v-9.401zm-3.791 5.644h3.723c0.646 0 1.167-0.17567 1.564-0.527 0.408-0.35133 0.612-0.84433 0.612-1.479 0-0.646-0.204-1.1503-0.612-1.513-0.397-0.36267-0.918-0.544-1.564-0.544h-3.723z" fill="#313743"/></g></svg>
