<?xml version="1.0" encoding="UTF-8"?>
<svg width="25" height="25" viewBox="0 0 25 25" fill="none" xmlns="http://www.w3.org/2000/svg">
 <g filter="url(#filter7)">
  <rect width="25" height="25" rx="12.5" fill="#FFB820" fill-opacity=".15"/>
  <g id="Vector">
   <path d="M6 8.63636C6 8.20237 6.19156 7.78616 6.53253 7.47928C6.87351 7.1724 7.33597 7 7.81818 7H14.1818C14.664 7 15.1265 7.1724 15.4675 7.47928C15.8084 7.78616 16 8.20237 16 8.63636V11.9091C16 12.3431 15.8084 12.7593 15.4675 13.0662C15.1265 13.3731 14.664 13.5455 14.1818 13.5455H12.3636L9.63636 16V13.5455H7.81818C7.33597 13.5455 6.87351 13.3731 6.53253 13.0662C6.19156 12.7593 6 12.3431 6 11.9091V8.63636Z" fill="#000"/>
   <path d="M6 8.63636C6 8.20237 6.19156 7.78616 6.53253 7.47928C6.87351 7.1724 7.33597 7 7.81818 7H14.1818C14.664 7 15.1265 7.1724 15.4675 7.47928C15.8084 7.78616 16 8.20237 16 8.63636V11.9091C16 12.3431 15.8084 12.7593 15.4675 13.0662C15.1265 13.3731 14.664 13.5455 14.1818 13.5455H12.3636L9.63636 16V13.5455H7.81818C7.33597 13.5455 6.87351 13.3731 6.53253 13.0662C6.19156 12.7593 6 12.3431 6 11.9091V8.63636Z" fill="url(#paint0_linear_841_16729)"/>
  </g>
  <path d="m17.585 10v1.6364c0 0.8679-0.3392 1.7004-0.9431 2.3141-0.6038 0.6138-1.4228 0.9586-2.2768 0.9586h-0.9435l-1.4216 1.4457c0.2254 0.1219 0.4822 0.1907 0.7551 0.1907h1.61l2.4149 2.4545v-2.4545h1.61c0.427 0 0.8365-0.1724 1.1384-0.4793 0.302-0.3069 0.4716-0.7231 0.4716-1.1571v-3.2727c0-0.434-0.1696-0.8502-0.4716-1.1571-0.3019-0.3069-0.7114-0.4793-1.1384-0.4793h-0.805z" fill="#000"/>
  <path d="m17.585 10v1.6364c0 0.8679-0.3392 1.7004-0.9431 2.3141-0.6038 0.6138-1.4228 0.9586-2.2768 0.9586h-0.9435l-1.4216 1.4457c0.2254 0.1219 0.4822 0.1907 0.7551 0.1907h1.61l2.4149 2.4545v-2.4545h1.61c0.427 0 0.8365-0.1724 1.1384-0.4793 0.302-0.3069 0.4716-0.7231 0.4716-1.1571v-3.2727c0-0.434-0.1696-0.8502-0.4716-1.1571-0.3019-0.3069-0.7114-0.4793-1.1384-0.4793h-0.805z" fill="url(#paint1_linear_841_16729)"/>
 </g>
 <defs>
  <linearGradient id="paint0_linear_841_16729" x1="11" x2="11" y1="7" y2="16" gradientUnits="userSpaceOnUse">
   <stop stop-color="#FFC126" offset="0"/>
   <stop stop-color="#FE9F10" offset="1"/>
  </linearGradient>
  <linearGradient id="paint1_linear_841_16729" x1="16" x2="16" y1="10" y2="19" gradientUnits="userSpaceOnUse">
   <stop stop-color="#FFC126" offset="0"/>
   <stop stop-color="#FE9F10" offset="1"/>
  </linearGradient>
  <filter id="filter7" x="0" y="0" width="1" height="1" color-interpolation-filters="sRGB">
   <feColorMatrix values="0.21 0.72 0.072 0 0 0.21 0.72 0.072 0 0 0.21 0.72 0.072 0 0 0 0 0 1 0 "/>
  </filter>
 </defs>
</svg>
