<svg width="25" height="25" viewBox="0 0 25 25" fill="none" xmlns="http://www.w3.org/2000/svg">
<g id="Frame 2">
<rect width="25" height="25" rx="12.5" fill="#FFB820" fill-opacity="0.15"/>
<g id="Group 124802">
<g id="Vector">
<path d="M6 8.63636C6 8.20237 6.19156 7.78616 6.53253 7.47928C6.87351 7.1724 7.33597 7 7.81818 7H14.1818C14.664 7 15.1265 7.1724 15.4675 7.47928C15.8084 7.78616 16 8.20237 16 8.63636V11.9091C16 12.3431 15.8084 12.7593 15.4675 13.0662C15.1265 13.3731 14.664 13.5455 14.1818 13.5455H12.3636L9.63636 16V13.5455H7.81818C7.33597 13.5455 6.87351 13.3731 6.53253 13.0662C6.19156 12.7593 6 12.3431 6 11.9091V8.63636Z" fill="black"/>
<path d="M6 8.63636C6 8.20237 6.19156 7.78616 6.53253 7.47928C6.87351 7.1724 7.33597 7 7.81818 7H14.1818C14.664 7 15.1265 7.1724 15.4675 7.47928C15.8084 7.78616 16 8.20237 16 8.63636V11.9091C16 12.3431 15.8084 12.7593 15.4675 13.0662C15.1265 13.3731 14.664 13.5455 14.1818 13.5455H12.3636L9.63636 16V13.5455H7.81818C7.33597 13.5455 6.87351 13.3731 6.53253 13.0662C6.19156 12.7593 6 12.3431 6 11.9091V8.63636Z" fill="url(#paint0_linear_841_16729)"/>
</g>
<g id="Vector_2">
<path d="M17.585 10V11.6364C17.585 12.5043 17.2458 13.3368 16.6419 13.9505C16.0381 14.5643 15.2191 14.9091 14.3651 14.9091H13.4216L12 16.3548C12.2254 16.4767 12.4822 16.5455 12.7551 16.5455H14.3651L16.78 19V16.5455H18.39C18.817 16.5455 19.2265 16.3731 19.5284 16.0662C19.8304 15.7593 20 15.3431 20 14.9091V11.6364C20 11.2024 19.8304 10.7862 19.5284 10.4793C19.2265 10.1724 18.817 10 18.39 10H17.585Z" fill="black"/>
<path d="M17.585 10V11.6364C17.585 12.5043 17.2458 13.3368 16.6419 13.9505C16.0381 14.5643 15.2191 14.9091 14.3651 14.9091H13.4216L12 16.3548C12.2254 16.4767 12.4822 16.5455 12.7551 16.5455H14.3651L16.78 19V16.5455H18.39C18.817 16.5455 19.2265 16.3731 19.5284 16.0662C19.8304 15.7593 20 15.3431 20 14.9091V11.6364C20 11.2024 19.8304 10.7862 19.5284 10.4793C19.2265 10.1724 18.817 10 18.39 10H17.585Z" fill="url(#paint1_linear_841_16729)"/>
</g>
</g>
</g>
<defs>
<linearGradient id="paint0_linear_841_16729" x1="11" y1="7" x2="11" y2="16" gradientUnits="userSpaceOnUse">
<stop stop-color="#FFC126"/>
<stop offset="1" stop-color="#FE9F10"/>
</linearGradient>
<linearGradient id="paint1_linear_841_16729" x1="16" y1="10" x2="16" y2="19" gradientUnits="userSpaceOnUse">
<stop stop-color="#FFC126"/>
<stop offset="1" stop-color="#FE9F10"/>
</linearGradient>
</defs>
</svg>
