<svg width="152" height="35" viewBox="0 0 152 35" fill="none" xmlns="http://www.w3.org/2000/svg">
<path d="M8.45154 9.27307C13.1188 4.60582 20.6859 4.60582 25.3532 9.27307C30.0204 13.9403 30.0204 21.5074 25.3532 26.1747L18.2979 33.2299C17.5272 34.0007 16.2775 34.0007 15.5068 33.2299L8.45154 26.1747C3.78429 21.5074 3.78429 13.9403 8.45154 9.27307Z" fill="#4230AF"/>
<path d="M8.45154 9.27307C13.1188 4.60582 20.6859 4.60582 25.3532 9.27307C30.0204 13.9403 30.0204 21.5074 25.3532 26.1747L18.2979 33.2299C17.5272 34.0007 16.2775 34.0007 15.5068 33.2299L8.45154 26.1747C3.78429 21.5074 3.78429 13.9403 8.45154 9.27307Z" fill="url(#paint0_radial_2671_747)"/>
<path fill-rule="evenodd" clip-rule="evenodd" d="M23.1487 7.10234V17.7239H11.0723V7.13359C14.8096 5.16256 19.4024 5.15214 23.1487 7.10234Z" fill="#FB81AD"/>
<path fill-rule="evenodd" clip-rule="evenodd" d="M11.0723 18.1165L14.3835 14.7051L17.1105 17.5145L19.8375 14.7051L23.1487 18.1165L18.0636 23.3554C17.5368 23.8981 16.6842 23.8981 16.1574 23.3554L11.0723 18.1165Z" fill="white"/>
<path fill-rule="evenodd" clip-rule="evenodd" d="M43.7722 25.9765H45.9825V19.5768C45.9825 18.3411 45.5556 17.281 44.7019 16.3965C43.8418 15.5185 42.811 15.0795 41.6094 15.0795C40.8568 15.0665 40.1359 15.2583 39.4466 15.6551V10.6797H37.2363V25.9765H39.4466V19.5768C39.4466 18.959 39.6553 18.4354 40.0727 18.0062C40.4964 17.5704 41.0086 17.3525 41.6094 17.3525C42.2102 17.3525 42.7224 17.5704 43.1461 18.0062C43.5635 18.4354 43.7722 18.959 43.7722 19.5768V25.9765ZM50.2 18.2988C50.8134 17.668 51.5565 17.3525 52.4292 17.3525C53.3019 17.3525 54.045 17.668 54.6584 18.2988C55.2718 18.9297 55.5786 19.6939 55.5786 20.5914C55.5786 21.4889 55.2718 22.2564 54.6584 22.8937C54.045 23.5246 53.3019 23.84 52.4292 23.84C51.5565 23.84 50.8134 23.5246 50.2 22.8937C49.5802 22.2564 49.2703 21.4889 49.2703 20.5914C49.2703 19.7004 49.5802 18.9362 50.2 18.2988ZM48.6348 24.4937C49.6846 25.5733 50.9494 26.1131 52.4292 26.1131C53.9027 26.1131 55.1643 25.5733 56.2141 24.4937C57.2639 23.414 57.7888 22.1133 57.7888 20.5914C57.7888 19.076 57.2639 17.7785 56.2141 16.6989C55.1643 15.6193 53.9027 15.0795 52.4292 15.0795C50.9494 15.0795 49.6846 15.6193 48.6348 16.6989C47.585 17.7785 47.0601 19.076 47.0601 20.5914C47.0601 22.1133 47.585 23.414 48.6348 24.4937ZM63.7897 17.3525V15.0795H63.23C62.4648 15.099 61.7439 15.2713 61.0672 15.5965V15.2063H58.8569V25.9765H61.0672V19.5866C61.0672 18.9687 61.279 18.4419 61.7028 18.0062C62.1265 17.5704 62.6356 17.3525 63.23 17.3525H63.7897ZM66.9922 18.3086C67.6119 17.6712 68.355 17.3525 69.2214 17.3525C70.0941 17.3525 70.8404 17.6712 71.4601 18.3086C72.0735 18.9395 72.3803 19.7036 72.3803 20.6012C72.3803 21.4987 72.0735 22.2629 71.4601 22.8937C70.8404 23.5246 70.0941 23.84 69.2214 23.84C68.3487 23.84 67.6056 23.5246 66.9922 22.8937C66.3788 22.2629 66.072 21.4987 66.072 20.6012C66.072 19.7036 66.3788 18.9395 66.9922 18.3086ZM65.4365 24.4937C66.4863 25.5733 67.7479 26.1131 69.2214 26.1131C70.7076 26.1131 71.7605 25.7944 72.3803 25.157V25.9765H74.5905V15.2063H72.3803V16.0355C71.7605 15.3982 70.7076 15.0795 69.2214 15.0795C67.7479 15.0795 66.4863 15.6193 65.4365 16.6989C64.3867 17.7785 63.8618 19.0793 63.8618 20.6012C63.8618 22.1165 64.3867 23.414 65.4365 24.4937ZM78.5709 15.2063H76.3606V25.9765H78.5709V15.2063ZM76.5124 13.9381C76.778 14.2112 77.0942 14.3478 77.461 14.3478C77.8341 14.3478 78.1535 14.2112 78.4191 13.9381C78.6847 13.6649 78.8175 13.3397 78.8175 12.9625C78.8175 12.5788 78.6847 12.2503 78.4191 11.9772C78.1535 11.704 77.8341 11.5675 77.461 11.5675C77.0942 11.5675 76.778 11.704 76.5124 11.9772C76.2468 12.2503 76.114 12.5788 76.114 12.9625C76.114 13.3397 76.2468 13.6649 76.5124 13.9381ZM85.2547 17.3525V15.0795H84.6951C83.9298 15.099 83.2089 15.2713 82.5322 15.5965V15.2063H80.322V25.9765H82.5322V19.5866C82.5322 18.9687 82.7441 18.4419 83.1678 18.0062C83.5915 17.5704 84.1006 17.3525 84.6951 17.3525H85.2547ZM92.5362 17.9671C92.9979 18.3379 93.3078 18.6891 93.4659 19.0208H87.9355C88.0999 18.6956 88.4066 18.3444 88.8556 17.9671C89.3995 17.5574 90.0129 17.3525 90.6959 17.3525C91.3726 17.3525 91.986 17.5574 92.5362 17.9671ZM94.4809 16.6989C93.4311 15.6193 92.1694 15.0795 90.6959 15.0795C89.2224 15.0795 87.9608 15.6193 86.911 16.6989C85.8549 17.7785 85.3268 19.076 85.3268 20.5914C85.3268 22.1133 85.8549 23.414 86.911 24.4937C87.9608 25.5733 89.2224 26.1131 90.6959 26.1131C91.7331 26.1131 92.6848 25.8269 93.5512 25.2546C94.3987 24.7083 95.1069 23.8498 95.6761 22.6791L93.6366 21.7718C93.2635 22.5198 92.8335 23.0433 92.3465 23.3425C91.8343 23.6742 91.2841 23.84 90.6959 23.84C89.8738 23.84 89.1624 23.5539 88.5616 22.9815C88.0114 22.3897 87.6952 21.8271 87.613 21.2938H96.0366L96.0556 20.5914C96.0556 19.076 95.5307 17.7785 94.4809 16.6989ZM98.6509 25.4692C99.3592 25.892 100.15 26.1066 101.022 26.1131H101.032C101.968 26.1131 102.774 25.8562 103.451 25.3424C104.235 24.7571 104.665 23.9441 104.741 22.9035C104.804 22.097 104.577 21.3784 104.058 20.7475C103.773 20.4223 103.432 20.1524 103.034 19.9378C102.509 19.6646 101.905 19.5053 101.222 19.4598C100.583 19.4142 100.08 19.3167 99.7134 19.1671C99.3403 19.0045 99.1537 18.7964 99.1537 18.5427C99.1537 18.068 99.4067 17.7298 99.9126 17.5281C100.096 17.4566 100.283 17.4078 100.472 17.3818C100.554 17.3688 100.649 17.359 100.757 17.3525C101.326 17.3525 101.803 17.5574 102.189 17.9671C102.309 18.0972 102.414 18.2436 102.502 18.4061L102.787 18.9525L104.845 18.172C104.586 17.4826 104.235 16.8908 103.792 16.3965C102.983 15.5185 101.977 15.0795 100.776 15.0795C99.764 15.0795 98.8976 15.3656 98.1766 15.938C97.3545 16.5949 96.9435 17.4631 96.9435 18.5427C96.9435 18.8744 96.994 19.1866 97.0952 19.4793C97.2154 19.8565 97.4209 20.1947 97.7118 20.4939C98.4075 21.2158 99.5268 21.6288 101.07 21.7328C101.69 21.7718 102.123 21.9442 102.369 22.2499C102.496 22.3864 102.553 22.5458 102.54 22.7279C102.509 23.1571 102.306 23.4661 101.933 23.6547C101.788 23.7197 101.62 23.7685 101.43 23.801C101.361 23.814 101.291 23.8238 101.222 23.8303C101.152 23.8368 101.089 23.84 101.032 23.84C100.57 23.8335 100.166 23.7327 99.8177 23.5376C99.4193 23.31 99.1252 22.8612 98.9355 22.1913L96.8201 22.8059C97.1743 24.0547 97.7846 24.9424 98.6509 25.4692ZM108.769 24.7668C108.769 24.3246 108.617 23.9473 108.313 23.6352C108.01 23.323 107.646 23.1669 107.223 23.1669C106.799 23.1669 106.435 23.323 106.132 23.6352C105.828 23.9473 105.676 24.3246 105.676 24.7668C105.676 25.2026 105.828 25.5765 106.132 25.8887C106.429 26.2074 106.793 26.3667 107.223 26.3667C107.653 26.3667 108.016 26.2074 108.313 25.8887C108.617 25.5765 108.769 25.2026 108.769 24.7668ZM112.436 25.4692C113.144 25.892 113.935 26.1066 114.808 26.1131H114.817C115.753 26.1131 116.559 25.8562 117.236 25.3424C118.02 24.7571 118.45 23.9441 118.526 22.9035C118.589 22.097 118.362 21.3784 117.843 20.7475C117.559 20.4223 117.217 20.1524 116.819 19.9378C116.294 19.6646 115.69 19.5053 115.007 19.4598C114.368 19.4142 113.865 19.3167 113.499 19.1671C113.125 19.0045 112.939 18.7964 112.939 18.5427C112.939 18.068 113.192 17.7298 113.698 17.5281C113.881 17.4566 114.068 17.4078 114.257 17.3818C114.34 17.3688 114.434 17.359 114.542 17.3525C115.111 17.3525 115.589 17.5574 115.974 17.9671C116.095 18.0972 116.199 18.2436 116.287 18.4061L116.572 18.9525L118.63 18.172C118.371 17.4826 118.02 16.8908 117.578 16.3965C116.768 15.5185 115.763 15.0795 114.561 15.0795C113.549 15.0795 112.683 15.3656 111.962 15.938C111.14 16.5949 110.729 17.4631 110.729 18.5427C110.729 18.8744 110.779 19.1866 110.88 19.4793C111.001 19.8565 111.206 20.1947 111.497 20.4939C112.193 21.2158 113.312 21.6288 114.855 21.7328C115.475 21.7718 115.908 21.9442 116.155 22.2499C116.281 22.3864 116.338 22.5458 116.325 22.7279C116.294 23.1571 116.091 23.4661 115.718 23.6547C115.573 23.7197 115.405 23.7685 115.215 23.801C115.146 23.814 115.076 23.8238 115.007 23.8303C114.937 23.8368 114.874 23.84 114.817 23.84C114.355 23.8335 113.951 23.7327 113.603 23.5376C113.204 23.31 112.91 22.8612 112.721 22.1913L110.605 22.8059C110.959 24.0547 111.57 24.9424 112.436 25.4692ZM126.149 25.9765H128.359V19.5768C128.359 18.3411 127.932 17.281 127.079 16.3965C126.219 15.5185 125.188 15.0795 123.986 15.0795C123.234 15.0665 122.513 15.2583 121.823 15.6551V10.6797H119.613V25.9765H121.823V19.5768C121.823 18.959 122.032 18.4354 122.45 18.0062C122.873 17.5704 123.386 17.3525 123.986 17.3525C124.587 17.3525 125.099 17.5704 125.523 18.0062C125.94 18.4354 126.149 18.959 126.149 19.5768V25.9765ZM132.577 18.2988C133.19 17.668 133.933 17.3525 134.806 17.3525C135.679 17.3525 136.422 17.668 137.035 18.2988C137.649 18.9297 137.955 19.6939 137.955 20.5914C137.955 21.4889 137.649 22.2564 137.035 22.8937C136.422 23.5246 135.679 23.84 134.806 23.84C133.933 23.84 133.19 23.5246 132.577 22.8937C131.957 22.2564 131.647 21.4889 131.647 20.5914C131.647 19.7004 131.957 18.9362 132.577 18.2988ZM131.012 24.4937C132.061 25.5733 133.326 26.1131 134.806 26.1131C136.28 26.1131 137.541 25.5733 138.591 24.4937C139.641 23.414 140.166 22.1133 140.166 20.5914C140.166 19.076 139.641 17.7785 138.591 16.6989C137.541 15.6193 136.28 15.0795 134.806 15.0795C133.326 15.0795 132.061 15.6193 131.012 16.6989C129.962 17.7785 129.437 19.076 129.437 20.5914C129.437 22.1133 129.962 23.414 131.012 24.4937ZM148.832 22.8937C148.212 23.5246 147.466 23.84 146.593 23.84C145.721 23.84 144.978 23.5246 144.364 22.8937C143.751 22.2629 143.444 21.4987 143.444 20.6012C143.444 19.7036 143.751 18.9362 144.364 18.2988C144.978 17.668 145.721 17.3525 146.593 17.3525C147.466 17.3525 148.212 17.668 148.832 18.2988C149.446 18.9362 149.752 19.7036 149.752 20.6012C149.752 21.4987 149.446 22.2629 148.832 22.8937ZM150.388 16.6989C149.338 15.6193 148.073 15.0795 146.593 15.0795C145.392 15.0795 144.342 15.4242 143.444 16.1136V15.2063H141.234V29.8007H143.444V25.0692C144.323 25.7521 145.373 26.1001 146.593 26.1131C148.073 26.1131 149.338 25.5733 150.388 24.4937C151.438 23.414 151.963 22.1165 151.963 20.6012C151.963 19.0793 151.438 17.7785 150.388 16.6989Z" fill="white"/>
<defs>
<radialGradient id="paint0_radial_2671_747" cx="0" cy="0" r="1" gradientUnits="userSpaceOnUse" gradientTransform="translate(9.86236 24.8729) rotate(-45) scale(21.9844)">
<stop stop-color="#B53A7C"/>
<stop offset="1" stop-color="#F95586"/>
</radialGradient>
</defs>
</svg>
