<svg width="17" height="17" viewBox="0 0 17 17" fill="none" xmlns="http://www.w3.org/2000/svg">
<g id="share">
<path id="Vector" d="M14 9.50333C12.2525 10.2742 10.3849 10.6692 8.5 10.6667C6.55483 10.6667 4.69889 10.2533 3 9.50333M10.9444 4.66667V3.33333C10.9444 2.97971 10.8157 2.64057 10.5865 2.39052C10.3573 2.14048 10.0464 2 9.72222 2H7.27778C6.95362 2 6.64275 2.14048 6.41354 2.39052C6.18433 2.64057 6.05556 2.97971 6.05556 3.33333V4.66667M8.5 8.66667H8.50611M4.22222 14H12.7778C13.1019 14 13.4128 13.8595 13.642 13.6095C13.8712 13.3594 14 13.0203 14 12.6667V6C14 5.64638 13.8712 5.30724 13.642 5.05719C13.4128 4.80714 13.1019 4.66667 12.7778 4.66667H4.22222C3.89807 4.66667 3.58719 4.80714 3.35798 5.05719C3.12877 5.30724 3 5.64638 3 6V12.6667C3 13.0203 3.12877 13.3594 3.35798 13.6095C3.58719 13.8595 3.89807 14 4.22222 14Z" stroke="#9E9E9E" stroke-width="1.5" stroke-linecap="round" stroke-linejoin="round"/>
</g>
</svg>
