<svg width="25" height="26" viewBox="0 0 25 26" fill="none" xmlns="http://www.w3.org/2000/svg">
<g id="Frame 2">
<rect y="0.5" width="25" height="25" rx="12.5" fill="white" fill-opacity="0.25"/>
<path id="Vector" fill-rule="evenodd" clip-rule="evenodd" d="M7.90392 7.81981C9.1229 6.6546 10.7762 6 12.5001 6C14.224 6 15.8772 6.6546 17.0962 7.81981C18.3152 8.98501 19 10.5654 19 12.2132C19 13.861 18.3152 15.4414 17.0962 16.6066L12.5001 21L7.90392 16.6066C7.30031 16.0297 6.82149 15.3447 6.49482 14.5909C6.16814 13.8371 6 13.0291 6 12.2132C6 11.3973 6.16814 10.5893 6.49482 9.83549C6.82149 9.08167 7.30031 8.39673 7.90392 7.81981ZM12.5001 13.9883C12.9926 13.9883 13.4649 13.8013 13.8132 13.4684C14.1614 13.1355 14.3571 12.684 14.3571 12.2132C14.3571 11.7424 14.1614 11.2909 13.8132 10.958C13.4649 10.6251 12.9926 10.4381 12.5001 10.4381C12.0076 10.4381 11.5352 10.6251 11.187 10.958C10.8387 11.2909 10.643 11.7424 10.643 12.2132C10.643 12.684 10.8387 13.1355 11.187 13.4684C11.5352 13.8013 12.0076 13.9883 12.5001 13.9883Z" fill="white"/>
</g>
</svg>
