<svg width="20" height="20" viewBox="0 0 20 20" fill="none" xmlns="http://www.w3.org/2000/svg">
<path id="Vector" d="M18.8478 18.9492L16.4287 16.5005M18.8478 10.3789C18.8478 11.5043 18.6288 12.6188 18.2033 13.6586C17.7778 14.6984 17.1541 15.6432 16.3679 16.439C15.5817 17.2348 14.6483 17.8661 13.6211 18.2968C12.5938 18.7275 11.4928 18.9492 10.3809 18.9492C9.26905 18.9492 8.16806 18.7275 7.14081 18.2968C6.11356 17.8661 5.18018 17.2348 4.39395 16.439C3.60773 15.6432 2.98407 14.6984 2.55857 13.6586C2.13306 12.6188 1.91406 11.5043 1.91406 10.3789C1.91406 8.1059 2.80611 5.92601 4.39395 4.31877C5.9818 2.71153 8.13538 1.80859 10.3809 1.80859C12.6265 1.80859 14.7801 2.71153 16.3679 4.31877C17.9558 5.92601 18.8478 8.1059 18.8478 10.3789Z" stroke="#313743" stroke-opacity="0.3" stroke-width="2" stroke-linecap="round" stroke-linejoin="round"/>
</svg>
