<svg width="17" height="17" viewBox="0 0 17 17" fill="none" xmlns="http://www.w3.org/2000/svg">
<g id="share">
<path id="share_outline" d="M12.3953 15.5834C11.6289 15.5922 10.9024 15.242 10.432 14.6368C9.96155 14.0317 9.80135 13.2413 9.99901 12.5007L5.56484 9.96627C4.79862 10.6683 3.67549 10.8168 2.7531 10.3382C1.83071 9.85961 1.30554 8.85576 1.43835 7.82512C1.57116 6.79448 2.33366 5.95656 3.34724 5.72742C4.36083 5.49828 5.40961 5.92672 5.97284 6.80002L9.9983 4.49864C9.94622 4.30186 9.91862 4.0994 9.91613 3.89585C9.90598 2.71061 10.7292 1.68099 11.8876 1.43002C13.046 1.17904 14.2215 1.77563 14.7028 2.85879C15.1841 3.94196 14.839 5.21422 13.8764 5.90575C12.9137 6.59728 11.5979 6.51816 10.725 5.71627L6.36809 8.20606C6.36378 8.38975 6.3381 8.57231 6.29159 8.75006L10.725 11.2838C11.5412 10.5347 12.7557 10.4191 13.6985 11.0007C14.6414 11.5822 15.0832 12.7194 14.7801 13.7849C14.4771 14.8505 13.5031 15.585 12.3953 15.5834ZM12.3953 12.0417C11.8085 12.0417 11.3328 12.5174 11.3328 13.1042C11.3328 13.691 11.8085 14.1667 12.3953 14.1667C12.9821 14.1667 13.4578 13.691 13.4578 13.1042C13.4578 12.5174 12.9821 12.0417 12.3953 12.0417ZM3.8953 7.08335C3.3085 7.08335 2.8328 7.55905 2.8328 8.14585C2.8328 8.73265 3.3085 9.20835 3.8953 9.20835C4.4821 9.20835 4.9578 8.73265 4.9578 8.14585C4.9578 7.55905 4.4821 7.08335 3.8953 7.08335ZM12.3953 2.83335C11.8085 2.83335 11.3328 3.30905 11.3328 3.89585C11.3328 4.48265 11.8085 4.95835 12.3953 4.95835C12.9821 4.95835 13.4578 4.48265 13.4578 3.89585C13.4578 3.30905 12.9821 2.83335 12.3953 2.83335Z" fill="#9E9E9E"/>
</g>
</svg>
