<svg width="143" height="42" viewBox="0 0 143 42" fill="none" xmlns="http://www.w3.org/2000/svg">
<path d="M136.854 41.0664H5.41104C2.52061 41.0664 0.15332 38.7551 0.15332 35.9331V5.13311C0.15332 2.31106 2.52061 -0.000218878 5.41104 -0.000218878H136.854C139.744 -0.000218878 142.112 2.31106 142.112 5.13311V35.9331C142.112 38.7551 139.744 41.0664 136.854 41.0664Z" fill="black"/>
<path d="M136.854 0.822396C139.288 0.822396 141.269 2.75638 141.269 5.13311V35.9331C141.269 38.3098 139.288 40.2438 136.854 40.2438H5.41104C2.97671 40.2438 0.995869 38.3098 0.995869 35.9331V5.13311C0.995869 2.75638 2.97671 0.822396 5.41104 0.822396H136.854ZM136.854 -0.000218878H5.41104C2.52061 -0.000218878 0.15332 2.31106 0.15332 5.13311V35.9331C0.15332 38.7551 2.52061 41.0664 5.41104 41.0664H136.854C139.744 41.0664 142.112 38.7551 142.112 35.9331V5.13311C142.112 2.31106 139.744 -0.000218878 136.854 -0.000218878Z" fill="#A6A6A6"/>
<path d="M50.0153 10.5167C50.0153 11.374 49.7524 12.0605 49.2345 12.5726C48.6391 13.1796 47.8636 13.485 46.9133 13.485C46.005 13.485 45.2295 13.1745 44.5933 12.5623C43.9558 11.9412 43.6377 11.1789 43.6377 10.2664C43.6377 9.354 43.9558 8.5917 44.5933 7.9757C45.2295 7.35842 46.005 7.04785 46.9133 7.04785C47.3654 7.04785 47.7965 7.13897 48.208 7.30837C48.6181 7.47905 48.9519 7.71005 49.1938 7.99495L48.6444 8.53652C48.2224 8.05013 47.648 7.81015 46.9133 7.81015C46.2508 7.81015 45.6764 8.03602 45.1887 8.4916C44.7063 8.94847 44.4645 9.54008 44.4645 10.2664C44.4645 10.9928 44.7063 11.5896 45.1887 12.0464C45.6764 12.4969 46.2508 12.7279 46.9133 12.7279C47.6165 12.7279 48.208 12.4969 48.6746 12.0413C48.9822 11.7397 49.157 11.3239 49.203 10.7926H46.9133V10.0508H49.968C50.0048 10.2113 50.0153 10.3665 50.0153 10.5167Z" fill="white" stroke="white" stroke-width="0.16" stroke-miterlimit="10"/>
<path d="M54.8614 7.94534H51.992V9.896H54.5788V10.6378H51.992V12.5884H54.8614V13.3443H51.1797V7.18945H54.8614V7.94534Z" fill="white" stroke="white" stroke-width="0.16" stroke-miterlimit="10"/>
<path d="M58.2813 13.3443H57.469V7.94534H55.709V7.18945H60.0427V7.94534H58.2813V13.3443Z" fill="white" stroke="white" stroke-width="0.16" stroke-miterlimit="10"/>
<path d="M63.1787 13.3443V7.18945H63.9897V13.3443H63.1787Z" fill="white" stroke="white" stroke-width="0.16" stroke-miterlimit="10"/>
<path d="M67.585 13.3443H66.7793V7.94534H65.0127V7.18945H69.3516V7.94534H67.585V13.3443Z" fill="white" stroke="white" stroke-width="0.16" stroke-miterlimit="10"/>
<path d="M77.5561 12.5521C76.9344 13.1745 76.1641 13.485 75.2453 13.485C74.3213 13.485 73.551 13.1745 72.9293 12.5521C72.3089 11.9309 72 11.1686 72 10.2664C72 9.36427 72.3089 8.60197 72.9293 7.98083C73.551 7.35842 74.3213 7.04785 75.2453 7.04785C76.1589 7.04785 76.9291 7.35842 77.5508 7.98597C78.1765 8.61223 78.4854 9.3694 78.4854 10.2664C78.4854 11.1686 78.1765 11.9309 77.5561 12.5521ZM73.53 12.0362C73.9979 12.4969 74.5671 12.7279 75.2453 12.7279C75.9183 12.7279 76.4927 12.4969 76.9554 12.0362C77.422 11.5754 77.6586 10.9838 77.6586 10.2664C77.6586 9.54907 77.422 8.95745 76.9554 8.49673C76.4927 8.03602 75.9183 7.80502 75.2453 7.80502C74.5671 7.80502 73.9979 8.03602 73.53 8.49673C73.0634 8.95745 72.8268 9.54907 72.8268 10.2664C72.8268 10.9838 73.0634 11.5754 73.53 12.0362Z" fill="white" stroke="white" stroke-width="0.16" stroke-miterlimit="10"/>
<path d="M79.625 13.3443V7.18945H80.6108L83.6761 11.9763H83.7116L83.6761 10.793V7.18945H84.4871V13.3443H83.6406L80.4307 8.32135H80.3953L80.4307 9.50972V13.3443H79.625Z" fill="white" stroke="white" stroke-width="0.16" stroke-miterlimit="10"/>
<path d="M71.8001 22.3327C69.3303 22.3327 67.3127 24.1678 67.3127 26.6999C67.3127 29.2113 69.3303 31.0657 71.8001 31.0657C74.2752 31.0657 76.2929 29.2113 76.2929 26.6999C76.2929 24.1678 74.2752 22.3327 71.8001 22.3327ZM71.8001 29.3461C70.445 29.3461 69.2791 28.254 69.2791 26.6999C69.2791 25.1252 70.445 24.0523 71.8001 24.0523C73.1553 24.0523 74.3265 25.1252 74.3265 26.6999C74.3265 28.254 73.1553 29.3461 71.8001 29.3461ZM62.009 22.3327C59.5339 22.3327 57.5215 24.1678 57.5215 26.6999C57.5215 29.2113 59.5339 31.0657 62.009 31.0657C64.4827 31.0657 66.4964 29.2113 66.4964 26.6999C66.4964 24.1678 64.4827 22.3327 62.009 22.3327ZM62.009 29.3461C60.6525 29.3461 59.4826 28.254 59.4826 26.6999C59.4826 25.1252 60.6525 24.0523 62.009 24.0523C63.3641 24.0523 64.53 25.1252 64.53 26.6999C64.53 28.254 63.3641 29.3461 62.009 29.3461ZM50.3579 23.6712V25.5269H54.8966C54.7638 26.5638 54.4089 27.3261 53.8648 27.8574C53.2023 28.4991 52.1705 29.2113 50.3579 29.2113C47.5647 29.2113 45.3775 27.0104 45.3775 24.2833C45.3775 21.5563 47.5647 19.3553 50.3579 19.3553C51.8682 19.3553 52.967 19.9316 53.778 20.6785L55.1174 19.3707C53.9831 18.3133 52.4741 17.5009 50.3579 17.5009C46.5276 17.5009 43.3086 20.5437 43.3086 24.2833C43.3086 28.023 46.5276 31.0657 50.3579 31.0657C52.4281 31.0657 53.9831 30.4035 55.2055 29.1613C56.4581 27.9383 56.8485 26.2186 56.8485 24.83C56.8485 24.3988 56.8117 24.0023 56.746 23.6712H50.3579ZM98.0007 25.1098C97.6313 24.1332 96.4917 22.3327 94.1704 22.3327C91.8702 22.3327 89.955 24.1024 89.955 26.6999C89.955 29.1459 91.8504 31.0657 94.3912 31.0657C96.4457 31.0657 97.6313 29.8427 98.1189 29.1305L96.5942 28.1385C96.0855 28.8648 95.3928 29.3461 94.3912 29.3461C93.3962 29.3461 92.6825 28.9008 92.225 28.023L98.207 25.6065L98.0007 25.1098ZM91.9017 26.5638C91.8504 24.8801 93.2411 24.0177 94.2374 24.0177C95.0182 24.0177 95.6807 24.3988 95.9015 24.9443L91.9017 26.5638ZM87.0396 30.8001H89.006V17.9668H87.0396V30.8001ZM83.8193 23.3054H83.7536C83.3119 22.7947 82.4694 22.3327 81.402 22.3327C79.1623 22.3327 77.1144 24.2525 77.1144 26.714C77.1144 29.1613 79.1623 31.0657 81.402 31.0657C82.4694 31.0657 83.3119 30.5999 83.7536 30.0737H83.8193V30.7C83.8193 32.3696 82.9057 33.2667 81.4323 33.2667C80.2309 33.2667 79.4856 32.4197 79.178 31.7074L77.468 32.4043C77.9609 33.5618 79.2661 34.9863 81.4323 34.9863C83.7378 34.9863 85.6831 33.6619 85.6831 30.4395V22.5983H83.8193V23.3054ZM81.5703 29.3461C80.2151 29.3461 79.0808 28.2386 79.0808 26.714C79.0808 25.1753 80.2151 24.0523 81.5703 24.0523C82.9058 24.0523 83.9586 25.1753 83.9586 26.714C83.9586 28.2386 82.9058 29.3461 81.5703 29.3461ZM107.207 17.9668H102.504V30.8001H104.465V25.9376H107.207C109.385 25.9376 111.521 24.3988 111.521 21.9515C111.521 19.5055 109.38 17.9668 107.207 17.9668ZM107.258 24.1524H104.465V19.7519H107.258C108.722 19.7519 109.558 20.939 109.558 21.9515C109.558 22.9448 108.722 24.1524 107.258 24.1524ZM119.381 22.3083C117.964 22.3083 116.491 22.9192 115.885 24.2731L117.625 24.9853C118 24.2731 118.688 24.0421 119.417 24.0421C120.434 24.0421 121.466 24.6388 121.482 25.6924V25.8272C121.127 25.627 120.367 25.3305 119.432 25.3305C117.558 25.3305 115.648 26.338 115.648 28.218C115.648 29.9377 117.183 31.0452 118.909 31.0452C120.229 31.0452 120.957 30.4639 121.415 29.7876H121.482V30.7796H123.376V25.8567C123.376 23.5814 121.635 22.3083 119.381 22.3083ZM119.145 29.341C118.503 29.341 117.609 29.0304 117.609 28.254C117.609 27.2607 118.724 26.8795 119.689 26.8795C120.552 26.8795 120.957 27.0656 121.482 27.3107C121.328 28.4991 120.28 29.341 119.145 29.341ZM130.276 22.5893L128.022 28.1526H127.955L125.625 22.5893H123.51L127.011 30.3638L125.013 34.6899H127.063L132.458 22.5893H130.276ZM112.599 30.8001H114.565V17.9668H112.599V30.8001Z" fill="white"/>
<path d="M11.1263 7.73986C10.8174 8.05555 10.6387 8.54707 10.6387 9.1836V31.8883C10.6387 32.5249 10.8174 33.0164 11.1263 33.3321L11.2026 33.4014L24.2338 20.6835V20.3832L11.2026 7.66542L11.1263 7.73986Z" fill="url(#paint0_linear_841_14036)"/>
<path d="M28.5723 24.9248L24.2334 20.6834V20.3831L28.5776 16.1417L28.6749 16.1969L33.8195 19.0548C35.2877 19.8659 35.2877 21.2006 33.8195 22.0168L28.6749 24.8696L28.5723 24.9248Z" fill="url(#paint1_linear_841_14036)"/>
<path d="M28.6749 24.8701L24.2335 20.5337L11.126 33.3324C11.6136 33.8329 12.4089 33.8932 13.3132 33.3927L28.6749 24.8701Z" fill="url(#paint2_linear_841_14036)"/>
<path d="M28.6749 16.1968L13.3132 7.67422C12.4089 7.17885 11.6136 7.23917 11.126 7.73967L24.2335 20.5332L28.6749 16.1968Z" fill="url(#paint3_linear_841_14036)"/>
<defs>
<linearGradient id="paint0_linear_841_14036" x1="23.0768" y1="32.1248" x2="5.85181" y2="14.4824" gradientUnits="userSpaceOnUse">
<stop stop-color="#00A0FF"/>
<stop offset="0.0066" stop-color="#00A1FF"/>
<stop offset="0.2601" stop-color="#00BEFF"/>
<stop offset="0.5122" stop-color="#00D2FF"/>
<stop offset="0.7604" stop-color="#00DFFF"/>
<stop offset="1" stop-color="#00E3FF"/>
</linearGradient>
<linearGradient id="paint1_linear_841_14036" x1="35.7314" y1="20.5318" x2="10.2873" y2="20.5318" gradientUnits="userSpaceOnUse">
<stop stop-color="#FFE000"/>
<stop offset="0.4087" stop-color="#FFBD00"/>
<stop offset="0.7754" stop-color="#FFA500"/>
<stop offset="1" stop-color="#FF9C00"/>
</linearGradient>
<linearGradient id="paint2_linear_841_14036" x1="26.2598" y1="18.1764" x2="2.90132" y2="-5.7481" gradientUnits="userSpaceOnUse">
<stop stop-color="#FF3A44"/>
<stop offset="1" stop-color="#C31162"/>
</linearGradient>
<linearGradient id="paint3_linear_841_14036" x1="7.82655" y1="40.8856" x2="18.2572" y2="30.2024" gradientUnits="userSpaceOnUse">
<stop stop-color="#32A071"/>
<stop offset="0.0685" stop-color="#2DA771"/>
<stop offset="0.4762" stop-color="#15CF74"/>
<stop offset="0.8009" stop-color="#06E775"/>
<stop offset="1" stop-color="#00F076"/>
</linearGradient>
</defs>
</svg>
